<svg width="125" height="85" viewBox="0 0 125 85" fill="none" xmlns="http://www.w3.org/2000/svg">
<g filter="url(#filter0_ddi_105_441)">
<path d="M63.3 68.92C77.9134 68.92 89.76 57.0735 89.76 42.46C89.76 27.8465 77.9134 16 63.3 16C48.6865 16 36.84 27.8465 36.84 42.46C36.84 57.0735 48.6865 68.92 63.3 68.92Z" fill="url(#paint0_linear_105_441)"/>
<path d="M65.7599 55.5349V43.4832H69.8219L70.4318 38.7649H65.7599V35.7623C65.7599 34.3979 66.1372 33.4729 68.0907 33.4729H70.5661V29.2661C70.1372 29.2093 68.6591 29.0801 66.9382 29.0801C63.3465 29.0801 60.8865 31.2713 60.8865 35.2971V38.77H56.84V43.4884H60.8865V55.5349H65.7599Z" fill="#F7F9FC"/>
</g>
<defs>
<filter id="filter0_ddi_105_441" x="0.839996" y="-20" width="123.92" height="123.92" filterUnits="userSpaceOnUse" color-interpolation-filters="sRGB">
<feFlood flood-opacity="0" result="BackgroundImageFix"/>
<feColorMatrix in="SourceAlpha" type="matrix" values="0 0 0 0 0 0 0 0 0 0 0 0 0 0 0 0 0 0 127 0" result="hardAlpha"/>
<feMorphology radius="4" operator="dilate" in="SourceAlpha" result="effect1_dropShadow_105_441"/>
<feOffset dx="-12" dy="-12"/>
<feGaussianBlur stdDeviation="10"/>
<feColorMatrix type="matrix" values="0 0 0 0 1 0 0 0 0 1 0 0 0 0 1 0 0 0 1 0"/>
<feBlend mode="normal" in2="BackgroundImageFix" result="effect1_dropShadow_105_441"/>
<feColorMatrix in="SourceAlpha" type="matrix" values="0 0 0 0 0 0 0 0 0 0 0 0 0 0 0 0 0 0 127 0" result="hardAlpha"/>
<feMorphology radius="3" operator="dilate" in="SourceAlpha" result="effect2_dropShadow_105_441"/>
<feOffset dx="12" dy="12"/>
<feGaussianBlur stdDeviation="10"/>
<feComposite in2="hardAlpha" operator="out"/>
<feColorMatrix type="matrix" values="0 0 0 0 0.776471 0 0 0 0 0.686118 0 0 0 0 0.635294 0 0 0 0.3 0"/>
<feBlend mode="normal" in2="effect1_dropShadow_105_441" result="effect2_dropShadow_105_441"/>
<feBlend mode="normal" in="SourceGraphic" in2="effect2_dropShadow_105_441" result="shape"/>
<feColorMatrix in="SourceAlpha" type="matrix" values="0 0 0 0 0 0 0 0 0 0 0 0 0 0 0 0 0 0 127 0" result="hardAlpha"/>
<feOffset dx="2" dy="2"/>
<feGaussianBlur stdDeviation="2"/>
<feComposite in2="hardAlpha" operator="arithmetic" k2="-1" k3="1"/>
<feColorMatrix type="matrix" values="0 0 0 0 1 0 0 0 0 1 0 0 0 0 1 0 0 0 0.5 0"/>
<feBlend mode="normal" in2="shape" result="effect3_innerShadow_105_441"/>
</filter>
<linearGradient id="paint0_linear_105_441" x1="35.3612" y1="14.8273" x2="49.6577" y2="72.3128" gradientUnits="userSpaceOnUse">
<stop stop-color="#FF5800"/>
<stop offset="1" stop-color="#FF8A00"/>
</linearGradient>
</defs>
</svg>
