<svg width="125" height="85" viewBox="0 0 125 85" fill="none" xmlns="http://www.w3.org/2000/svg">
<g filter="url(#filter0_ddi_119_1099)">
<path d="M63.22 68.92C77.8334 68.92 89.68 57.0735 89.68 42.46C89.68 27.8465 77.8334 16 63.22 16C48.6065 16 36.76 27.8465 36.76 42.46C36.76 57.0735 48.6065 68.92 63.22 68.92Z" fill="url(#paint0_linear_119_1099)"/>
<path d="M65.6799 55.5349V43.4832H69.7419L70.3518 38.7649H65.6799V35.7623C65.6799 34.3979 66.0572 33.4729 68.0107 33.4729H70.4861V29.2661C70.0572 29.2093 68.5791 29.0801 66.8582 29.0801C63.2665 29.0801 60.8065 31.2713 60.8065 35.2971V38.77H56.76V43.4884H60.8065V55.5349H65.6799Z" fill="#F7F9FC"/>
</g>
<defs>
<filter id="filter0_ddi_119_1099" x="0.759995" y="-20" width="123.92" height="123.92" filterUnits="userSpaceOnUse" color-interpolation-filters="sRGB">
<feFlood flood-opacity="0" result="BackgroundImageFix"/>
<feColorMatrix in="SourceAlpha" type="matrix" values="0 0 0 0 0 0 0 0 0 0 0 0 0 0 0 0 0 0 127 0" result="hardAlpha"/>
<feMorphology radius="4" operator="dilate" in="SourceAlpha" result="effect1_dropShadow_119_1099"/>
<feOffset dx="-12" dy="-12"/>
<feGaussianBlur stdDeviation="10"/>
<feColorMatrix type="matrix" values="0 0 0 0 1 0 0 0 0 1 0 0 0 0 1 0 0 0 1 0"/>
<feBlend mode="normal" in2="BackgroundImageFix" result="effect1_dropShadow_119_1099"/>
<feColorMatrix in="SourceAlpha" type="matrix" values="0 0 0 0 0 0 0 0 0 0 0 0 0 0 0 0 0 0 127 0" result="hardAlpha"/>
<feMorphology radius="3" operator="dilate" in="SourceAlpha" result="effect2_dropShadow_119_1099"/>
<feOffset dx="12" dy="12"/>
<feGaussianBlur stdDeviation="10"/>
<feComposite in2="hardAlpha" operator="out"/>
<feColorMatrix type="matrix" values="0 0 0 0 0.776471 0 0 0 0 0.686118 0 0 0 0 0.635294 0 0 0 0.3 0"/>
<feBlend mode="normal" in2="effect1_dropShadow_119_1099" result="effect2_dropShadow_119_1099"/>
<feBlend mode="normal" in="SourceGraphic" in2="effect2_dropShadow_119_1099" result="shape"/>
<feColorMatrix in="SourceAlpha" type="matrix" values="0 0 0 0 0 0 0 0 0 0 0 0 0 0 0 0 0 0 127 0" result="hardAlpha"/>
<feOffset dx="2" dy="2"/>
<feGaussianBlur stdDeviation="2"/>
<feComposite in2="hardAlpha" operator="arithmetic" k2="-1" k3="1"/>
<feColorMatrix type="matrix" values="0 0 0 0 1 0 0 0 0 1 0 0 0 0 1 0 0 0 0.5 0"/>
<feBlend mode="normal" in2="shape" result="effect3_innerShadow_119_1099"/>
</filter>
<linearGradient id="paint0_linear_119_1099" x1="86.4349" y1="16" x2="21.3587" y2="22.2242" gradientUnits="userSpaceOnUse">
<stop stop-color="#FFC635"/>
<stop offset="1" stop-color="#FF7A00"/>
</linearGradient>
</defs>
</svg>
