<svg width="125" height="85" viewBox="0 0 125 85" fill="none" xmlns="http://www.w3.org/2000/svg">
<g filter="url(#filter0_ddi_105_447)">
<path d="M62.98 68.92C77.5934 68.92 89.44 57.0735 89.44 42.46C89.44 27.8465 77.5934 16 62.98 16C48.3665 16 36.52 27.8465 36.52 42.46C36.52 57.0735 48.3665 68.92 62.98 68.92Z" fill="url(#paint0_linear_105_447)"/>
<path fill-rule="evenodd" clip-rule="evenodd" d="M62.52 27.24C54.2368 27.24 47.52 34.1256 47.52 42.6197C47.52 49.415 51.8179 55.1799 57.7779 57.2136C58.5276 57.3559 58.8029 56.8799 58.8029 56.4737C58.8029 56.107 58.7889 54.8954 58.7825 53.6103C54.6094 54.5406 53.7288 51.7957 53.7288 51.7957C53.0465 50.018 52.0633 49.5454 52.0633 49.5454C50.7024 48.5908 52.1659 48.6103 52.1659 48.6103C53.6722 48.7189 54.4654 50.1953 54.4654 50.1953C55.8032 52.5465 57.9744 51.8667 58.8304 51.4738C58.965 50.4797 59.3538 49.8013 59.7827 49.4173C56.4511 49.0283 52.9486 47.7095 52.9486 41.8165C52.9486 40.1375 53.5346 38.7654 54.4942 37.6884C54.3384 37.3009 53.825 35.7367 54.6395 33.6183C54.6395 33.6183 55.8991 33.2049 58.7656 35.1948C59.962 34.8539 61.2452 34.6831 62.52 34.6773C63.7948 34.6831 65.079 34.8539 66.2778 35.1948C69.1408 33.2049 70.3987 33.6183 70.3987 33.6183C71.2151 35.7367 70.7015 37.3009 70.5457 37.6884C71.5075 38.7654 72.0894 40.1373 72.0894 41.8165C72.0894 47.7235 68.5804 49.0243 65.2403 49.405C65.7783 49.8823 66.2577 50.8183 66.2577 52.2531C66.2577 54.3108 66.2402 55.9671 66.2402 56.4737C66.2402 56.883 66.5102 57.3625 67.2707 57.2115C73.2274 55.1756 77.52 49.4127 77.52 42.6197C77.52 34.1256 70.8041 27.24 62.52 27.24Z" fill="white"/>
</g>
<defs>
<filter id="filter0_ddi_105_447" x="0.519958" y="-20" width="123.92" height="123.92" filterUnits="userSpaceOnUse" color-interpolation-filters="sRGB">
<feFlood flood-opacity="0" result="BackgroundImageFix"/>
<feColorMatrix in="SourceAlpha" type="matrix" values="0 0 0 0 0 0 0 0 0 0 0 0 0 0 0 0 0 0 127 0" result="hardAlpha"/>
<feMorphology radius="4" operator="dilate" in="SourceAlpha" result="effect1_dropShadow_105_447"/>
<feOffset dx="-12" dy="-12"/>
<feGaussianBlur stdDeviation="10"/>
<feColorMatrix type="matrix" values="0 0 0 0 1 0 0 0 0 1 0 0 0 0 1 0 0 0 1 0"/>
<feBlend mode="normal" in2="BackgroundImageFix" result="effect1_dropShadow_105_447"/>
<feColorMatrix in="SourceAlpha" type="matrix" values="0 0 0 0 0 0 0 0 0 0 0 0 0 0 0 0 0 0 127 0" result="hardAlpha"/>
<feMorphology radius="3" operator="dilate" in="SourceAlpha" result="effect2_dropShadow_105_447"/>
<feOffset dx="12" dy="12"/>
<feGaussianBlur stdDeviation="10"/>
<feComposite in2="hardAlpha" operator="out"/>
<feColorMatrix type="matrix" values="0 0 0 0 0.776471 0 0 0 0 0.686118 0 0 0 0 0.635294 0 0 0 0.3 0"/>
<feBlend mode="normal" in2="effect1_dropShadow_105_447" result="effect2_dropShadow_105_447"/>
<feBlend mode="normal" in="SourceGraphic" in2="effect2_dropShadow_105_447" result="shape"/>
<feColorMatrix in="SourceAlpha" type="matrix" values="0 0 0 0 0 0 0 0 0 0 0 0 0 0 0 0 0 0 127 0" result="hardAlpha"/>
<feOffset dx="2" dy="2"/>
<feGaussianBlur stdDeviation="2"/>
<feComposite in2="hardAlpha" operator="arithmetic" k2="-1" k3="1"/>
<feColorMatrix type="matrix" values="0 0 0 0 1 0 0 0 0 1 0 0 0 0 1 0 0 0 0.5 0"/>
<feBlend mode="normal" in2="shape" result="effect3_innerShadow_105_447"/>
</filter>
<linearGradient id="paint0_linear_105_447" x1="35.0412" y1="14.8273" x2="49.3376" y2="72.3128" gradientUnits="userSpaceOnUse">
<stop stop-color="#FF5800"/>
<stop offset="1" stop-color="#FF8A00"/>
</linearGradient>
</defs>
</svg>
