<svg width="104" height="85" viewBox="0 0 104 85" fill="none" xmlns="http://www.w3.org/2000/svg">
<g filter="url(#filter0_ddi_105_438)">
<path d="M42.46 68.92C57.0735 68.92 68.92 57.0735 68.92 42.46C68.92 27.8465 57.0735 16 42.46 16C27.8465 16 16 27.8465 16 42.46C16 57.0735 27.8465 68.92 42.46 68.92Z" fill="url(#paint0_linear_105_438)"/>
<path d="M42.46 29.23C38.8683 29.23 38.4186 29.2455 37.0078 29.3075C35.5969 29.3747 34.6409 29.5969 33.7985 29.9225C32.9303 30.2584 32.1912 30.7132 31.4522 31.447C30.7132 32.1809 30.2636 32.9199 29.9277 33.7933C29.6021 34.6357 29.3799 35.5969 29.3127 37.0026C29.2455 38.4135 29.2352 38.8631 29.2352 42.4548C29.2352 46.0466 29.2507 46.4962 29.3127 47.907C29.3799 49.3127 29.6021 50.2739 29.9277 51.1163C30.2636 51.9845 30.7184 52.7236 31.4522 53.4626C32.1861 54.1964 32.9251 54.6512 33.7985 54.9871C34.6409 55.3127 35.6021 55.5349 37.0078 55.6021C38.4186 55.6693 38.8683 55.6796 42.46 55.6796C46.0517 55.6796 46.5014 55.6641 47.9122 55.6021C49.3179 55.5349 50.2791 55.3127 51.1215 54.9871C51.9897 54.6512 52.7288 54.1964 53.4678 53.4626C54.2016 52.7287 54.6564 51.9897 54.9923 51.1163C55.3179 50.2739 55.5401 49.3127 55.6073 47.907C55.6745 46.4962 55.6848 46.0466 55.6848 42.4548C55.6848 38.8631 55.6693 38.4135 55.6073 37.0026C55.5401 35.5969 55.3179 34.6357 54.9923 33.7933C54.6564 32.9251 54.2016 32.1861 53.4678 31.447C52.7339 30.7132 51.9949 30.2584 51.1215 29.9225C50.2791 29.5969 49.3179 29.3747 47.9122 29.3075C46.5014 29.2455 46.0517 29.23 42.46 29.23ZM42.46 31.6124C45.9897 31.6124 46.4135 31.6279 47.8088 31.6899C49.1008 31.7519 49.7985 31.9638 50.2636 32.1499C50.8838 32.3876 51.3231 32.677 51.7882 33.137C52.2481 33.6021 52.5375 34.0414 52.7753 34.6615C52.9561 35.1266 53.1732 35.8243 53.23 37.1163C53.2921 38.5117 53.3076 38.9303 53.3076 42.4651C53.3076 46 53.2921 46.4186 53.2249 47.814C53.1577 49.106 52.9406 49.8037 52.7598 50.2688C52.5117 50.8889 52.2326 51.3282 51.7675 51.7933C51.3076 52.2533 50.858 52.5427 50.2481 52.7804C49.783 52.9613 49.075 53.1783 47.783 53.2352C46.3773 53.2972 45.9639 53.3127 42.4238 53.3127C38.8838 53.3127 38.4703 53.2972 37.0646 53.23C35.7726 53.1628 35.0646 52.9458 34.5995 52.7649C33.9742 52.5168 33.5401 52.2378 33.0801 51.7727C32.615 51.3127 32.3204 50.8631 32.0879 50.2533C31.907 49.7882 31.69 49.0801 31.6228 47.7882C31.5711 46.398 31.5556 45.969 31.5556 42.4496C31.5556 38.9251 31.5711 38.4961 31.6228 37.0905C31.69 35.7985 31.9018 35.0905 32.0879 34.6253C32.3204 33.9948 32.615 33.5659 33.0801 33.1008C33.5401 32.6408 33.9742 32.3411 34.5995 32.1085C35.0646 31.9277 35.7571 31.7106 37.0491 31.6434C38.4548 31.5917 38.8683 31.5762 42.4083 31.5762L42.46 31.6124ZM42.46 35.6641C38.7081 35.6641 35.6641 38.708 35.6641 42.46C35.6641 46.2119 38.7081 49.2559 42.46 49.2559C46.2119 49.2559 49.2559 46.2119 49.2559 42.46C49.2559 38.708 46.2119 35.6641 42.46 35.6641ZM42.46 46.8683C40.0259 46.8683 38.0517 44.8941 38.0517 42.46C38.0517 40.0259 40.0259 38.0517 42.46 38.0517C44.8941 38.0517 46.8683 40.0259 46.8683 42.46C46.8683 44.8941 44.8941 46.8683 42.46 46.8683ZM51.1112 35.4005C51.1112 36.2791 50.398 36.9871 49.5246 36.9871C48.6461 36.9871 47.938 36.2739 47.938 35.4005C47.938 34.5271 48.6512 33.814 49.5246 33.814C50.398 33.8088 51.1112 34.522 51.1112 35.4005Z" fill="#F7F9FC"/>
</g>
<defs>
<filter id="filter0_ddi_105_438" x="-20" y="-20" width="123.92" height="123.92" filterUnits="userSpaceOnUse" color-interpolation-filters="sRGB">
<feFlood flood-opacity="0" result="BackgroundImageFix"/>
<feColorMatrix in="SourceAlpha" type="matrix" values="0 0 0 0 0 0 0 0 0 0 0 0 0 0 0 0 0 0 127 0" result="hardAlpha"/>
<feMorphology radius="4" operator="dilate" in="SourceAlpha" result="effect1_dropShadow_105_438"/>
<feOffset dx="-12" dy="-12"/>
<feGaussianBlur stdDeviation="10"/>
<feColorMatrix type="matrix" values="0 0 0 0 1 0 0 0 0 1 0 0 0 0 1 0 0 0 1 0"/>
<feBlend mode="normal" in2="BackgroundImageFix" result="effect1_dropShadow_105_438"/>
<feColorMatrix in="SourceAlpha" type="matrix" values="0 0 0 0 0 0 0 0 0 0 0 0 0 0 0 0 0 0 127 0" result="hardAlpha"/>
<feMorphology radius="3" operator="dilate" in="SourceAlpha" result="effect2_dropShadow_105_438"/>
<feOffset dx="12" dy="12"/>
<feGaussianBlur stdDeviation="10"/>
<feComposite in2="hardAlpha" operator="out"/>
<feColorMatrix type="matrix" values="0 0 0 0 0.776471 0 0 0 0 0.686118 0 0 0 0 0.635294 0 0 0 0.3 0"/>
<feBlend mode="normal" in2="effect1_dropShadow_105_438" result="effect2_dropShadow_105_438"/>
<feBlend mode="normal" in="SourceGraphic" in2="effect2_dropShadow_105_438" result="shape"/>
<feColorMatrix in="SourceAlpha" type="matrix" values="0 0 0 0 0 0 0 0 0 0 0 0 0 0 0 0 0 0 127 0" result="hardAlpha"/>
<feOffset dx="2" dy="2"/>
<feGaussianBlur stdDeviation="2"/>
<feComposite in2="hardAlpha" operator="arithmetic" k2="-1" k3="1"/>
<feColorMatrix type="matrix" values="0 0 0 0 1 0 0 0 0 1 0 0 0 0 1 0 0 0 0.5 0"/>
<feBlend mode="normal" in2="shape" result="effect3_innerShadow_105_438"/>
</filter>
<linearGradient id="paint0_linear_105_438" x1="14.5212" y1="14.8273" x2="28.8177" y2="72.3128" gradientUnits="userSpaceOnUse">
<stop stop-color="#FF5800"/>
<stop offset="1" stop-color="#FF8A00"/>
</linearGradient>
</defs>
</svg>
