<svg width="125" height="85" viewBox="0 0 125 85" fill="none" xmlns="http://www.w3.org/2000/svg">
<g filter="url(#filter0_ddi_119_1093)">
<path d="M63.38 68.92C77.9935 68.92 89.84 57.0735 89.84 42.46C89.84 27.8465 77.9935 16 63.38 16C48.7665 16 36.92 27.8465 36.92 42.46C36.92 57.0735 48.7665 68.92 63.38 68.92Z" fill="url(#paint0_linear_119_1093)"/>
<path d="M63.38 29.23C59.7883 29.23 59.3386 29.2455 57.9278 29.3075C56.5169 29.3747 55.5609 29.5969 54.7185 29.9225C53.8503 30.2584 53.1112 30.7132 52.3722 31.447C51.6332 32.1809 51.1836 32.9199 50.8477 33.7933C50.5221 34.6357 50.2999 35.5969 50.2327 37.0026C50.1655 38.4135 50.1552 38.8631 50.1552 42.4548C50.1552 46.0466 50.1707 46.4962 50.2327 47.907C50.2999 49.3127 50.5221 50.2739 50.8477 51.1163C51.1836 51.9845 51.6384 52.7236 52.3722 53.4626C53.1061 54.1964 53.8451 54.6512 54.7185 54.9871C55.5609 55.3127 56.5221 55.5349 57.9278 55.6021C59.3386 55.6693 59.7883 55.6796 63.38 55.6796C66.9717 55.6796 67.4214 55.6641 68.8322 55.6021C70.2379 55.5349 71.1991 55.3127 72.0415 54.9871C72.9097 54.6512 73.6488 54.1964 74.3878 53.4626C75.1216 52.7287 75.5764 51.9897 75.9123 51.1163C76.2379 50.2739 76.4601 49.3127 76.5273 47.907C76.5945 46.4962 76.6048 46.0466 76.6048 42.4548C76.6048 38.8631 76.5893 38.4135 76.5273 37.0026C76.4601 35.5969 76.2379 34.6357 75.9123 33.7933C75.5764 32.9251 75.1216 32.1861 74.3878 31.447C73.6539 30.7132 72.9149 30.2584 72.0415 29.9225C71.1991 29.5969 70.2379 29.3747 68.8322 29.3075C67.4214 29.2455 66.9717 29.23 63.38 29.23ZM63.38 31.6124C66.9097 31.6124 67.3335 31.6279 68.7288 31.6899C70.0208 31.7519 70.7185 31.9638 71.1836 32.1499C71.8038 32.3876 72.2431 32.677 72.7082 33.137C73.1681 33.6021 73.4575 34.0414 73.6953 34.6615C73.8761 35.1266 74.0932 35.8243 74.15 37.1163C74.2121 38.5117 74.2276 38.9303 74.2276 42.4651C74.2276 46 74.2121 46.4186 74.1449 47.814C74.0777 49.106 73.8606 49.8037 73.6798 50.2688C73.4317 50.8889 73.1526 51.3282 72.6875 51.7933C72.2276 52.2533 71.7779 52.5427 71.1681 52.7804C70.703 52.9613 69.995 53.1783 68.703 53.2352C67.2973 53.2972 66.8839 53.3127 63.3438 53.3127C59.8038 53.3127 59.3903 53.2972 57.9846 53.23C56.6926 53.1628 55.9846 52.9458 55.5195 52.7649C54.8942 52.5168 54.4601 52.2378 54.0001 51.7727C53.535 51.3127 53.2404 50.8631 53.0079 50.2533C52.827 49.7882 52.61 49.0801 52.5428 47.7882C52.4911 46.398 52.4756 45.969 52.4756 42.4496C52.4756 38.9251 52.4911 38.4961 52.5428 37.0905C52.61 35.7985 52.8218 35.0905 53.0079 34.6253C53.2404 33.9948 53.535 33.5659 54.0001 33.1008C54.4601 32.6408 54.8942 32.3411 55.5195 32.1085C55.9846 31.9277 56.6771 31.7106 57.9691 31.6434C59.3748 31.5917 59.7883 31.5762 63.3283 31.5762L63.38 31.6124ZM63.38 35.6641C59.6281 35.6641 56.5841 38.708 56.5841 42.46C56.5841 46.2119 59.6281 49.2559 63.38 49.2559C67.1319 49.2559 70.1759 46.2119 70.1759 42.46C70.1759 38.708 67.1319 35.6641 63.38 35.6641ZM63.38 46.8683C60.9459 46.8683 58.9717 44.8941 58.9717 42.46C58.9717 40.0259 60.9459 38.0517 63.38 38.0517C65.8141 38.0517 67.7883 40.0259 67.7883 42.46C67.7883 44.8941 65.8141 46.8683 63.38 46.8683ZM72.0312 35.4005C72.0312 36.2791 71.318 36.9871 70.4446 36.9871C69.5661 36.9871 68.858 36.2739 68.858 35.4005C68.858 34.5271 69.5712 33.814 70.4446 33.814C71.318 33.8088 72.0312 34.522 72.0312 35.4005Z" fill="#F7F9FC"/>
</g>
<defs>
<filter id="filter0_ddi_119_1093" x="0.919998" y="-20" width="123.92" height="123.92" filterUnits="userSpaceOnUse" color-interpolation-filters="sRGB">
<feFlood flood-opacity="0" result="BackgroundImageFix"/>
<feColorMatrix in="SourceAlpha" type="matrix" values="0 0 0 0 0 0 0 0 0 0 0 0 0 0 0 0 0 0 127 0" result="hardAlpha"/>
<feMorphology radius="4" operator="dilate" in="SourceAlpha" result="effect1_dropShadow_119_1093"/>
<feOffset dx="-12" dy="-12"/>
<feGaussianBlur stdDeviation="10"/>
<feColorMatrix type="matrix" values="0 0 0 0 1 0 0 0 0 1 0 0 0 0 1 0 0 0 1 0"/>
<feBlend mode="normal" in2="BackgroundImageFix" result="effect1_dropShadow_119_1093"/>
<feColorMatrix in="SourceAlpha" type="matrix" values="0 0 0 0 0 0 0 0 0 0 0 0 0 0 0 0 0 0 127 0" result="hardAlpha"/>
<feMorphology radius="3" operator="dilate" in="SourceAlpha" result="effect2_dropShadow_119_1093"/>
<feOffset dx="12" dy="12"/>
<feGaussianBlur stdDeviation="10"/>
<feComposite in2="hardAlpha" operator="out"/>
<feColorMatrix type="matrix" values="0 0 0 0 0.776471 0 0 0 0 0.686118 0 0 0 0 0.635294 0 0 0 0.3 0"/>
<feBlend mode="normal" in2="effect1_dropShadow_119_1093" result="effect2_dropShadow_119_1093"/>
<feBlend mode="normal" in="SourceGraphic" in2="effect2_dropShadow_119_1093" result="shape"/>
<feColorMatrix in="SourceAlpha" type="matrix" values="0 0 0 0 0 0 0 0 0 0 0 0 0 0 0 0 0 0 127 0" result="hardAlpha"/>
<feOffset dx="2" dy="2"/>
<feGaussianBlur stdDeviation="2"/>
<feComposite in2="hardAlpha" operator="arithmetic" k2="-1" k3="1"/>
<feColorMatrix type="matrix" values="0 0 0 0 1 0 0 0 0 1 0 0 0 0 1 0 0 0 0.5 0"/>
<feBlend mode="normal" in2="shape" result="effect3_innerShadow_119_1093"/>
</filter>
<linearGradient id="paint0_linear_119_1093" x1="86.5949" y1="16" x2="21.5187" y2="22.2242" gradientUnits="userSpaceOnUse">
<stop stop-color="#FFC635"/>
<stop offset="1" stop-color="#FF7A00"/>
</linearGradient>
</defs>
</svg>
