<svg width="125" height="85" viewBox="0 0 125 85" fill="none" xmlns="http://www.w3.org/2000/svg">
<g filter="url(#filter0_ddi_105_444)">
<path d="M63.14 68.92C77.7534 68.92 89.6 57.0735 89.6 42.46C89.6 27.8465 77.7534 16 63.14 16C48.5265 16 36.68 27.8465 36.68 42.46C36.68 57.0735 48.5265 68.92 63.14 68.92Z" fill="url(#paint0_linear_105_444)"/>
<path d="M72.2692 51.7545H68.3415V45.6046C68.3415 44.1369 68.3105 42.2506 66.295 42.2506C64.2485 42.2506 63.9333 43.8475 63.9333 45.4961V51.7545H60.0056V39.1033H63.7782V40.8294H63.8299C64.357 39.8372 65.6387 38.7881 67.5508 38.7881C71.5302 38.7881 72.264 41.4082 72.264 44.8139L72.2692 51.7545ZM55.5766 37.3721C54.3105 37.3721 53.2976 36.3488 53.2976 35.093C53.2976 33.8372 54.3157 32.8139 55.5766 32.8139C56.8376 32.8139 57.8557 33.8372 57.8557 35.093C57.8557 36.3488 56.8325 37.3721 55.5766 37.3721ZM57.5456 51.7545H53.6076V39.1033H57.5456V51.7545ZM74.233 29.1602H51.6387C50.5585 29.1602 49.68 30.0129 49.68 31.0723V53.7597C49.68 54.814 50.5534 55.6718 51.6387 55.6718H74.2278C75.308 55.6718 76.1917 54.8191 76.1917 53.7597V31.0723C76.1917 30.0129 75.3079 29.1602 74.233 29.1602Z" fill="#F7F9FC"/>
</g>
<defs>
<filter id="filter0_ddi_105_444" x="0.679993" y="-20" width="123.92" height="123.92" filterUnits="userSpaceOnUse" color-interpolation-filters="sRGB">
<feFlood flood-opacity="0" result="BackgroundImageFix"/>
<feColorMatrix in="SourceAlpha" type="matrix" values="0 0 0 0 0 0 0 0 0 0 0 0 0 0 0 0 0 0 127 0" result="hardAlpha"/>
<feMorphology radius="4" operator="dilate" in="SourceAlpha" result="effect1_dropShadow_105_444"/>
<feOffset dx="-12" dy="-12"/>
<feGaussianBlur stdDeviation="10"/>
<feColorMatrix type="matrix" values="0 0 0 0 1 0 0 0 0 1 0 0 0 0 1 0 0 0 1 0"/>
<feBlend mode="normal" in2="BackgroundImageFix" result="effect1_dropShadow_105_444"/>
<feColorMatrix in="SourceAlpha" type="matrix" values="0 0 0 0 0 0 0 0 0 0 0 0 0 0 0 0 0 0 127 0" result="hardAlpha"/>
<feMorphology radius="3" operator="dilate" in="SourceAlpha" result="effect2_dropShadow_105_444"/>
<feOffset dx="12" dy="12"/>
<feGaussianBlur stdDeviation="10"/>
<feComposite in2="hardAlpha" operator="out"/>
<feColorMatrix type="matrix" values="0 0 0 0 0.776471 0 0 0 0 0.686118 0 0 0 0 0.635294 0 0 0 0.3 0"/>
<feBlend mode="normal" in2="effect1_dropShadow_105_444" result="effect2_dropShadow_105_444"/>
<feBlend mode="normal" in="SourceGraphic" in2="effect2_dropShadow_105_444" result="shape"/>
<feColorMatrix in="SourceAlpha" type="matrix" values="0 0 0 0 0 0 0 0 0 0 0 0 0 0 0 0 0 0 127 0" result="hardAlpha"/>
<feOffset dx="2" dy="2"/>
<feGaussianBlur stdDeviation="2"/>
<feComposite in2="hardAlpha" operator="arithmetic" k2="-1" k3="1"/>
<feColorMatrix type="matrix" values="0 0 0 0 1 0 0 0 0 1 0 0 0 0 1 0 0 0 0.5 0"/>
<feBlend mode="normal" in2="shape" result="effect3_innerShadow_105_444"/>
</filter>
<linearGradient id="paint0_linear_105_444" x1="35.2012" y1="14.8273" x2="49.4976" y2="72.3128" gradientUnits="userSpaceOnUse">
<stop stop-color="#FF5800"/>
<stop offset="1" stop-color="#FF8A00"/>
</linearGradient>
</defs>
</svg>
