<svg width="154" height="95" viewBox="0 0 154 95" fill="none" xmlns="http://www.w3.org/2000/svg">
<g filter="url(#filter0_ddi_376_5381)">
<path d="M62.5397 40.32C62.5395 39.8156 62.4316 39.3698 62.2134 38.9873C61.9991 38.6111 61.6782 38.2958 61.2477 38.0465C57.6942 35.9975 54.1372 33.9548 50.5849 31.9038C49.6272 31.3509 48.6986 31.3711 47.7481 31.9319C46.3337 32.766 39.2523 36.8231 37.1421 38.0453C36.2731 38.5484 35.8502 39.3183 35.85 40.3191C35.8486 44.4396 35.85 48.5601 35.8486 52.6808C35.8488 53.1742 35.9521 53.6112 36.1607 53.9881C36.3751 54.3756 36.7005 54.6996 37.1409 54.9545C39.2512 56.1768 46.3335 60.2335 47.7476 61.0679C48.6986 61.629 49.6272 61.6491 50.5852 61.096C54.1377 59.0448 57.6948 57.0022 61.2488 54.9533C61.6892 54.6984 62.0147 54.3743 62.2291 53.987C62.4373 53.6102 62.5408 53.1731 62.541 52.6797C62.541 52.6797 62.541 44.4407 62.5397 40.32" fill="#5C8DBC"/>
<path d="M49.2357 46.4597L36.1608 53.988C36.3752 54.3756 36.7006 54.6995 37.141 54.9545C39.2513 56.1767 46.3336 60.2335 47.7477 61.0678C48.6987 61.629 49.6273 61.649 50.5853 61.0959C54.1377 59.0448 57.6949 57.0022 61.2489 54.9532C61.6893 54.6984 62.0148 54.3742 62.2292 53.987L49.2357 46.4597" fill="#1A4674"/>
<path d="M45.3629 48.6897C46.1238 50.0179 47.554 50.9137 49.1948 50.9137C50.8456 50.9137 52.284 50.0065 53.041 48.6641L49.2356 46.4597L45.3629 48.6897" fill="#1A4674"/>
<path d="M62.5397 40.32C62.5395 39.8156 62.4316 39.3699 62.2135 38.9873L49.2357 46.4598L62.2291 53.9871C62.4374 53.6103 62.5409 53.1732 62.5411 52.6797C62.5411 52.6797 62.5411 44.4407 62.5397 40.32" fill="#1B598E"/>
<path d="M61.8252 46.9979H60.8099V48.0134H59.7943V46.9979H58.7791V45.9826H59.7943V44.9673H60.8099V45.9826H61.8252V46.9979ZM58.1203 46.9979H57.1051V48.0134H56.0897V46.9979H55.0744V45.9826H56.0897V44.9673H57.1051V45.9826H58.1203V46.9979Z" fill="#F7F9FC"/>
<path d="M53.0411 48.664C52.2841 50.0065 50.8457 50.9137 49.1948 50.9137C47.5541 50.9137 46.1238 50.0179 45.363 48.6896C44.9808 48.0231 44.7801 47.2681 44.7809 46.4998C44.7809 44.0621 46.7572 42.0859 49.1948 42.0859C50.825 42.0859 52.2478 42.9706 53.0124 44.2853L56.8704 42.0637C55.3369 39.4166 52.474 37.6357 49.1948 37.6357C44.2992 37.6357 40.3307 41.6044 40.3307 46.4998C40.3307 48.1058 40.7579 49.6119 41.5047 50.911C43.0343 53.5721 45.9054 55.3639 49.1948 55.3639C52.4904 55.3639 55.366 53.5649 56.8934 50.896L53.0411 48.664Z" fill="#F7F9FC"/>
<path d="M78.509 55.336C76.429 55.336 74.781 54.76 73.565 53.608C72.349 52.44 71.741 50.776 71.741 48.616V44.584C71.741 42.424 72.349 40.768 73.565 39.616C74.781 38.448 76.429 37.864 78.509 37.864C80.573 37.864 82.165 38.432 83.285 39.568C84.421 40.688 84.989 42.232 84.989 44.2V44.344H81.869V44.104C81.869 43.112 81.589 42.296 81.029 41.656C80.485 41.016 79.645 40.696 78.509 40.696C77.389 40.696 76.509 41.04 75.869 41.728C75.229 42.416 74.909 43.352 74.909 44.536V48.664C74.909 49.832 75.229 50.768 75.869 51.472C76.509 52.16 77.389 52.504 78.509 52.504C79.645 52.504 80.485 52.184 81.029 51.544C81.589 50.888 81.869 50.072 81.869 49.096V48.664H84.989V49C84.989 50.968 84.421 52.52 83.285 53.656C82.165 54.776 80.573 55.336 78.509 55.336ZM92.0103 51.616V47.968H88.4103V45.232H92.0103V41.584H94.8423V45.232H98.4423V47.968H94.8423V51.616H92.0103ZM106.893 51.616V47.968H103.293V45.232H106.893V41.584H109.725V45.232H113.325V47.968H109.725V51.616H106.893Z" fill="black"/>
<rect x="16.3486" y="15.5" width="119.692" height="62" rx="19.5" stroke="#F7F9FC"/>
</g>
<defs>
<filter id="filter0_ddi_376_5381" x="0.848633" y="0" width="152.692" height="95" filterUnits="userSpaceOnUse" color-interpolation-filters="sRGB">
<feFlood flood-opacity="0" result="BackgroundImageFix"/>
<feColorMatrix in="SourceAlpha" type="matrix" values="0 0 0 0 0 0 0 0 0 0 0 0 0 0 0 0 0 0 127 0" result="hardAlpha"/>
<feMorphology radius="5" operator="dilate" in="SourceAlpha" result="effect1_dropShadow_376_5381"/>
<feOffset dx="-5" dy="-5"/>
<feGaussianBlur stdDeviation="2.5"/>
<feColorMatrix type="matrix" values="0 0 0 0 1 0 0 0 0 1 0 0 0 0 1 0 0 0 0.4 0"/>
<feBlend mode="normal" in2="BackgroundImageFix" result="effect1_dropShadow_376_5381"/>
<feColorMatrix in="SourceAlpha" type="matrix" values="0 0 0 0 0 0 0 0 0 0 0 0 0 0 0 0 0 0 127 0" result="hardAlpha"/>
<feMorphology radius="2" operator="dilate" in="SourceAlpha" result="effect2_dropShadow_376_5381"/>
<feOffset dx="5" dy="5"/>
<feGaussianBlur stdDeviation="5"/>
<feComposite in2="hardAlpha" operator="out"/>
<feColorMatrix type="matrix" values="0 0 0 0 0.635294 0 0 0 0 0.705882 0 0 0 0 0.776471 0 0 0 0.12 0"/>
<feBlend mode="normal" in2="effect1_dropShadow_376_5381" result="effect2_dropShadow_376_5381"/>
<feBlend mode="normal" in="SourceGraphic" in2="effect2_dropShadow_376_5381" result="shape"/>
<feColorMatrix in="SourceAlpha" type="matrix" values="0 0 0 0 0 0 0 0 0 0 0 0 0 0 0 0 0 0 127 0" result="hardAlpha"/>
<feOffset dx="2" dy="2"/>
<feGaussianBlur stdDeviation="2"/>
<feComposite in2="hardAlpha" operator="arithmetic" k2="-1" k3="1"/>
<feColorMatrix type="matrix" values="0 0 0 0 1 0 0 0 0 1 0 0 0 0 1 0 0 0 0.5 0"/>
<feBlend mode="normal" in2="shape" result="effect3_innerShadow_376_5381"/>
</filter>
</defs>
</svg>
