<svg width="139" height="95" viewBox="0 0 139 95" fill="none" xmlns="http://www.w3.org/2000/svg">
<g filter="url(#filter0_ddi_376_5390)">
<path d="M62.5586 40.32C62.5583 39.8155 62.4505 39.3698 62.2323 38.9873C62.018 38.6111 61.697 38.2958 61.2666 38.0465C57.7131 35.9975 54.1561 33.9548 50.6038 31.9037C49.6461 31.3509 48.7175 31.3711 47.7669 31.9319C46.3525 32.766 39.2711 36.8231 37.161 38.0453C36.292 38.5485 35.8691 39.3184 35.8689 40.319C35.8675 44.4396 35.8689 48.5602 35.8675 52.6808C35.8675 53.1742 35.971 53.6114 36.1796 53.9881C36.394 54.3756 36.7194 54.6996 37.1598 54.9545C39.2701 56.1768 46.3524 60.2335 47.7665 61.0679C48.7175 61.629 49.6461 61.6491 50.6041 61.0961C54.1565 59.0449 57.7137 57.0022 61.2677 54.9533C61.7081 54.6984 62.0335 54.3743 62.248 53.987C62.4562 53.6102 62.5599 53.1731 62.5599 52.6797C62.5599 52.6797 62.5599 44.4407 62.5586 40.32Z" fill="#A179DC"/>
<path d="M49.2546 46.4597L36.1796 53.988C36.394 54.3756 36.7194 54.6995 37.1598 54.9545C39.2701 56.1767 46.3525 60.2335 47.7665 61.0678C48.7175 61.629 49.6461 61.649 50.6041 61.096C54.1566 59.0449 57.7137 57.0022 61.2677 54.9532C61.7081 54.6984 62.0336 54.3742 62.248 53.987L49.2546 46.4597Z" fill="#280068"/>
<path d="M62.5586 40.3199C62.5584 39.8155 62.4505 39.3698 62.2323 38.9873L49.2546 46.4598L62.248 53.987C62.4562 53.6102 62.5597 53.1731 62.5599 52.6796C62.5599 52.6796 62.5599 44.4406 62.5586 40.3199" fill="#390091"/>
<path d="M56.9526 43.6455V45.0527H58.3598V43.6455H59.0634V45.0527H60.4706V45.7563H59.0634V47.1634H60.4706V47.867H59.0634V49.2742H58.3598V47.867H56.9526V49.2742H56.249V47.867H54.8419V47.1634H56.249V45.7563H54.8419V45.0527H56.249V43.6455H56.9526ZM58.3598 45.7562H56.9526V47.1634H58.3598V45.7562Z" fill="#F7F9FC"/>
<path d="M49.2833 36.5785C52.9536 36.5785 56.1581 38.5718 57.8745 41.5347L57.8578 41.5062L53.5393 43.9926C52.6885 42.5521 51.1289 41.5799 49.3395 41.5598L49.2832 41.5595C46.5547 41.5595 44.3427 43.7715 44.3427 46.5C44.3418 47.3599 44.5665 48.2051 44.9943 48.9511C45.8459 50.4378 47.4468 51.4405 49.2833 51.4405C51.1311 51.4405 52.7411 50.4251 53.5883 48.9225L53.5677 48.9585L57.8796 51.4565C56.182 54.3943 53.0214 56.3815 49.3938 56.421L49.2833 56.4217C45.6013 56.4217 42.3878 54.416 40.6756 51.4375C39.8398 49.9834 39.3616 48.2977 39.3616 46.5C39.3616 41.0205 43.8035 36.5784 49.2832 36.5784L49.2833 36.5785Z" fill="#F7F9FC"/>
<path d="M78.528 55.336C76.448 55.336 74.8 54.76 73.584 53.608C72.368 52.44 71.76 50.776 71.76 48.616V44.584C71.76 42.424 72.368 40.768 73.584 39.616C74.8 38.448 76.448 37.864 78.528 37.864C80.592 37.864 82.184 38.432 83.304 39.568C84.44 40.688 85.008 42.232 85.008 44.2V44.344H81.888V44.104C81.888 43.112 81.608 42.296 81.048 41.656C80.504 41.016 79.664 40.696 78.528 40.696C77.408 40.696 76.528 41.04 75.888 41.728C75.248 42.416 74.928 43.352 74.928 44.536V48.664C74.928 49.832 75.248 50.768 75.888 51.472C76.528 52.16 77.408 52.504 78.528 52.504C79.664 52.504 80.504 52.184 81.048 51.544C81.608 50.888 81.888 50.072 81.888 49.096V48.664H85.008V49C85.008 50.968 84.44 52.52 83.304 53.656C82.184 54.776 80.592 55.336 78.528 55.336ZM89.5573 55V50.536H86.9653V47.944H89.5573V45.256H86.9653V42.664H89.5573V38.2H92.2933V42.664H94.9813V38.2H97.7173V42.664H100.309V45.256H97.7173V47.944H100.309V50.536H97.7173V55H94.9813V50.536H92.2933V55H89.5573ZM92.2933 47.944H94.9813V45.256H92.2933V47.944Z" fill="black"/>
<rect x="16.3675" y="15.5" width="104.692" height="62" rx="19.5" stroke="#F7F9FC"/>
</g>
<defs>
<filter id="filter0_ddi_376_5390" x="0.867523" y="0" width="137.692" height="95" filterUnits="userSpaceOnUse" color-interpolation-filters="sRGB">
<feFlood flood-opacity="0" result="BackgroundImageFix"/>
<feColorMatrix in="SourceAlpha" type="matrix" values="0 0 0 0 0 0 0 0 0 0 0 0 0 0 0 0 0 0 127 0" result="hardAlpha"/>
<feMorphology radius="5" operator="dilate" in="SourceAlpha" result="effect1_dropShadow_376_5390"/>
<feOffset dx="-5" dy="-5"/>
<feGaussianBlur stdDeviation="2.5"/>
<feColorMatrix type="matrix" values="0 0 0 0 1 0 0 0 0 1 0 0 0 0 1 0 0 0 0.4 0"/>
<feBlend mode="normal" in2="BackgroundImageFix" result="effect1_dropShadow_376_5390"/>
<feColorMatrix in="SourceAlpha" type="matrix" values="0 0 0 0 0 0 0 0 0 0 0 0 0 0 0 0 0 0 127 0" result="hardAlpha"/>
<feMorphology radius="2" operator="dilate" in="SourceAlpha" result="effect2_dropShadow_376_5390"/>
<feOffset dx="5" dy="5"/>
<feGaussianBlur stdDeviation="5"/>
<feComposite in2="hardAlpha" operator="out"/>
<feColorMatrix type="matrix" values="0 0 0 0 0.635294 0 0 0 0 0.705882 0 0 0 0 0.776471 0 0 0 0.12 0"/>
<feBlend mode="normal" in2="effect1_dropShadow_376_5390" result="effect2_dropShadow_376_5390"/>
<feBlend mode="normal" in="SourceGraphic" in2="effect2_dropShadow_376_5390" result="shape"/>
<feColorMatrix in="SourceAlpha" type="matrix" values="0 0 0 0 0 0 0 0 0 0 0 0 0 0 0 0 0 0 127 0" result="hardAlpha"/>
<feOffset dx="2" dy="2"/>
<feGaussianBlur stdDeviation="2"/>
<feComposite in2="hardAlpha" operator="arithmetic" k2="-1" k3="1"/>
<feColorMatrix type="matrix" values="0 0 0 0 1 0 0 0 0 1 0 0 0 0 1 0 0 0 0.5 0"/>
<feBlend mode="normal" in2="shape" result="effect3_innerShadow_376_5390"/>
</filter>
</defs>
</svg>
