<svg width="122" height="95" viewBox="0 0 122 95" fill="none" xmlns="http://www.w3.org/2000/svg">
<g filter="url(#filter0_ddi_376_5374)">
<g clip-path="url(#clip0_376_5374)">
<path d="M60.4904 40.7881C60.4998 40.3582 60.3962 39.9333 60.19 39.5559C59.9762 39.1912 59.668 38.8908 59.2979 38.6865C56.0166 36.7919 52.7342 34.9 49.4507 33.0108C48.5665 32.4995 47.7095 32.5177 46.831 33.0368C45.5251 33.8042 38.9857 37.5552 37.0371 38.6853C36.2345 39.1501 35.8446 39.862 35.8446 40.787V52.2132C35.8363 52.6341 35.9358 53.05 36.1336 53.4216C36.3475 53.7975 36.6614 54.1067 37.0405 54.3148C38.9891 55.4484 45.5297 59.1948 46.8355 59.9656C47.714 60.4848 48.571 60.5029 49.4563 59.9917C52.7368 58.0964 56.0192 56.2037 59.3035 54.3137C59.6826 54.1055 59.9965 53.7963 60.2104 53.4205C60.4082 53.0489 60.5077 52.6329 60.4994 52.2121V40.7881H60.4904Z" fill="#004482"/>
<path d="M60.4926 52.213C60.5012 52.6339 60.4016 53.0499 60.2036 53.4214C60.1549 53.5099 60.1 53.5947 60.0392 53.6753L48.1674 46.4999L59.2979 38.6863C59.6676 38.8907 59.9754 39.191 60.1888 39.5557C60.396 39.9328 60.5 40.3578 60.4904 40.7879C60.4926 44.5966 60.4926 52.213 60.4926 52.213Z" fill="#00599C"/>
<path d="M60.1888 39.5557L36.1302 53.4214C35.9333 53.05 35.8345 52.6345 35.8434 52.2142V40.7868C35.8434 39.8618 36.2345 39.1499 37.0359 38.6852C38.9856 37.555 45.5251 33.8041 46.8321 33.0344C47.7084 32.5152 48.5665 32.4971 49.4506 33.0083C52.7312 34.9036 56.0136 36.7963 59.2979 38.6863C59.6676 38.8907 59.9755 39.1911 60.1888 39.5557Z" fill="#659AD2"/>
<path d="M48.6435 51.1158C47.8334 51.117 47.0379 50.9006 46.34 50.4892C45.6421 50.0778 45.0674 49.4866 44.6761 48.7773C44.636 48.7063 44.5982 48.6337 44.5627 48.5597C44.0799 47.5624 43.9795 46.4227 44.2805 45.3564C44.5816 44.2901 45.2632 43.3712 46.1964 42.7738C47.1295 42.1763 48.2493 41.9418 49.3437 42.1146C50.4382 42.2874 51.4312 42.8556 52.1349 43.7114C52.195 43.784 52.2482 43.8599 52.3083 43.9382C52.3355 43.9756 52.3627 44.013 52.3877 44.0515L56.3631 41.7617C56.2663 41.6061 56.1651 41.4549 56.0593 41.3083C56.0037 41.2301 55.9459 41.1553 55.8915 41.0816C54.5098 39.2866 52.5055 38.0745 50.2742 37.6844C48.0428 37.2943 45.7462 37.7545 43.8374 38.9743C41.9286 40.1941 40.5462 42.0849 39.9628 44.2737C39.3795 46.4625 39.6375 48.7905 40.686 50.7984C40.7245 50.871 40.7642 50.9424 40.7993 51.0138C41.5694 52.3725 42.6776 53.5089 44.0164 54.3129C45.3552 55.1169 46.8792 55.5611 48.4403 55.6024C50.0014 55.6437 51.5467 55.2807 52.9262 54.5486C54.3056 53.8165 55.4724 52.7402 56.3132 51.4242L52.4262 49.0743C52.0147 49.7018 51.4534 50.217 50.793 50.5734C50.1327 50.9298 49.394 51.1163 48.6435 51.1158Z" fill="#F7F9FC"/>
</g>
<path d="M76.8167 55.336C74.7367 55.336 73.0887 54.76 71.8727 53.608C70.6567 52.44 70.0487 50.776 70.0487 48.616V44.584C70.0487 42.424 70.6567 40.768 71.8727 39.616C73.0887 38.448 74.7367 37.864 76.8167 37.864C78.8807 37.864 80.4727 38.432 81.5927 39.568C82.7287 40.688 83.2967 42.232 83.2967 44.2V44.344H80.1767V44.104C80.1767 43.112 79.8967 42.296 79.3367 41.656C78.7927 41.016 77.9527 40.696 76.8167 40.696C75.6967 40.696 74.8167 41.04 74.1767 41.728C73.5367 42.416 73.2167 43.352 73.2167 44.536V48.664C73.2167 49.832 73.5367 50.768 74.1767 51.472C74.8167 52.16 75.6967 52.504 76.8167 52.504C77.9527 52.504 78.7927 52.184 79.3367 51.544C79.8967 50.888 80.1767 50.072 80.1767 49.096V48.664H83.2967V49C83.2967 50.968 82.7287 52.52 81.5927 53.656C80.4727 54.776 78.8807 55.336 76.8167 55.336Z" fill="black"/>
<rect x="15.9927" y="15.5" width="88.356" height="62" rx="19.5" stroke="#F7F9FC"/>
</g>
<defs>
<filter id="filter0_ddi_376_5374" x="0.492676" y="0" width="121.356" height="95" filterUnits="userSpaceOnUse" color-interpolation-filters="sRGB">
<feFlood flood-opacity="0" result="BackgroundImageFix"/>
<feColorMatrix in="SourceAlpha" type="matrix" values="0 0 0 0 0 0 0 0 0 0 0 0 0 0 0 0 0 0 127 0" result="hardAlpha"/>
<feMorphology radius="5" operator="dilate" in="SourceAlpha" result="effect1_dropShadow_376_5374"/>
<feOffset dx="-5" dy="-5"/>
<feGaussianBlur stdDeviation="2.5"/>
<feColorMatrix type="matrix" values="0 0 0 0 1 0 0 0 0 1 0 0 0 0 1 0 0 0 0.4 0"/>
<feBlend mode="normal" in2="BackgroundImageFix" result="effect1_dropShadow_376_5374"/>
<feColorMatrix in="SourceAlpha" type="matrix" values="0 0 0 0 0 0 0 0 0 0 0 0 0 0 0 0 0 0 127 0" result="hardAlpha"/>
<feMorphology radius="2" operator="dilate" in="SourceAlpha" result="effect2_dropShadow_376_5374"/>
<feOffset dx="5" dy="5"/>
<feGaussianBlur stdDeviation="5"/>
<feComposite in2="hardAlpha" operator="out"/>
<feColorMatrix type="matrix" values="0 0 0 0 0.635294 0 0 0 0 0.705882 0 0 0 0 0.776471 0 0 0 0.12 0"/>
<feBlend mode="normal" in2="effect1_dropShadow_376_5374" result="effect2_dropShadow_376_5374"/>
<feBlend mode="normal" in="SourceGraphic" in2="effect2_dropShadow_376_5374" result="shape"/>
<feColorMatrix in="SourceAlpha" type="matrix" values="0 0 0 0 0 0 0 0 0 0 0 0 0 0 0 0 0 0 127 0" result="hardAlpha"/>
<feOffset dx="2" dy="2"/>
<feGaussianBlur stdDeviation="2"/>
<feComposite in2="hardAlpha" operator="arithmetic" k2="-1" k3="1"/>
<feColorMatrix type="matrix" values="0 0 0 0 1 0 0 0 0 1 0 0 0 0 1 0 0 0 0.5 0"/>
<feBlend mode="normal" in2="shape" result="effect3_innerShadow_376_5374"/>
</filter>
<clipPath id="clip0_376_5374">
<rect width="25.356" height="30" fill="white" transform="translate(35.4927 31.5)"/>
</clipPath>
</defs>
</svg>
