<svg width="152" height="95" viewBox="0 0 152 95" fill="none" xmlns="http://www.w3.org/2000/svg">
<g filter="url(#filter0_ddi_105_833)">
<path d="M61.4951 31.5L59.0853 58.4969L48.2527 61.5L37.45 58.5011L35.0427 31.5H61.4951Z" fill="#264DE4"/>
<path d="M57.0221 56.7778L59.0815 33.7078H48.2689V59.2046L57.0221 56.7778Z" fill="#2965F1"/>
<path d="M40.5614 43.7222L40.8582 47.0337H48.2689V43.7222H40.5614Z" fill="#EBEBEB"/>
<path d="M48.2689 37.0193H48.2575H39.9651L40.2661 40.3309H48.2689V37.0193Z" fill="#EBEBEB"/>
<path d="M48.2689 55.768V52.3226L48.2544 52.3265L44.5663 51.3306L44.3305 48.6895H42.5384H41.0062L41.4702 53.8891L48.2537 55.7722L48.2689 55.768Z" fill="#EBEBEB"/>
<path d="M52.3353 47.0335L51.9509 51.3284L48.2575 52.3253V55.7706L55.0464 53.889L55.0962 53.3295L55.8744 44.6112L55.9552 43.722L56.553 37.0193H48.2575V40.3309H52.9238L52.6225 43.722H48.2575V47.0335H52.3353Z" fill="#F7F9FC"/>
<path d="M77.4631 55.336C75.3831 55.336 73.7351 54.76 72.5191 53.608C71.3031 52.44 70.6951 50.776 70.6951 48.616V44.584C70.6951 42.424 71.3031 40.768 72.5191 39.616C73.7351 38.448 75.3831 37.864 77.4631 37.864C79.5271 37.864 81.1191 38.432 82.2391 39.568C83.3751 40.688 83.9431 42.232 83.9431 44.2V44.344H80.8231V44.104C80.8231 43.112 80.5431 42.296 79.9831 41.656C79.4391 41.016 78.5991 40.696 77.4631 40.696C76.3431 40.696 75.4631 41.04 74.8231 41.728C74.1831 42.416 73.8631 43.352 73.8631 44.536V48.664C73.8631 49.832 74.1831 50.768 74.8231 51.472C75.4631 52.16 76.3431 52.504 77.4631 52.504C78.5991 52.504 79.4391 52.184 79.9831 51.544C80.5431 50.888 80.8231 50.072 80.8231 49.096V48.664H83.9431V49C83.9431 50.968 83.3751 52.52 82.2391 53.656C81.1191 54.776 79.5271 55.336 77.4631 55.336ZM92.3565 55.336C91.0605 55.336 89.9165 55.104 88.9245 54.64C87.9325 54.176 87.1565 53.512 86.5965 52.648C86.0365 51.784 85.7565 50.744 85.7565 49.528V48.856H88.8765V49.528C88.8765 50.536 89.1885 51.296 89.8125 51.808C90.4365 52.304 91.2845 52.552 92.3565 52.552C93.4445 52.552 94.2525 52.336 94.7805 51.904C95.3245 51.472 95.5965 50.92 95.5965 50.248C95.5965 49.784 95.4605 49.408 95.1885 49.12C94.9325 48.832 94.5485 48.6 94.0365 48.424C93.5405 48.232 92.9325 48.056 92.2125 47.896L91.6605 47.776C90.5085 47.52 89.5165 47.2 88.6845 46.816C87.8685 46.416 87.2365 45.896 86.7885 45.256C86.3565 44.616 86.1405 43.784 86.1405 42.76C86.1405 41.736 86.3805 40.864 86.8605 40.144C87.3565 39.408 88.0445 38.848 88.9245 38.464C89.8205 38.064 90.8685 37.864 92.0685 37.864C93.2685 37.864 94.3325 38.072 95.2605 38.488C96.2045 38.888 96.9405 39.496 97.4685 40.312C98.0125 41.112 98.2845 42.12 98.2845 43.336V44.056H95.1645V43.336C95.1645 42.696 95.0365 42.184 94.7805 41.8C94.5405 41.4 94.1885 41.112 93.7245 40.936C93.2605 40.744 92.7085 40.648 92.0685 40.648C91.1085 40.648 90.3965 40.832 89.9325 41.2C89.4845 41.552 89.2605 42.04 89.2605 42.664C89.2605 43.08 89.3645 43.432 89.5725 43.72C89.7965 44.008 90.1245 44.248 90.5565 44.44C90.9885 44.632 91.5405 44.8 92.2125 44.944L92.7645 45.064C93.9645 45.32 95.0045 45.648 95.8845 46.048C96.7805 46.448 97.4765 46.976 97.9725 47.632C98.4685 48.288 98.7165 49.128 98.7165 50.152C98.7165 51.176 98.4525 52.08 97.9245 52.864C97.4125 53.632 96.6765 54.24 95.7165 54.688C94.7725 55.12 93.6525 55.336 92.3565 55.336ZM106.911 55.336C105.615 55.336 104.471 55.104 103.479 54.64C102.487 54.176 101.711 53.512 101.151 52.648C100.591 51.784 100.311 50.744 100.311 49.528V48.856H103.431V49.528C103.431 50.536 103.743 51.296 104.367 51.808C104.991 52.304 105.839 52.552 106.911 52.552C107.999 52.552 108.807 52.336 109.335 51.904C109.879 51.472 110.151 50.92 110.151 50.248C110.151 49.784 110.015 49.408 109.743 49.12C109.487 48.832 109.103 48.6 108.591 48.424C108.095 48.232 107.487 48.056 106.767 47.896L106.215 47.776C105.063 47.52 104.071 47.2 103.239 46.816C102.423 46.416 101.791 45.896 101.343 45.256C100.911 44.616 100.695 43.784 100.695 42.76C100.695 41.736 100.935 40.864 101.415 40.144C101.911 39.408 102.599 38.848 103.479 38.464C104.375 38.064 105.423 37.864 106.623 37.864C107.823 37.864 108.887 38.072 109.815 38.488C110.759 38.888 111.495 39.496 112.023 40.312C112.567 41.112 112.839 42.12 112.839 43.336V44.056H109.719V43.336C109.719 42.696 109.591 42.184 109.335 41.8C109.095 41.4 108.743 41.112 108.279 40.936C107.815 40.744 107.263 40.648 106.623 40.648C105.663 40.648 104.951 40.832 104.487 41.2C104.039 41.552 103.815 42.04 103.815 42.664C103.815 43.08 103.919 43.432 104.127 43.72C104.351 44.008 104.679 44.248 105.111 44.44C105.543 44.632 106.095 44.8 106.767 44.944L107.319 45.064C108.519 45.32 109.559 45.648 110.439 46.048C111.335 46.448 112.031 46.976 112.527 47.632C113.023 48.288 113.271 49.128 113.271 50.152C113.271 51.176 113.007 52.08 112.479 52.864C111.967 53.632 111.231 54.24 110.271 54.688C109.327 55.12 108.207 55.336 106.911 55.336Z" fill="black"/>
<rect x="15.5427" y="15.5" width="118.452" height="62" rx="19.5" stroke="#F7F9FC"/>
</g>
<defs>
<filter id="filter0_ddi_105_833" x="0.0426636" y="0" width="151.452" height="95" filterUnits="userSpaceOnUse" color-interpolation-filters="sRGB">
<feFlood flood-opacity="0" result="BackgroundImageFix"/>
<feColorMatrix in="SourceAlpha" type="matrix" values="0 0 0 0 0 0 0 0 0 0 0 0 0 0 0 0 0 0 127 0" result="hardAlpha"/>
<feMorphology radius="5" operator="dilate" in="SourceAlpha" result="effect1_dropShadow_105_833"/>
<feOffset dx="-5" dy="-5"/>
<feGaussianBlur stdDeviation="2.5"/>
<feColorMatrix type="matrix" values="0 0 0 0 1 0 0 0 0 1 0 0 0 0 1 0 0 0 0.4 0"/>
<feBlend mode="normal" in2="BackgroundImageFix" result="effect1_dropShadow_105_833"/>
<feColorMatrix in="SourceAlpha" type="matrix" values="0 0 0 0 0 0 0 0 0 0 0 0 0 0 0 0 0 0 127 0" result="hardAlpha"/>
<feMorphology radius="2" operator="dilate" in="SourceAlpha" result="effect2_dropShadow_105_833"/>
<feOffset dx="5" dy="5"/>
<feGaussianBlur stdDeviation="5"/>
<feComposite in2="hardAlpha" operator="out"/>
<feColorMatrix type="matrix" values="0 0 0 0 0.635294 0 0 0 0 0.705882 0 0 0 0 0.776471 0 0 0 0.12 0"/>
<feBlend mode="normal" in2="effect1_dropShadow_105_833" result="effect2_dropShadow_105_833"/>
<feBlend mode="normal" in="SourceGraphic" in2="effect2_dropShadow_105_833" result="shape"/>
<feColorMatrix in="SourceAlpha" type="matrix" values="0 0 0 0 0 0 0 0 0 0 0 0 0 0 0 0 0 0 127 0" result="hardAlpha"/>
<feOffset dx="2" dy="2"/>
<feGaussianBlur stdDeviation="2"/>
<feComposite in2="hardAlpha" operator="arithmetic" k2="-1" k3="1"/>
<feColorMatrix type="matrix" values="0 0 0 0 1 0 0 0 0 1 0 0 0 0 1 0 0 0 0.5 0"/>
<feBlend mode="normal" in2="shape" result="effect3_innerShadow_105_833"/>
</filter>
</defs>
</svg>
