<svg width="162" height="95" viewBox="0 0 162 95" fill="none" xmlns="http://www.w3.org/2000/svg">
<g filter="url(#filter0_ddi_376_5418)">
<g clip-path="url(#clip0_376_5418)">
<path d="M44.0738 39.6675L42.1348 37.7285L42.143 51.7441L42.1662 52.3992C42.1758 52.7074 42.233 53.0552 42.3284 53.4157L57.6922 58.8333L61.5326 57.1317L61.534 57.127L44.0738 39.6675Z" fill="#00D2B8"/>
<path d="M42.3284 53.4157L42.3294 53.4167C42.3284 53.4103 42.3251 53.4033 42.3251 53.3967C42.3251 53.4033 42.3261 53.4094 42.3284 53.4157ZM61.5326 57.1317L57.6922 58.8333L42.3294 53.4167C42.6228 54.5426 43.2725 55.8082 43.9716 56.5003L48.9854 61.4855L60.1334 61.5L61.534 57.127L61.5326 57.1317Z" fill="#55DDCA"/>
<path d="M36.1636 46.748C35.6672 47.2779 35.9138 48.371 36.713 49.1763L40.1604 52.6523L42.3284 53.4157C42.233 53.0552 42.1758 52.7074 42.1662 52.3992L42.143 51.7441L42.1348 37.7285L36.1636 46.748Z" fill="#0081C6"/>
<path d="M57.8183 37.9084C57.4578 37.8163 57.1121 37.7593 56.7987 37.7495L56.1064 37.7256L42.1348 37.7275L61.5359 57.1269H61.5376L63.2415 53.2827L57.8183 37.9084Z" fill="#0079B3"/>
<path d="M57.8007 37.9048C57.8082 37.9064 57.814 37.9085 57.819 37.9092L57.8183 37.9085C57.8141 37.9064 57.8082 37.9064 57.8007 37.9048ZM60.9001 39.5546C60.196 38.8446 58.947 38.1994 57.819 37.9092L63.2415 53.2828L61.5376 57.1271H61.5359L65.6998 55.7972L65.7087 44.3813L60.9001 39.5546Z" fill="#00A4E4"/>
<path d="M57.0587 35.7536L53.5836 32.304C52.7799 31.5079 51.6863 31.2601 51.1578 31.7551L42.1348 37.7275L56.1064 37.7256L56.7987 37.7495C57.1121 37.7593 57.4578 37.8163 57.8183 37.9084L57.0587 35.7536Z" fill="#00D2B8"/>
</g>
<path d="M74.9121 55V52.216H77.1201V40.984H74.9121V38.2H81.8241C84.0801 38.2 85.7921 38.776 86.9601 39.928C88.1441 41.064 88.7361 42.76 88.7361 45.016V48.184C88.7361 50.44 88.1441 52.144 86.9601 53.296C85.7921 54.432 84.0801 55 81.8241 55H74.9121ZM80.2881 52.12H81.8721C83.1521 52.12 84.0881 51.784 84.6801 51.112C85.2721 50.44 85.5681 49.496 85.5681 48.28V44.92C85.5681 43.688 85.2721 42.744 84.6801 42.088C84.0881 41.416 83.1521 41.08 81.8721 41.08H80.2881V52.12ZM95.1685 55.336C94.3205 55.336 93.5605 55.192 92.8885 54.904C92.2165 54.6 91.6805 54.168 91.2805 53.608C90.8965 53.032 90.7045 52.336 90.7045 51.52C90.7045 50.704 90.8965 50.024 91.2805 49.48C91.6805 48.92 92.2245 48.504 92.9125 48.232C93.6165 47.944 94.4165 47.8 95.3125 47.8H98.5765V47.128C98.5765 46.568 98.4005 46.112 98.0485 45.76C97.6965 45.392 97.1365 45.208 96.3685 45.208C95.6165 45.208 95.0565 45.384 94.6885 45.736C94.3205 46.072 94.0805 46.512 93.9685 47.056L91.1845 46.12C91.3765 45.512 91.6805 44.96 92.0965 44.464C92.5285 43.952 93.0965 43.544 93.8005 43.24C94.5205 42.92 95.3925 42.76 96.4165 42.76C97.9845 42.76 99.2245 43.152 100.136 43.936C101.048 44.72 101.504 45.856 101.504 47.344V51.784C101.504 52.264 101.728 52.504 102.176 52.504H103.136V55H101.12C100.528 55 100.04 54.856 99.6565 54.568C99.2725 54.28 99.0805 53.896 99.0805 53.416V53.392H98.6245C98.5605 53.584 98.4165 53.84 98.1925 54.16C97.9685 54.464 97.6165 54.736 97.1365 54.976C96.6565 55.216 96.0005 55.336 95.1685 55.336ZM95.6965 52.888C96.5445 52.888 97.2325 52.656 97.7605 52.192C98.3045 51.712 98.5765 51.08 98.5765 50.296V50.056H95.5285C94.9685 50.056 94.5285 50.176 94.2085 50.416C93.8885 50.656 93.7285 50.992 93.7285 51.424C93.7285 51.856 93.8965 52.208 94.2325 52.48C94.5685 52.752 95.0565 52.888 95.6965 52.888ZM105.347 55V43.096H108.323V44.44H108.755C108.931 43.96 109.219 43.608 109.619 43.384C110.035 43.16 110.515 43.048 111.059 43.048H112.499V45.736H111.011C110.243 45.736 109.611 45.944 109.115 46.36C108.619 46.76 108.371 47.384 108.371 48.232V55H105.347ZM119.423 55C118.639 55 117.999 54.76 117.503 54.28C117.023 53.784 116.783 53.128 116.783 52.312V45.592H113.807V43.096H116.783V39.4H119.807V43.096H123.071V45.592H119.807V51.784C119.807 52.264 120.031 52.504 120.479 52.504H122.783V55H119.423Z" fill="black"/>
<rect x="16.3081" y="15.5" width="128" height="62" rx="19.5" stroke="#F7F9FC"/>
</g>
<defs>
<filter id="filter0_ddi_376_5418" x="0.808105" y="0" width="161" height="95" filterUnits="userSpaceOnUse" color-interpolation-filters="sRGB">
<feFlood flood-opacity="0" result="BackgroundImageFix"/>
<feColorMatrix in="SourceAlpha" type="matrix" values="0 0 0 0 0 0 0 0 0 0 0 0 0 0 0 0 0 0 127 0" result="hardAlpha"/>
<feMorphology radius="5" operator="dilate" in="SourceAlpha" result="effect1_dropShadow_376_5418"/>
<feOffset dx="-5" dy="-5"/>
<feGaussianBlur stdDeviation="2.5"/>
<feColorMatrix type="matrix" values="0 0 0 0 1 0 0 0 0 1 0 0 0 0 1 0 0 0 0.4 0"/>
<feBlend mode="normal" in2="BackgroundImageFix" result="effect1_dropShadow_376_5418"/>
<feColorMatrix in="SourceAlpha" type="matrix" values="0 0 0 0 0 0 0 0 0 0 0 0 0 0 0 0 0 0 127 0" result="hardAlpha"/>
<feMorphology radius="2" operator="dilate" in="SourceAlpha" result="effect2_dropShadow_376_5418"/>
<feOffset dx="5" dy="5"/>
<feGaussianBlur stdDeviation="5"/>
<feComposite in2="hardAlpha" operator="out"/>
<feColorMatrix type="matrix" values="0 0 0 0 0.635294 0 0 0 0 0.705882 0 0 0 0 0.776471 0 0 0 0.12 0"/>
<feBlend mode="normal" in2="effect1_dropShadow_376_5418" result="effect2_dropShadow_376_5418"/>
<feBlend mode="normal" in="SourceGraphic" in2="effect2_dropShadow_376_5418" result="shape"/>
<feColorMatrix in="SourceAlpha" type="matrix" values="0 0 0 0 0 0 0 0 0 0 0 0 0 0 0 0 0 0 127 0" result="hardAlpha"/>
<feOffset dx="2" dy="2"/>
<feGaussianBlur stdDeviation="2"/>
<feComposite in2="hardAlpha" operator="arithmetic" k2="-1" k3="1"/>
<feColorMatrix type="matrix" values="0 0 0 0 1 0 0 0 0 1 0 0 0 0 1 0 0 0 0.5 0"/>
<feBlend mode="normal" in2="shape" result="effect3_innerShadow_376_5418"/>
</filter>
<clipPath id="clip0_376_5418">
<rect width="30" height="30" fill="white" transform="translate(35.8081 31.5)"/>
</clipPath>
</defs>
</svg>
