<svg width="187" height="95" viewBox="0 0 187 95" fill="none" xmlns="http://www.w3.org/2000/svg">
<g filter="url(#filter0_ddi_105_873)">
<path d="M46.1116 31.5H51.0237V54.0138C48.5077 54.4898 46.6554 54.677 44.6513 54.677C38.6518 54.6707 35.5288 51.9905 35.5288 46.8428C35.5288 41.883 38.8415 38.6641 43.9748 38.6641C44.7714 38.6641 45.3783 38.7268 46.1116 38.9146V31.5ZM46.2838 42.9719C45.7084 42.784 45.2344 42.7214 44.6274 42.7214C42.143 42.7214 40.7079 44.2368 40.7079 46.8927C40.7079 49.4784 42.0798 50.9062 44.5959 50.9062C45.1395 50.9062 45.582 50.8756 46.2838 50.7817V42.9719Z" fill="#2BA977"/>
<path d="M59.0564 39.2686V50.5409C59.0564 54.4229 58.7657 56.2897 57.9122 57.8992C57.1156 59.4466 56.0662 60.4223 53.8978 61.5L49.3397 59.3521C51.5081 58.3444 52.5575 57.4539 53.2277 56.095C53.9293 54.7054 54.1506 53.0959 54.1506 48.8626V39.2687H59.0564V39.2686ZM53.6556 31.5H58.5677V36.4911H53.6556V31.5Z" fill="#2BA977"/>
<path d="M68.1604 55V52.216H70.3684V40.984H68.1604V38.2H75.0724C77.3284 38.2 79.0404 38.776 80.2084 39.928C81.3924 41.064 81.9844 42.76 81.9844 45.016V48.184C81.9844 50.44 81.3924 52.144 80.2084 53.296C79.0404 54.432 77.3284 55 75.0724 55H68.1604ZM73.5364 52.12H75.1204C76.4004 52.12 77.3364 51.784 77.9284 51.112C78.5204 50.44 78.8164 49.496 78.8164 48.28V44.92C78.8164 43.688 78.5204 42.744 77.9284 42.088C77.3364 41.416 76.4004 41.08 75.1204 41.08H73.5364V52.12ZM82.5128 59.8V57.208H84.0968C84.5448 57.208 84.7688 56.968 84.7688 56.488V43.096H87.7928V57.112C87.7928 57.928 87.5528 58.576 87.0728 59.056C86.5928 59.552 85.9528 59.8 85.1528 59.8H82.5128ZM86.2808 41.704C85.7368 41.704 85.2728 41.528 84.8888 41.176C84.5208 40.824 84.3368 40.36 84.3368 39.784C84.3368 39.208 84.5208 38.744 84.8888 38.392C85.2728 38.04 85.7368 37.864 86.2808 37.864C86.8408 37.864 87.3048 38.04 87.6728 38.392C88.0408 38.744 88.2248 39.208 88.2248 39.784C88.2248 40.36 88.0408 40.824 87.6728 41.176C87.3048 41.528 86.8408 41.704 86.2808 41.704ZM94.8387 55.336C93.9907 55.336 93.2307 55.192 92.5587 54.904C91.8867 54.6 91.3507 54.168 90.9507 53.608C90.5667 53.032 90.3747 52.336 90.3747 51.52C90.3747 50.704 90.5667 50.024 90.9507 49.48C91.3507 48.92 91.8947 48.504 92.5827 48.232C93.2867 47.944 94.0867 47.8 94.9827 47.8H98.2467V47.128C98.2467 46.568 98.0707 46.112 97.7187 45.76C97.3667 45.392 96.8067 45.208 96.0387 45.208C95.2867 45.208 94.7267 45.384 94.3587 45.736C93.9907 46.072 93.7507 46.512 93.6387 47.056L90.8547 46.12C91.0467 45.512 91.3507 44.96 91.7667 44.464C92.1987 43.952 92.7667 43.544 93.4707 43.24C94.1907 42.92 95.0627 42.76 96.0867 42.76C97.6547 42.76 98.8947 43.152 99.8067 43.936C100.719 44.72 101.175 45.856 101.175 47.344V51.784C101.175 52.264 101.399 52.504 101.847 52.504H102.807V55H100.791C100.199 55 99.7107 54.856 99.3267 54.568C98.9427 54.28 98.7507 53.896 98.7507 53.416V53.392H98.2947C98.2307 53.584 98.0867 53.84 97.8627 54.16C97.6387 54.464 97.2867 54.736 96.8067 54.976C96.3267 55.216 95.6707 55.336 94.8387 55.336ZM95.3667 52.888C96.2147 52.888 96.9027 52.656 97.4307 52.192C97.9747 51.712 98.2467 51.08 98.2467 50.296V50.056H95.1987C94.6387 50.056 94.1987 50.176 93.8787 50.416C93.5587 50.656 93.3987 50.992 93.3987 51.424C93.3987 51.856 93.5667 52.208 93.9027 52.48C94.2387 52.752 94.7267 52.888 95.3667 52.888ZM105.018 55V43.096H107.994V44.656H108.426C108.618 44.24 108.978 43.848 109.506 43.48C110.034 43.096 110.834 42.904 111.906 42.904C112.834 42.904 113.642 43.12 114.33 43.552C115.034 43.968 115.578 44.552 115.962 45.304C116.346 46.04 116.538 46.904 116.538 47.896V55H113.514V48.136C113.514 47.24 113.29 46.568 112.842 46.12C112.41 45.672 111.786 45.448 110.97 45.448C110.042 45.448 109.322 45.76 108.81 46.384C108.298 46.992 108.042 47.848 108.042 48.952V55H105.018ZM119.231 49.096V48.712C119.231 47.464 119.479 46.4 119.975 45.52C120.471 44.624 121.127 43.944 121.943 43.48C122.775 43 123.679 42.76 124.655 42.76C125.743 42.76 126.567 42.952 127.127 43.336C127.687 43.72 128.095 44.12 128.351 44.536H128.783V43.096H131.759V57.112C131.759 57.928 131.519 58.576 131.039 59.056C130.559 59.552 129.919 59.8 129.119 59.8H121.151V57.16H128.063C128.511 57.16 128.735 56.92 128.735 56.44V53.344H128.303C128.143 53.6 127.919 53.864 127.631 54.136C127.343 54.392 126.959 54.608 126.479 54.784C125.999 54.96 125.391 55.048 124.655 55.048C123.679 55.048 122.775 54.816 121.943 54.352C121.127 53.872 120.471 53.192 119.975 52.312C119.479 51.416 119.231 50.344 119.231 49.096ZM125.519 52.408C126.447 52.408 127.223 52.112 127.847 51.52C128.471 50.928 128.783 50.096 128.783 49.024V48.784C128.783 47.696 128.471 46.864 127.847 46.288C127.239 45.696 126.463 45.4 125.519 45.4C124.591 45.4 123.815 45.696 123.191 46.288C122.567 46.864 122.255 47.696 122.255 48.784V49.024C122.255 50.096 122.567 50.928 123.191 51.52C123.815 52.112 124.591 52.408 125.519 52.408ZM140.775 55.336C139.591 55.336 138.527 55.096 137.583 54.616C136.639 54.136 135.895 53.44 135.351 52.528C134.807 51.616 134.535 50.52 134.535 49.24V48.856C134.535 47.576 134.807 46.48 135.351 45.568C135.895 44.656 136.639 43.96 137.583 43.48C138.527 43 139.591 42.76 140.775 42.76C141.959 42.76 143.023 43 143.967 43.48C144.911 43.96 145.655 44.656 146.199 45.568C146.743 46.48 147.015 47.576 147.015 48.856V49.24C147.015 50.52 146.743 51.616 146.199 52.528C145.655 53.44 144.911 54.136 143.967 54.616C143.023 55.096 141.959 55.336 140.775 55.336ZM140.775 52.648C141.703 52.648 142.471 52.352 143.079 51.76C143.687 51.152 143.991 50.288 143.991 49.168V48.928C143.991 47.808 143.687 46.952 143.079 46.36C142.487 45.752 141.719 45.448 140.775 45.448C139.847 45.448 139.079 45.752 138.471 46.36C137.863 46.952 137.559 47.808 137.559 48.928V49.168C137.559 50.288 137.863 51.152 138.471 51.76C139.079 52.352 139.847 52.648 140.775 52.648Z" fill="black"/>
<rect x="16.0288" y="15.5" width="152.528" height="62" rx="19.5" stroke="#F7F9FC"/>
</g>
<defs>
<filter id="filter0_ddi_105_873" x="0.528809" y="0" width="185.528" height="95" filterUnits="userSpaceOnUse" color-interpolation-filters="sRGB">
<feFlood flood-opacity="0" result="BackgroundImageFix"/>
<feColorMatrix in="SourceAlpha" type="matrix" values="0 0 0 0 0 0 0 0 0 0 0 0 0 0 0 0 0 0 127 0" result="hardAlpha"/>
<feMorphology radius="5" operator="dilate" in="SourceAlpha" result="effect1_dropShadow_105_873"/>
<feOffset dx="-5" dy="-5"/>
<feGaussianBlur stdDeviation="2.5"/>
<feColorMatrix type="matrix" values="0 0 0 0 1 0 0 0 0 1 0 0 0 0 1 0 0 0 0.4 0"/>
<feBlend mode="normal" in2="BackgroundImageFix" result="effect1_dropShadow_105_873"/>
<feColorMatrix in="SourceAlpha" type="matrix" values="0 0 0 0 0 0 0 0 0 0 0 0 0 0 0 0 0 0 127 0" result="hardAlpha"/>
<feMorphology radius="2" operator="dilate" in="SourceAlpha" result="effect2_dropShadow_105_873"/>
<feOffset dx="5" dy="5"/>
<feGaussianBlur stdDeviation="5"/>
<feComposite in2="hardAlpha" operator="out"/>
<feColorMatrix type="matrix" values="0 0 0 0 0.635294 0 0 0 0 0.705882 0 0 0 0 0.776471 0 0 0 0.12 0"/>
<feBlend mode="normal" in2="effect1_dropShadow_105_873" result="effect2_dropShadow_105_873"/>
<feBlend mode="normal" in="SourceGraphic" in2="effect2_dropShadow_105_873" result="shape"/>
<feColorMatrix in="SourceAlpha" type="matrix" values="0 0 0 0 0 0 0 0 0 0 0 0 0 0 0 0 0 0 127 0" result="hardAlpha"/>
<feOffset dx="2" dy="2"/>
<feGaussianBlur stdDeviation="2"/>
<feComposite in2="hardAlpha" operator="arithmetic" k2="-1" k3="1"/>
<feColorMatrix type="matrix" values="0 0 0 0 1 0 0 0 0 1 0 0 0 0 1 0 0 0 0.5 0"/>
<feBlend mode="normal" in2="shape" result="effect3_innerShadow_105_873"/>
</filter>
</defs>
</svg>
