<svg width="232" height="95" viewBox="0 0 232 95" fill="none" xmlns="http://www.w3.org/2000/svg">
<g filter="url(#filter0_ddi_105_869)">
<g clip-path="url(#clip0_105_869)">
<path d="M65.5288 54.7452C64.4376 55.0227 63.7626 54.7574 63.1569 53.848L58.8501 47.8893L58.2276 47.0643L53.1979 53.8677C52.6232 54.6862 52.0204 55.0424 50.9479 54.7527L57.3885 46.1071L51.3922 38.2977C52.4235 38.0971 53.136 38.1993 53.7688 39.1227L58.236 45.1555L62.736 39.1555C63.3126 38.3371 63.9322 38.0258 64.9672 38.3277L62.6422 41.4102L59.4922 45.5118C59.1172 45.9805 59.1688 46.3012 59.5138 46.754L65.5288 54.7452ZM35.5363 45.9627L36.0632 43.3715C37.4976 38.2433 43.3757 36.1124 47.4294 39.2812C49.7985 41.1449 50.3872 43.7812 50.2701 46.7343H36.9163C36.7157 52.0499 40.5416 55.258 45.4194 53.6212C47.1304 53.0465 48.1382 51.7068 48.6426 50.0305C48.8985 49.1905 49.3222 49.0593 50.1116 49.2993C49.7085 51.3955 48.7991 53.1468 46.8772 54.2427C44.0057 55.8833 39.9069 55.3527 37.7507 53.0727C36.4663 51.7499 35.9357 50.0737 35.6976 48.2812C35.6601 47.9849 35.5851 47.7027 35.5288 47.4187C35.5338 46.9337 35.5363 46.4487 35.5363 45.9637V45.9627ZM36.9407 45.6065H49.0082C48.9294 41.7627 46.536 39.0327 43.2651 39.0093C39.6744 38.9812 37.0963 41.6465 36.9407 45.6065Z" fill="black"/>
</g>
<path d="M75.1128 55V38.2H85.9128V41.08H78.2808V45.088H85.2408V47.968H78.2808V52.12H86.0568V55H75.1128ZM87.4419 55L91.7619 49L87.4899 43.096H90.9939L93.7059 47.056H94.1379L96.8499 43.096H100.354L96.0819 49L100.402 55H96.8499L94.1379 50.992H93.7059L90.9939 55H87.4419ZM102.701 59.8V43.096H105.677V44.536H106.109C106.381 44.072 106.805 43.664 107.381 43.312C107.957 42.944 108.781 42.76 109.853 42.76C110.813 42.76 111.701 43 112.517 43.48C113.333 43.944 113.989 44.632 114.485 45.544C114.981 46.456 115.229 47.56 115.229 48.856V49.24C115.229 50.536 114.981 51.64 114.485 52.552C113.989 53.464 113.333 54.16 112.517 54.64C111.701 55.104 110.813 55.336 109.853 55.336C109.133 55.336 108.525 55.248 108.029 55.072C107.549 54.912 107.157 54.704 106.853 54.448C106.565 54.176 106.333 53.904 106.157 53.632H105.725V59.8H102.701ZM108.941 52.696C109.885 52.696 110.661 52.4 111.269 51.808C111.893 51.2 112.205 50.32 112.205 49.168V48.928C112.205 47.776 111.893 46.904 111.269 46.312C110.645 45.704 109.869 45.4 108.941 45.4C108.013 45.4 107.237 45.704 106.613 46.312C105.989 46.904 105.677 47.776 105.677 48.928V49.168C105.677 50.32 105.989 51.2 106.613 51.808C107.237 52.4 108.013 52.696 108.941 52.696ZM118.006 55V43.096H120.982V44.44H121.414C121.59 43.96 121.878 43.608 122.278 43.384C122.694 43.16 123.174 43.048 123.718 43.048H125.158V45.736H123.67C122.902 45.736 122.27 45.944 121.774 46.36C121.278 46.76 121.03 47.384 121.03 48.232V55H118.006ZM132.523 55.336C131.339 55.336 130.291 55.088 129.379 54.592C128.483 54.08 127.779 53.368 127.267 52.456C126.771 51.528 126.523 50.44 126.523 49.192V48.904C126.523 47.656 126.771 46.576 127.267 45.664C127.763 44.736 128.459 44.024 129.355 43.528C130.251 43.016 131.291 42.76 132.475 42.76C133.643 42.76 134.659 43.024 135.523 43.552C136.387 44.064 137.059 44.784 137.539 45.712C138.019 46.624 138.259 47.688 138.259 48.904V49.936H129.595C129.627 50.752 129.931 51.416 130.507 51.928C131.083 52.44 131.787 52.696 132.619 52.696C133.467 52.696 134.091 52.512 134.491 52.144C134.891 51.776 135.195 51.368 135.403 50.92L137.875 52.216C137.651 52.632 137.323 53.088 136.891 53.584C136.475 54.064 135.915 54.48 135.211 54.832C134.507 55.168 133.611 55.336 132.523 55.336ZM129.619 47.68H135.187C135.123 46.992 134.843 46.44 134.347 46.024C133.867 45.608 133.235 45.4 132.451 45.4C131.635 45.4 130.987 45.608 130.507 46.024C130.027 46.44 129.731 46.992 129.619 47.68ZM145.895 55.336C144.343 55.336 143.071 55 142.079 54.328C141.087 53.656 140.487 52.696 140.279 51.448L143.063 50.728C143.175 51.288 143.359 51.728 143.615 52.048C143.887 52.368 144.215 52.6 144.599 52.744C144.999 52.872 145.431 52.936 145.895 52.936C146.599 52.936 147.119 52.816 147.455 52.576C147.791 52.32 147.959 52.008 147.959 51.64C147.959 51.272 147.799 50.992 147.479 50.8C147.159 50.592 146.647 50.424 145.943 50.296L145.271 50.176C144.439 50.016 143.679 49.8 142.991 49.528C142.303 49.24 141.751 48.848 141.335 48.352C140.919 47.856 140.711 47.216 140.711 46.432C140.711 45.248 141.143 44.344 142.007 43.72C142.871 43.08 144.007 42.76 145.415 42.76C146.743 42.76 147.847 43.056 148.727 43.648C149.607 44.24 150.183 45.016 150.455 45.976L147.647 46.84C147.519 46.232 147.255 45.8 146.855 45.544C146.471 45.288 145.991 45.16 145.415 45.16C144.839 45.16 144.399 45.264 144.095 45.472C143.791 45.664 143.639 45.936 143.639 46.288C143.639 46.672 143.799 46.96 144.119 47.152C144.439 47.328 144.871 47.464 145.415 47.56L146.087 47.68C146.983 47.84 147.791 48.056 148.511 48.328C149.247 48.584 149.823 48.96 150.239 49.456C150.671 49.936 150.887 50.592 150.887 51.424C150.887 52.672 150.431 53.64 149.519 54.328C148.623 55 147.415 55.336 145.895 55.336ZM158.481 55.336C156.929 55.336 155.657 55 154.665 54.328C153.673 53.656 153.073 52.696 152.865 51.448L155.649 50.728C155.761 51.288 155.945 51.728 156.201 52.048C156.473 52.368 156.801 52.6 157.185 52.744C157.585 52.872 158.017 52.936 158.481 52.936C159.185 52.936 159.705 52.816 160.041 52.576C160.377 52.32 160.545 52.008 160.545 51.64C160.545 51.272 160.385 50.992 160.065 50.8C159.745 50.592 159.233 50.424 158.529 50.296L157.857 50.176C157.025 50.016 156.265 49.8 155.577 49.528C154.889 49.24 154.337 48.848 153.921 48.352C153.505 47.856 153.297 47.216 153.297 46.432C153.297 45.248 153.729 44.344 154.593 43.72C155.457 43.08 156.593 42.76 158.001 42.76C159.329 42.76 160.433 43.056 161.313 43.648C162.193 44.24 162.769 45.016 163.041 45.976L160.233 46.84C160.105 46.232 159.841 45.8 159.441 45.544C159.057 45.288 158.577 45.16 158.001 45.16C157.425 45.16 156.985 45.264 156.681 45.472C156.377 45.664 156.225 45.936 156.225 46.288C156.225 46.672 156.385 46.96 156.705 47.152C157.025 47.328 157.457 47.464 158.001 47.56L158.673 47.68C159.569 47.84 160.377 48.056 161.097 48.328C161.833 48.584 162.409 48.96 162.825 49.456C163.257 49.936 163.473 50.592 163.473 51.424C163.473 52.672 163.017 53.64 162.105 54.328C161.209 55 160.001 55.336 158.481 55.336ZM170.851 55.336C169.123 55.336 167.747 54.864 166.723 53.92C165.715 52.976 165.211 51.656 165.211 49.96V48.376H168.379V49.96C168.379 50.712 168.587 51.304 169.003 51.736C169.419 52.152 170.003 52.36 170.755 52.36C171.459 52.36 172.003 52.152 172.387 51.736C172.787 51.32 172.987 50.728 172.987 49.96V41.08H170.107V38.2H178.075V41.08H176.155V49.96C176.155 51.704 175.683 53.04 174.739 53.968C173.795 54.88 172.499 55.336 170.851 55.336ZM186.507 55.336C185.211 55.336 184.067 55.104 183.075 54.64C182.083 54.176 181.307 53.512 180.747 52.648C180.187 51.784 179.907 50.744 179.907 49.528V48.856H183.027V49.528C183.027 50.536 183.339 51.296 183.963 51.808C184.587 52.304 185.435 52.552 186.507 52.552C187.595 52.552 188.403 52.336 188.931 51.904C189.475 51.472 189.747 50.92 189.747 50.248C189.747 49.784 189.611 49.408 189.339 49.12C189.083 48.832 188.699 48.6 188.187 48.424C187.691 48.232 187.083 48.056 186.363 47.896L185.811 47.776C184.659 47.52 183.667 47.2 182.835 46.816C182.019 46.416 181.387 45.896 180.939 45.256C180.507 44.616 180.291 43.784 180.291 42.76C180.291 41.736 180.531 40.864 181.011 40.144C181.507 39.408 182.195 38.848 183.075 38.464C183.971 38.064 185.019 37.864 186.219 37.864C187.419 37.864 188.483 38.072 189.411 38.488C190.355 38.888 191.091 39.496 191.619 40.312C192.163 41.112 192.435 42.12 192.435 43.336V44.056H189.315V43.336C189.315 42.696 189.187 42.184 188.931 41.8C188.691 41.4 188.339 41.112 187.875 40.936C187.411 40.744 186.859 40.648 186.219 40.648C185.259 40.648 184.547 40.832 184.083 41.2C183.635 41.552 183.411 42.04 183.411 42.664C183.411 43.08 183.515 43.432 183.723 43.72C183.947 44.008 184.275 44.248 184.707 44.44C185.139 44.632 185.691 44.8 186.363 44.944L186.915 45.064C188.115 45.32 189.155 45.648 190.035 46.048C190.931 46.448 191.627 46.976 192.123 47.632C192.619 48.288 192.867 49.128 192.867 50.152C192.867 51.176 192.603 52.08 192.075 52.864C191.563 53.632 190.827 54.24 189.867 54.688C188.923 55.12 187.803 55.336 186.507 55.336Z" fill="black"/>
<rect x="16.0288" y="15.5" width="198" height="62" rx="19.5" stroke="#F7F9FC"/>
</g>
<defs>
<filter id="filter0_ddi_105_869" x="0.528809" y="0" width="231" height="95" filterUnits="userSpaceOnUse" color-interpolation-filters="sRGB">
<feFlood flood-opacity="0" result="BackgroundImageFix"/>
<feColorMatrix in="SourceAlpha" type="matrix" values="0 0 0 0 0 0 0 0 0 0 0 0 0 0 0 0 0 0 127 0" result="hardAlpha"/>
<feMorphology radius="5" operator="dilate" in="SourceAlpha" result="effect1_dropShadow_105_869"/>
<feOffset dx="-5" dy="-5"/>
<feGaussianBlur stdDeviation="2.5"/>
<feColorMatrix type="matrix" values="0 0 0 0 1 0 0 0 0 1 0 0 0 0 1 0 0 0 0.4 0"/>
<feBlend mode="normal" in2="BackgroundImageFix" result="effect1_dropShadow_105_869"/>
<feColorMatrix in="SourceAlpha" type="matrix" values="0 0 0 0 0 0 0 0 0 0 0 0 0 0 0 0 0 0 127 0" result="hardAlpha"/>
<feMorphology radius="2" operator="dilate" in="SourceAlpha" result="effect2_dropShadow_105_869"/>
<feOffset dx="5" dy="5"/>
<feGaussianBlur stdDeviation="5"/>
<feComposite in2="hardAlpha" operator="out"/>
<feColorMatrix type="matrix" values="0 0 0 0 0.635294 0 0 0 0 0.705882 0 0 0 0 0.776471 0 0 0 0.12 0"/>
<feBlend mode="normal" in2="effect1_dropShadow_105_869" result="effect2_dropShadow_105_869"/>
<feBlend mode="normal" in="SourceGraphic" in2="effect2_dropShadow_105_869" result="shape"/>
<feColorMatrix in="SourceAlpha" type="matrix" values="0 0 0 0 0 0 0 0 0 0 0 0 0 0 0 0 0 0 127 0" result="hardAlpha"/>
<feOffset dx="2" dy="2"/>
<feGaussianBlur stdDeviation="2"/>
<feComposite in2="hardAlpha" operator="arithmetic" k2="-1" k3="1"/>
<feColorMatrix type="matrix" values="0 0 0 0 1 0 0 0 0 1 0 0 0 0 1 0 0 0 0.5 0"/>
<feBlend mode="normal" in2="shape" result="effect3_innerShadow_105_869"/>
</filter>
<clipPath id="clip0_105_869">
<rect width="30" height="30" fill="white" transform="translate(35.5288 31.5)"/>
</clipPath>
</defs>
</svg>
