<svg width="170" height="94" viewBox="0 0 170 94" fill="none" xmlns="http://www.w3.org/2000/svg">
<g filter="url(#filter0_ddi_376_5450)">
<path d="M40.6638 61.5C43.4238 61.5 45.6638 59.26 45.6638 56.5V51.5H40.6638C37.9038 51.5 35.6638 53.74 35.6638 56.5C35.6638 59.26 37.9038 61.5 40.6638 61.5Z" fill="#0ACF83"/>
<path d="M35.6638 46.5C35.6638 43.74 37.9038 41.5 40.6638 41.5H45.6638V51.5H40.6638C37.9038 51.5 35.6638 49.26 35.6638 46.5Z" fill="#A259FF"/>
<path d="M35.6638 36.5C35.6638 33.74 37.9038 31.5 40.6638 31.5H45.6638V41.5H40.6638C37.9038 41.5 35.6638 39.26 35.6638 36.5Z" fill="#F24E1E"/>
<path d="M45.6638 31.5H50.6638C53.4238 31.5 55.6638 33.74 55.6638 36.5C55.6638 39.26 53.4238 41.5 50.6638 41.5H45.6638V31.5Z" fill="#FF7262"/>
<path d="M55.6638 46.5C55.6638 49.26 53.4238 51.5 50.6638 51.5C47.9038 51.5 45.6638 49.26 45.6638 46.5C45.6638 43.74 47.9038 41.5 50.6638 41.5C53.4238 41.5 55.6638 43.74 55.6638 46.5Z" fill="#1ABCFE"/>
<path d="M65.2478 55V38.2H75.8078V41.08H68.4158V45.136H75.2318V48.016H68.4158V55H65.2478ZM78.1641 55V43.096H81.1881V55H78.1641ZM79.6761 41.704C79.1321 41.704 78.6681 41.528 78.2841 41.176C77.9161 40.824 77.7321 40.36 77.7321 39.784C77.7321 39.208 77.9161 38.744 78.2841 38.392C78.6681 38.04 79.1321 37.864 79.6761 37.864C80.2361 37.864 80.7001 38.04 81.0681 38.392C81.4361 38.744 81.6201 39.208 81.6201 39.784C81.6201 40.36 81.4361 40.824 81.0681 41.176C80.7001 41.528 80.2361 41.704 79.6761 41.704ZM83.9631 49.096V48.712C83.9631 47.464 84.2111 46.4 84.7071 45.52C85.2031 44.624 85.8591 43.944 86.6751 43.48C87.5071 43 88.4111 42.76 89.3871 42.76C90.4751 42.76 91.2991 42.952 91.8591 43.336C92.4191 43.72 92.8271 44.12 93.0831 44.536H93.5151V43.096H96.4911V57.112C96.4911 57.928 96.2511 58.576 95.7711 59.056C95.2911 59.552 94.6511 59.8 93.8511 59.8H85.8831V57.16H92.7951C93.2431 57.16 93.4671 56.92 93.4671 56.44V53.344H93.0351C92.8751 53.6 92.6511 53.864 92.3631 54.136C92.0751 54.392 91.6911 54.608 91.2111 54.784C90.7311 54.96 90.1231 55.048 89.3871 55.048C88.4111 55.048 87.5071 54.816 86.6751 54.352C85.8591 53.872 85.2031 53.192 84.7071 52.312C84.2111 51.416 83.9631 50.344 83.9631 49.096ZM90.2511 52.408C91.1791 52.408 91.9551 52.112 92.5791 51.52C93.2031 50.928 93.5151 50.096 93.5151 49.024V48.784C93.5151 47.696 93.2031 46.864 92.5791 46.288C91.9711 45.696 91.1951 45.4 90.2511 45.4C89.3231 45.4 88.5471 45.696 87.9231 46.288C87.2991 46.864 86.9871 47.696 86.9871 48.784V49.024C86.9871 50.096 87.2991 50.928 87.9231 51.52C88.5471 52.112 89.3231 52.408 90.2511 52.408ZM99.8438 55V43.096H102.82V44.392H103.252C103.46 43.992 103.804 43.648 104.284 43.36C104.764 43.056 105.396 42.904 106.18 42.904C107.028 42.904 107.708 43.072 108.22 43.408C108.732 43.728 109.124 44.152 109.396 44.68H109.828C110.1 44.168 110.484 43.744 110.98 43.408C111.476 43.072 112.18 42.904 113.092 42.904C113.828 42.904 114.492 43.064 115.084 43.384C115.692 43.688 116.172 44.16 116.524 44.8C116.892 45.424 117.076 46.216 117.076 47.176V55H114.052V47.392C114.052 46.736 113.884 46.248 113.548 45.928C113.212 45.592 112.74 45.424 112.132 45.424C111.444 45.424 110.908 45.648 110.524 46.096C110.156 46.528 109.972 47.152 109.972 47.968V55H106.948V47.392C106.948 46.736 106.78 46.248 106.444 45.928C106.108 45.592 105.636 45.424 105.028 45.424C104.34 45.424 103.804 45.648 103.42 46.096C103.052 46.528 102.868 47.152 102.868 47.968V55H99.8438ZM124.024 55.336C123.176 55.336 122.416 55.192 121.744 54.904C121.072 54.6 120.536 54.168 120.136 53.608C119.752 53.032 119.56 52.336 119.56 51.52C119.56 50.704 119.752 50.024 120.136 49.48C120.536 48.92 121.08 48.504 121.768 48.232C122.472 47.944 123.272 47.8 124.168 47.8H127.432V47.128C127.432 46.568 127.256 46.112 126.904 45.76C126.552 45.392 125.992 45.208 125.224 45.208C124.472 45.208 123.912 45.384 123.544 45.736C123.176 46.072 122.936 46.512 122.824 47.056L120.04 46.12C120.232 45.512 120.536 44.96 120.952 44.464C121.384 43.952 121.952 43.544 122.656 43.24C123.376 42.92 124.248 42.76 125.272 42.76C126.84 42.76 128.08 43.152 128.992 43.936C129.904 44.72 130.36 45.856 130.36 47.344V51.784C130.36 52.264 130.584 52.504 131.032 52.504H131.992V55H129.976C129.384 55 128.896 54.856 128.512 54.568C128.128 54.28 127.936 53.896 127.936 53.416V53.392H127.48C127.416 53.584 127.272 53.84 127.048 54.16C126.824 54.464 126.472 54.736 125.992 54.976C125.512 55.216 124.856 55.336 124.024 55.336ZM124.552 52.888C125.4 52.888 126.088 52.656 126.616 52.192C127.16 51.712 127.432 51.08 127.432 50.296V50.056H124.384C123.824 50.056 123.384 50.176 123.064 50.416C122.744 50.656 122.584 50.992 122.584 51.424C122.584 51.856 122.752 52.208 123.088 52.48C123.424 52.752 123.912 52.888 124.552 52.888Z" fill="black"/>
<rect x="16.1638" y="15.5" width="136" height="62" rx="19.5" stroke="#F7F9FC"/>
</g>
<defs>
<filter id="filter0_ddi_376_5450" x="0.663818" y="0" width="169" height="95" filterUnits="userSpaceOnUse" color-interpolation-filters="sRGB">
<feFlood flood-opacity="0" result="BackgroundImageFix"/>
<feColorMatrix in="SourceAlpha" type="matrix" values="0 0 0 0 0 0 0 0 0 0 0 0 0 0 0 0 0 0 127 0" result="hardAlpha"/>
<feMorphology radius="5" operator="dilate" in="SourceAlpha" result="effect1_dropShadow_376_5450"/>
<feOffset dx="-5" dy="-5"/>
<feGaussianBlur stdDeviation="2.5"/>
<feColorMatrix type="matrix" values="0 0 0 0 1 0 0 0 0 1 0 0 0 0 1 0 0 0 0.4 0"/>
<feBlend mode="normal" in2="BackgroundImageFix" result="effect1_dropShadow_376_5450"/>
<feColorMatrix in="SourceAlpha" type="matrix" values="0 0 0 0 0 0 0 0 0 0 0 0 0 0 0 0 0 0 127 0" result="hardAlpha"/>
<feMorphology radius="2" operator="dilate" in="SourceAlpha" result="effect2_dropShadow_376_5450"/>
<feOffset dx="5" dy="5"/>
<feGaussianBlur stdDeviation="5"/>
<feComposite in2="hardAlpha" operator="out"/>
<feColorMatrix type="matrix" values="0 0 0 0 0.635294 0 0 0 0 0.705882 0 0 0 0 0.776471 0 0 0 0.12 0"/>
<feBlend mode="normal" in2="effect1_dropShadow_376_5450" result="effect2_dropShadow_376_5450"/>
<feBlend mode="normal" in="SourceGraphic" in2="effect2_dropShadow_376_5450" result="shape"/>
<feColorMatrix in="SourceAlpha" type="matrix" values="0 0 0 0 0 0 0 0 0 0 0 0 0 0 0 0 0 0 127 0" result="hardAlpha"/>
<feOffset dx="2" dy="2"/>
<feGaussianBlur stdDeviation="2"/>
<feComposite in2="hardAlpha" operator="arithmetic" k2="-1" k3="1"/>
<feColorMatrix type="matrix" values="0 0 0 0 1 0 0 0 0 1 0 0 0 0 1 0 0 0 0.5 0"/>
<feBlend mode="normal" in2="shape" result="effect3_innerShadow_376_5450"/>
</filter>
</defs>
</svg>
