<svg width="182" height="95" viewBox="0 0 182 95" fill="none" xmlns="http://www.w3.org/2000/svg">
<g filter="url(#filter0_ddi_376_5410)">
<path d="M40.1896 51.1185L35.5699 46.4988L50.5699 31.5H59.8081L40.1896 51.1185ZM59.8081 45.3408H50.5699L47.1094 48.8014L51.7291 53.421" fill="#42A5F5" fill-opacity="0.8"/>
<path d="M47.1094 58.0396L50.57 61.5001H59.8081L51.7291 53.4211" fill="#0D47A1"/>
<path d="M42.5007 53.4234L47.1131 48.8098L51.7255 53.4222L47.1131 58.0358L42.5007 53.4234Z" fill="#42A5F5"/>
<path d="M47.1131 58.0357L51.7255 53.4233L52.3693 54.0672L47.7569 58.6796L47.1131 58.0357Z" fill="url(#paint0_linear_376_5410)"/>
<path d="M47.1094 58.0396L53.9638 55.6716L51.7291 53.4199" fill="url(#paint1_linear_376_5410)"/>
<path d="M69.3921 55V38.2H79.9521V41.08H72.5601V45.136H79.3761V48.016H72.5601V55H69.3921ZM82.3084 55V38.2H85.3324V55H82.3084ZM93.2194 55.192C92.2914 55.192 91.4754 54.984 90.7714 54.568C90.0834 54.136 89.5474 53.544 89.1634 52.792C88.7794 52.04 88.5874 51.176 88.5874 50.2V43.096H91.6114V49.96C91.6114 50.856 91.8274 51.528 92.2594 51.976C92.7074 52.424 93.3394 52.648 94.1554 52.648C95.0834 52.648 95.8034 52.344 96.3154 51.736C96.8274 51.112 97.0834 50.248 97.0834 49.144V43.096H100.107V55H97.1314V53.44H96.6994C96.5074 53.84 96.1474 54.232 95.6194 54.616C95.0914 55 94.2914 55.192 93.2194 55.192ZM108.032 55C107.248 55 106.608 54.76 106.112 54.28C105.632 53.784 105.392 53.128 105.392 52.312V45.592H102.416V43.096H105.392V39.4H108.416V43.096H110.96V45.592H108.416V51.784C108.416 52.264 108.64 52.504 109.088 52.504H111.392V55H108.032ZM115.856 55C115.072 55 114.432 54.76 113.936 54.28C113.456 53.784 113.216 53.128 113.216 52.312V45.592H110.96V43.096H113.216V39.4H116.24V43.096H119.504V45.592H116.24V51.784C116.24 52.264 116.464 52.504 116.912 52.504H119.216V55H115.856ZM127.67 55.336C126.486 55.336 125.438 55.088 124.526 54.592C123.63 54.08 122.926 53.368 122.414 52.456C121.918 51.528 121.67 50.44 121.67 49.192V48.904C121.67 47.656 121.918 46.576 122.414 45.664C122.91 44.736 123.606 44.024 124.502 43.528C125.398 43.016 126.438 42.76 127.622 42.76C128.79 42.76 129.806 43.024 130.67 43.552C131.534 44.064 132.206 44.784 132.686 45.712C133.166 46.624 133.406 47.688 133.406 48.904V49.936H124.742C124.774 50.752 125.078 51.416 125.654 51.928C126.23 52.44 126.934 52.696 127.766 52.696C128.614 52.696 129.238 52.512 129.638 52.144C130.038 51.776 130.342 51.368 130.55 50.92L133.022 52.216C132.798 52.632 132.47 53.088 132.038 53.584C131.622 54.064 131.062 54.48 130.358 54.832C129.654 55.168 128.758 55.336 127.67 55.336ZM124.766 47.68H130.334C130.27 46.992 129.99 46.44 129.494 46.024C129.014 45.608 128.382 45.4 127.598 45.4C126.782 45.4 126.134 45.608 125.654 46.024C125.174 46.44 124.878 46.992 124.766 47.68ZM136.097 55V43.096H139.073V44.44H139.505C139.681 43.96 139.969 43.608 140.369 43.384C140.785 43.16 141.265 43.048 141.809 43.048H143.249V45.736H141.761C140.993 45.736 140.361 45.944 139.865 46.36C139.369 46.76 139.121 47.384 139.121 48.232V55H136.097Z" fill="black"/>
<rect x="16.0699" y="15.5" width="148.238" height="62" rx="19.5" stroke="#F7F9FC"/>
</g>
<defs>
<filter id="filter0_ddi_376_5410" x="0.569946" y="0" width="181.238" height="95" filterUnits="userSpaceOnUse" color-interpolation-filters="sRGB">
<feFlood flood-opacity="0" result="BackgroundImageFix"/>
<feColorMatrix in="SourceAlpha" type="matrix" values="0 0 0 0 0 0 0 0 0 0 0 0 0 0 0 0 0 0 127 0" result="hardAlpha"/>
<feMorphology radius="5" operator="dilate" in="SourceAlpha" result="effect1_dropShadow_376_5410"/>
<feOffset dx="-5" dy="-5"/>
<feGaussianBlur stdDeviation="2.5"/>
<feColorMatrix type="matrix" values="0 0 0 0 1 0 0 0 0 1 0 0 0 0 1 0 0 0 0.4 0"/>
<feBlend mode="normal" in2="BackgroundImageFix" result="effect1_dropShadow_376_5410"/>
<feColorMatrix in="SourceAlpha" type="matrix" values="0 0 0 0 0 0 0 0 0 0 0 0 0 0 0 0 0 0 127 0" result="hardAlpha"/>
<feMorphology radius="2" operator="dilate" in="SourceAlpha" result="effect2_dropShadow_376_5410"/>
<feOffset dx="5" dy="5"/>
<feGaussianBlur stdDeviation="5"/>
<feComposite in2="hardAlpha" operator="out"/>
<feColorMatrix type="matrix" values="0 0 0 0 0.635294 0 0 0 0 0.705882 0 0 0 0 0.776471 0 0 0 0.12 0"/>
<feBlend mode="normal" in2="effect1_dropShadow_376_5410" result="effect2_dropShadow_376_5410"/>
<feBlend mode="normal" in="SourceGraphic" in2="effect2_dropShadow_376_5410" result="shape"/>
<feColorMatrix in="SourceAlpha" type="matrix" values="0 0 0 0 0 0 0 0 0 0 0 0 0 0 0 0 0 0 127 0" result="hardAlpha"/>
<feOffset dx="2" dy="2"/>
<feGaussianBlur stdDeviation="2"/>
<feComposite in2="hardAlpha" operator="arithmetic" k2="-1" k3="1"/>
<feColorMatrix type="matrix" values="0 0 0 0 1 0 0 0 0 1 0 0 0 0 1 0 0 0 0.5 0"/>
<feBlend mode="normal" in2="shape" result="effect3_innerShadow_376_5410"/>
</filter>
<linearGradient id="paint0_linear_376_5410" x1="49.4201" y1="55.7287" x2="50.064" y2="56.3726" gradientUnits="userSpaceOnUse">
<stop offset="0.2" stop-opacity="0.15"/>
<stop offset="0.85" stop-color="#616161" stop-opacity="0.01"/>
</linearGradient>
<linearGradient id="paint1_linear_376_5410" x1="47.1111" y1="55.7299" x2="53.9653" y2="55.7299" gradientUnits="userSpaceOnUse">
<stop offset="0.2" stop-opacity="0.55"/>
<stop offset="0.85" stop-color="#616161" stop-opacity="0.01"/>
</linearGradient>
</defs>
</svg>
