<svg width="192" height="94" viewBox="0 0 192 94" fill="none" xmlns="http://www.w3.org/2000/svg">
<g filter="url(#filter0_ddi_376_5434)">
<path d="M50.7159 31.5C42.223 31.5 35.3362 38.3856 35.3362 46.8797C35.3362 53.675 39.7429 59.4399 45.8538 61.4736C46.6224 61.6159 46.9047 61.1399 46.9047 60.7337C46.9047 60.367 46.8903 59.1554 46.8838 57.8703C42.605 58.8006 41.7022 56.0557 41.7022 56.0557C41.0026 54.278 39.9945 53.8054 39.9945 53.8054C38.5992 52.8508 40.0997 52.8703 40.0997 52.8703C41.6442 52.9789 42.4574 54.4553 42.4574 54.4553C43.8291 56.8065 46.0552 56.1267 46.9329 55.7339C47.0709 54.7397 47.4695 54.0613 47.9093 53.6773C44.4933 53.2883 40.9022 51.9695 40.9022 46.0765C40.9022 44.3975 41.503 43.0254 42.4869 41.9484C42.3272 41.561 41.8008 39.9967 42.6359 37.8783C42.6359 37.8783 43.9274 37.4649 46.8664 39.4548C48.0931 39.1139 49.4089 38.9431 50.7159 38.9373C52.0229 38.9431 53.3396 39.1139 54.5688 39.4548C57.5043 37.4649 58.794 37.8783 58.794 37.8783C59.6311 39.9967 59.1044 41.561 58.9447 41.9484C59.9308 43.0254 60.5275 44.3973 60.5275 46.0765C60.5275 51.9835 56.9297 53.2843 53.505 53.665C54.0566 54.1423 54.5481 55.0783 54.5481 56.5131C54.5481 58.5709 54.5303 60.2271 54.5303 60.7337C54.5303 61.143 54.8071 61.6225 55.5868 61.4715C61.6943 59.4356 66.0955 53.6727 66.0955 46.8797C66.0955 38.3856 59.2096 31.5 50.7159 31.5Z" fill="#161614"/>
<path d="M41.0964 53.4087C41.0626 53.4851 40.9422 53.508 40.8328 53.4557C40.7212 53.4055 40.6585 53.3013 40.6947 53.2246C40.7279 53.1459 40.8483 53.124 40.9596 53.1768C41.0714 53.2269 41.1351 53.332 41.0964 53.4087V53.4087ZM41.8529 54.0837C41.7796 54.1518 41.6362 54.1202 41.5388 54.0127C41.4382 53.9055 41.4194 53.7622 41.4938 53.6931C41.5694 53.6251 41.7085 53.6569 41.8094 53.7642C41.91 53.8727 41.9295 54.0151 41.8528 54.0839L41.8529 54.0837ZM42.3719 54.9474C42.2776 55.0129 42.1235 54.9515 42.0283 54.8147C41.9341 54.678 41.9341 54.514 42.0303 54.4483C42.1259 54.3825 42.2776 54.4416 42.3741 54.5773C42.4682 54.7164 42.4682 54.8804 42.3718 54.9475L42.3719 54.9474ZM43.2496 55.9477C43.1653 56.0406 42.9858 56.0157 42.8543 55.8888C42.7199 55.7648 42.6824 55.5888 42.767 55.4958C42.8522 55.4027 43.0328 55.4289 43.1653 55.5547C43.2988 55.6785 43.3396 55.8558 43.2497 55.9477H43.2496ZM44.3839 56.2854C44.3469 56.4058 44.1739 56.4606 43.9997 56.4094C43.8258 56.3567 43.7119 56.2156 43.747 56.0939C43.7832 55.9727 43.9569 55.9156 44.1324 55.9704C44.3061 56.0228 44.4202 56.1629 44.384 56.2854H44.3839ZM45.675 56.4286C45.6794 56.5555 45.5316 56.6607 45.3487 56.663C45.1648 56.667 45.0161 56.5643 45.0141 56.4396C45.0141 56.3115 45.1585 56.2073 45.3423 56.2042C45.5252 56.2006 45.675 56.3026 45.675 56.4286V56.4286ZM46.9432 56.38C46.9652 56.5037 46.838 56.6309 46.6565 56.6647C46.478 56.6972 46.3127 56.6209 46.2899 56.4982C46.2677 56.3713 46.3973 56.2443 46.5754 56.2114C46.7573 56.1798 46.9201 56.2542 46.9432 56.38" fill="#161614"/>
<path d="M81.4875 55.336C80.3355 55.336 79.2875 55.08 78.3435 54.568C77.4155 54.04 76.6715 53.28 76.1115 52.288C75.5675 51.28 75.2955 50.056 75.2955 48.616V44.584C75.2955 42.424 75.9035 40.768 77.1195 39.616C78.3355 38.448 79.9835 37.864 82.0635 37.864C84.1275 37.864 85.7195 38.416 86.8395 39.52C87.9755 40.608 88.5435 42.088 88.5435 43.96V44.056H85.4235V43.864C85.4235 43.272 85.2955 42.736 85.0395 42.256C84.7995 41.776 84.4315 41.4 83.9355 41.128C83.4395 40.84 82.8155 40.696 82.0635 40.696C80.9435 40.696 80.0635 41.04 79.4235 41.728C78.7835 42.416 78.4635 43.352 78.4635 44.536V48.664C78.4635 49.832 78.7835 50.776 79.4235 51.496C80.0635 52.2 80.9595 52.552 82.1115 52.552C83.2635 52.552 84.1035 52.248 84.6315 51.64C85.1595 51.032 85.4235 50.264 85.4235 49.336V49.096H81.4395V46.408H88.5435V55H85.6155V53.392H85.1835C85.0715 53.664 84.8875 53.952 84.6315 54.256C84.3915 54.56 84.0235 54.816 83.5275 55.024C83.0315 55.232 82.3515 55.336 81.4875 55.336ZM91.6661 55V43.096H94.6901V55H91.6661ZM93.1781 41.704C92.6341 41.704 92.1701 41.528 91.7861 41.176C91.4181 40.824 91.2341 40.36 91.2341 39.784C91.2341 39.208 91.4181 38.744 91.7861 38.392C92.1701 38.04 92.6341 37.864 93.1781 37.864C93.7381 37.864 94.2021 38.04 94.5701 38.392C94.9381 38.744 95.1221 39.208 95.1221 39.784C95.1221 40.36 94.9381 40.824 94.5701 41.176C94.2021 41.528 93.7381 41.704 93.1781 41.704ZM102.601 55C101.817 55 101.177 54.76 100.681 54.28C100.201 53.784 99.9611 53.128 99.9611 52.312V45.592H96.9851V43.096H99.9611V39.4H102.985V43.096H106.249V45.592H102.985V51.784C102.985 52.264 103.209 52.504 103.657 52.504H105.961V55H102.601ZM108.89 55V38.2H112.058V45.136H118.298V38.2H121.466V55H118.298V48.016H112.058V55H108.89ZM129.272 55.192C128.344 55.192 127.528 54.984 126.824 54.568C126.136 54.136 125.6 53.544 125.216 52.792C124.832 52.04 124.64 51.176 124.64 50.2V43.096H127.664V49.96C127.664 50.856 127.88 51.528 128.312 51.976C128.76 52.424 129.392 52.648 130.208 52.648C131.136 52.648 131.856 52.344 132.368 51.736C132.88 51.112 133.136 50.248 133.136 49.144V43.096H136.16V55H133.184V53.44H132.752C132.56 53.84 132.2 54.232 131.672 54.616C131.144 55 130.344 55.192 129.272 55.192ZM146.677 55.336C145.605 55.336 144.781 55.152 144.205 54.784C143.629 54.416 143.205 54.008 142.933 53.56H142.501V55H139.525V38.2H142.549V44.464H142.981C143.157 44.176 143.389 43.904 143.677 43.648C143.981 43.392 144.373 43.184 144.853 43.024C145.349 42.848 145.957 42.76 146.677 42.76C147.637 42.76 148.525 43 149.341 43.48C150.157 43.944 150.813 44.632 151.309 45.544C151.805 46.456 152.053 47.56 152.053 48.856V49.24C152.053 50.536 151.805 51.64 151.309 52.552C150.813 53.464 150.157 54.16 149.341 54.64C148.525 55.104 147.637 55.336 146.677 55.336ZM145.765 52.696C146.693 52.696 147.469 52.4 148.093 51.808C148.717 51.2 149.029 50.32 149.029 49.168V48.928C149.029 47.776 148.717 46.904 148.093 46.312C147.485 45.704 146.709 45.4 145.765 45.4C144.837 45.4 144.061 45.704 143.437 46.312C142.813 46.904 142.501 47.776 142.501 48.928V49.168C142.501 50.32 142.813 51.2 143.437 51.808C144.061 52.4 144.837 52.696 145.765 52.696Z" fill="black"/>
<rect x="15.8362" y="15.5" width="157.759" height="62" rx="19.5" stroke="#F7F9FC"/>
</g>
<defs>
<filter id="filter0_ddi_376_5434" x="0.336182" y="0" width="190.759" height="95" filterUnits="userSpaceOnUse" color-interpolation-filters="sRGB">
<feFlood flood-opacity="0" result="BackgroundImageFix"/>
<feColorMatrix in="SourceAlpha" type="matrix" values="0 0 0 0 0 0 0 0 0 0 0 0 0 0 0 0 0 0 127 0" result="hardAlpha"/>
<feMorphology radius="5" operator="dilate" in="SourceAlpha" result="effect1_dropShadow_376_5434"/>
<feOffset dx="-5" dy="-5"/>
<feGaussianBlur stdDeviation="2.5"/>
<feColorMatrix type="matrix" values="0 0 0 0 1 0 0 0 0 1 0 0 0 0 1 0 0 0 0.4 0"/>
<feBlend mode="normal" in2="BackgroundImageFix" result="effect1_dropShadow_376_5434"/>
<feColorMatrix in="SourceAlpha" type="matrix" values="0 0 0 0 0 0 0 0 0 0 0 0 0 0 0 0 0 0 127 0" result="hardAlpha"/>
<feMorphology radius="2" operator="dilate" in="SourceAlpha" result="effect2_dropShadow_376_5434"/>
<feOffset dx="5" dy="5"/>
<feGaussianBlur stdDeviation="5"/>
<feComposite in2="hardAlpha" operator="out"/>
<feColorMatrix type="matrix" values="0 0 0 0 0.635294 0 0 0 0 0.705882 0 0 0 0 0.776471 0 0 0 0.12 0"/>
<feBlend mode="normal" in2="effect1_dropShadow_376_5434" result="effect2_dropShadow_376_5434"/>
<feBlend mode="normal" in="SourceGraphic" in2="effect2_dropShadow_376_5434" result="shape"/>
<feColorMatrix in="SourceAlpha" type="matrix" values="0 0 0 0 0 0 0 0 0 0 0 0 0 0 0 0 0 0 127 0" result="hardAlpha"/>
<feOffset dx="2" dy="2"/>
<feGaussianBlur stdDeviation="2"/>
<feComposite in2="hardAlpha" operator="arithmetic" k2="-1" k3="1"/>
<feColorMatrix type="matrix" values="0 0 0 0 1 0 0 0 0 1 0 0 0 0 1 0 0 0 0.5 0"/>
<feBlend mode="normal" in2="shape" result="effect3_innerShadow_376_5434"/>
</filter>
</defs>
</svg>
