<svg width="164" height="95" viewBox="0 0 164 95" fill="none" xmlns="http://www.w3.org/2000/svg">
<g filter="url(#filter0_ddi_105_826)">
<path d="M29.044 58.5102L26.6426 31.5H53.0426L50.6413 58.4956L39.8208 61.5" fill="#E44D26"/>
<path d="M39.8426 59.0999V33.8999H50.6426L48.5816 56.6844" fill="#F16529"/>
<path d="M31.4426 36.8999H39.8426V40.1818H35.1121L35.4216 43.5433H39.8426V46.818H32.3563L31.4426 36.8999ZM32.5037 48.4662H35.8637L36.0995 51.0903L39.8426 52.0734V55.4999L32.9753 53.6204" fill="#EBEBEB"/>
<path d="M48.2426 36.8999H39.8426V40.1844H47.9326L48.2426 36.8999ZM47.6299 43.5484H39.8426V46.8329H43.9762L43.5849 51.1013L39.8426 52.0852V55.4999L46.7073 53.6334" fill="#F7F9FC"/>
<path d="M62.6266 55V38.2H65.7946V45.136H72.0346V38.2H75.2026V55H72.0346V48.016H65.7946V55H62.6266ZM82.2646 55V41.08H77.3686V38.2H90.3286V41.08H85.4326V55H82.2646ZM92.486 55V38.2H98.366L101.27 52.84H101.702L104.606 38.2H110.486V55H107.414V40.528H106.982L104.102 55H98.87L95.99 40.528H95.558V55H92.486ZM113.65 55V38.2H116.818V52.12H124.498V55H113.65Z" fill="black"/>
<rect x="7.14264" y="15.5" width="138.4" height="62" rx="19.5" stroke="#F7F9FC"/>
</g>
<defs>
<filter id="filter0_ddi_105_826" x="-8.35736" y="0" width="171.4" height="95" filterUnits="userSpaceOnUse" color-interpolation-filters="sRGB">
<feFlood flood-opacity="0" result="BackgroundImageFix"/>
<feColorMatrix in="SourceAlpha" type="matrix" values="0 0 0 0 0 0 0 0 0 0 0 0 0 0 0 0 0 0 127 0" result="hardAlpha"/>
<feMorphology radius="5" operator="dilate" in="SourceAlpha" result="effect1_dropShadow_105_826"/>
<feOffset dx="-5" dy="-5"/>
<feGaussianBlur stdDeviation="2.5"/>
<feColorMatrix type="matrix" values="0 0 0 0 1 0 0 0 0 1 0 0 0 0 1 0 0 0 0.4 0"/>
<feBlend mode="normal" in2="BackgroundImageFix" result="effect1_dropShadow_105_826"/>
<feColorMatrix in="SourceAlpha" type="matrix" values="0 0 0 0 0 0 0 0 0 0 0 0 0 0 0 0 0 0 127 0" result="hardAlpha"/>
<feMorphology radius="2" operator="dilate" in="SourceAlpha" result="effect2_dropShadow_105_826"/>
<feOffset dx="5" dy="5"/>
<feGaussianBlur stdDeviation="5"/>
<feComposite in2="hardAlpha" operator="out"/>
<feColorMatrix type="matrix" values="0 0 0 0 0.635294 0 0 0 0 0.705882 0 0 0 0 0.776471 0 0 0 0.12 0"/>
<feBlend mode="normal" in2="effect1_dropShadow_105_826" result="effect2_dropShadow_105_826"/>
<feBlend mode="normal" in="SourceGraphic" in2="effect2_dropShadow_105_826" result="shape"/>
<feColorMatrix in="SourceAlpha" type="matrix" values="0 0 0 0 0 0 0 0 0 0 0 0 0 0 0 0 0 0 127 0" result="hardAlpha"/>
<feOffset dx="2" dy="2"/>
<feGaussianBlur stdDeviation="2"/>
<feComposite in2="hardAlpha" operator="arithmetic" k2="-1" k3="1"/>
<feColorMatrix type="matrix" values="0 0 0 0 1 0 0 0 0 1 0 0 0 0 1 0 0 0 0.5 0"/>
<feBlend mode="normal" in2="shape" result="effect3_innerShadow_105_826"/>
</filter>
</defs>
</svg>
