<svg width="157" height="95" viewBox="0 0 157 95" fill="none" xmlns="http://www.w3.org/2000/svg">
<g filter="url(#filter0_ddi_376_5361)">
<path d="M42.3361 54.7008C42.3361 54.7008 41.1897 55.3674 43.152 55.593C45.5292 55.8642 46.7442 55.8254 49.364 55.3295C49.364 55.3295 50.0528 55.7614 51.0146 56.1355C45.1418 58.6524 37.7232 55.9896 42.3361 54.7008V54.7008ZM41.6184 51.4163C41.6184 51.4163 40.3326 52.3681 42.2964 52.5712C44.8358 52.8331 46.8413 52.8546 50.3115 52.1864C50.3115 52.1864 50.7915 52.673 51.5463 52.9391C44.4457 55.0154 36.5369 53.1028 41.6184 51.4163" fill="#5382A1"/>
<path d="M47.6683 45.8446C49.1154 47.5105 47.2881 49.0098 47.2881 49.0098C47.2881 49.0098 50.9624 47.113 49.2749 44.7377C47.699 42.5227 46.4903 41.422 53.0332 37.6274C53.0332 37.6274 42.763 40.1924 47.6683 45.8445" fill="#E76F00"/>
<path d="M55.4355 57.1301C55.4355 57.1301 56.2839 57.829 54.5012 58.3698C51.1113 59.3968 40.3922 59.7069 37.4145 58.4108C36.3441 57.9452 38.3514 57.2989 38.9828 57.1633C39.6413 57.0205 40.0177 57.0471 40.0177 57.0471C38.8272 56.2085 32.3233 58.6937 36.714 59.4054C48.688 61.3473 58.5414 58.5311 55.4355 57.1301ZM42.8873 48.013C42.8873 48.013 37.435 49.3081 40.9565 49.7782C42.4434 49.9773 45.4075 49.9323 48.1686 49.7009C50.425 49.5107 52.6908 49.1059 52.6908 49.1059C52.6908 49.1059 51.8952 49.4467 51.3195 49.8397C45.7827 51.296 35.0865 50.6185 38.1658 49.129C40.77 47.8702 42.8874 48.013 42.8874 48.013H42.8873ZM52.6683 53.4802C58.2969 50.5554 55.6944 47.7447 53.878 48.1235C53.4328 48.2161 53.2343 48.2963 53.2343 48.2963C53.2343 48.2963 53.3996 48.0375 53.7152 47.9254C57.3087 46.662 60.0723 51.6515 52.5552 53.6276C52.5552 53.6277 52.6423 53.5498 52.6683 53.4802" fill="#5382A1"/>
<path d="M49.2749 31.5001C49.2749 31.5001 52.3921 34.6184 46.3185 39.4132C41.4481 43.2595 45.2079 45.4526 46.3165 47.9583C43.4735 45.3933 41.3871 43.1352 42.7869 41.0337C44.8412 37.9487 50.5326 36.4531 49.2749 31.5" fill="#E76F00"/>
<path d="M43.4404 61.4057C48.8431 61.7516 57.1394 61.2138 57.3359 58.6575C57.3359 58.6575 56.9582 59.6267 52.8709 60.3962C48.2596 61.264 42.5723 61.1627 39.1991 60.6065C39.1992 60.6065 39.8896 61.1781 43.4405 61.4057" fill="#5382A1"/>
<path d="M71.7439 55.336C70.0159 55.336 68.6399 54.864 67.6159 53.92C66.6079 52.976 66.1039 51.656 66.1039 49.96V48.376H69.2719V49.96C69.2719 50.712 69.4799 51.304 69.8959 51.736C70.3119 52.152 70.8959 52.36 71.6479 52.36C72.3519 52.36 72.8959 52.152 73.2799 51.736C73.6799 51.32 73.8799 50.728 73.8799 49.96V41.08H70.9999V38.2H78.9679V41.08H77.0479V49.96C77.0479 51.704 76.5759 53.04 75.6319 53.968C74.6879 54.88 73.3919 55.336 71.7439 55.336ZM84.54 55.336C83.692 55.336 82.932 55.192 82.26 54.904C81.588 54.6 81.052 54.168 80.652 53.608C80.268 53.032 80.076 52.336 80.076 51.52C80.076 50.704 80.268 50.024 80.652 49.48C81.052 48.92 81.596 48.504 82.284 48.232C82.988 47.944 83.788 47.8 84.684 47.8H87.948V47.128C87.948 46.568 87.772 46.112 87.42 45.76C87.068 45.392 86.508 45.208 85.74 45.208C84.988 45.208 84.428 45.384 84.06 45.736C83.692 46.072 83.452 46.512 83.34 47.056L80.556 46.12C80.748 45.512 81.052 44.96 81.468 44.464C81.9 43.952 82.468 43.544 83.172 43.24C83.892 42.92 84.764 42.76 85.788 42.76C87.356 42.76 88.596 43.152 89.508 43.936C90.42 44.72 90.876 45.856 90.876 47.344V51.784C90.876 52.264 91.1 52.504 91.548 52.504H92.508V55H90.492C89.9 55 89.412 54.856 89.028 54.568C88.644 54.28 88.452 53.896 88.452 53.416V53.392H87.996C87.932 53.584 87.788 53.84 87.564 54.16C87.34 54.464 86.988 54.736 86.508 54.976C86.028 55.216 85.372 55.336 84.54 55.336ZM85.068 52.888C85.916 52.888 86.604 52.656 87.132 52.192C87.676 51.712 87.948 51.08 87.948 50.296V50.056H84.9C84.34 50.056 83.9 50.176 83.58 50.416C83.26 50.656 83.1 50.992 83.1 51.424C83.1 51.856 83.268 52.208 83.604 52.48C83.94 52.752 84.428 52.888 85.068 52.888ZM96.5353 55L92.7433 43.096H95.9593L98.7193 52.792H99.1513L101.911 43.096H105.127L101.335 55H96.5353ZM110.603 55.336C109.755 55.336 108.995 55.192 108.323 54.904C107.651 54.6 107.115 54.168 106.715 53.608C106.331 53.032 106.139 52.336 106.139 51.52C106.139 50.704 106.331 50.024 106.715 49.48C107.115 48.92 107.659 48.504 108.347 48.232C109.051 47.944 109.851 47.8 110.747 47.8H114.011V47.128C114.011 46.568 113.835 46.112 113.483 45.76C113.131 45.392 112.571 45.208 111.803 45.208C111.051 45.208 110.491 45.384 110.123 45.736C109.755 46.072 109.515 46.512 109.403 47.056L106.619 46.12C106.811 45.512 107.115 44.96 107.531 44.464C107.963 43.952 108.531 43.544 109.235 43.24C109.955 42.92 110.827 42.76 111.851 42.76C113.419 42.76 114.659 43.152 115.571 43.936C116.483 44.72 116.939 45.856 116.939 47.344V51.784C116.939 52.264 117.163 52.504 117.611 52.504H118.571V55H116.555C115.963 55 115.475 54.856 115.091 54.568C114.707 54.28 114.515 53.896 114.515 53.416V53.392H114.059C113.995 53.584 113.851 53.84 113.627 54.16C113.403 54.464 113.051 54.736 112.571 54.976C112.091 55.216 111.435 55.336 110.603 55.336ZM111.131 52.888C111.979 52.888 112.667 52.656 113.195 52.192C113.739 51.712 114.011 51.08 114.011 50.296V50.056H110.963C110.403 50.056 109.963 50.176 109.643 50.416C109.323 50.656 109.163 50.992 109.163 51.424C109.163 51.856 109.331 52.208 109.667 52.48C110.003 52.752 110.491 52.888 111.131 52.888Z" fill="black"/>
<rect x="15.7103" y="15.5" width="123.126" height="62" rx="19.5" stroke="#F7F9FC"/>
</g>
<defs>
<filter id="filter0_ddi_376_5361" x="0.210266" y="0" width="156.126" height="95" filterUnits="userSpaceOnUse" color-interpolation-filters="sRGB">
<feFlood flood-opacity="0" result="BackgroundImageFix"/>
<feColorMatrix in="SourceAlpha" type="matrix" values="0 0 0 0 0 0 0 0 0 0 0 0 0 0 0 0 0 0 127 0" result="hardAlpha"/>
<feMorphology radius="5" operator="dilate" in="SourceAlpha" result="effect1_dropShadow_376_5361"/>
<feOffset dx="-5" dy="-5"/>
<feGaussianBlur stdDeviation="2.5"/>
<feColorMatrix type="matrix" values="0 0 0 0 1 0 0 0 0 1 0 0 0 0 1 0 0 0 0.4 0"/>
<feBlend mode="normal" in2="BackgroundImageFix" result="effect1_dropShadow_376_5361"/>
<feColorMatrix in="SourceAlpha" type="matrix" values="0 0 0 0 0 0 0 0 0 0 0 0 0 0 0 0 0 0 127 0" result="hardAlpha"/>
<feMorphology radius="2" operator="dilate" in="SourceAlpha" result="effect2_dropShadow_376_5361"/>
<feOffset dx="5" dy="5"/>
<feGaussianBlur stdDeviation="5"/>
<feComposite in2="hardAlpha" operator="out"/>
<feColorMatrix type="matrix" values="0 0 0 0 0.635294 0 0 0 0 0.705882 0 0 0 0 0.776471 0 0 0 0.12 0"/>
<feBlend mode="normal" in2="effect1_dropShadow_376_5361" result="effect2_dropShadow_376_5361"/>
<feBlend mode="normal" in="SourceGraphic" in2="effect2_dropShadow_376_5361" result="shape"/>
<feColorMatrix in="SourceAlpha" type="matrix" values="0 0 0 0 0 0 0 0 0 0 0 0 0 0 0 0 0 0 127 0" result="hardAlpha"/>
<feOffset dx="2" dy="2"/>
<feGaussianBlur stdDeviation="2"/>
<feComposite in2="hardAlpha" operator="arithmetic" k2="-1" k3="1"/>
<feColorMatrix type="matrix" values="0 0 0 0 1 0 0 0 0 1 0 0 0 0 1 0 0 0 0.5 0"/>
<feBlend mode="normal" in2="shape" result="effect3_innerShadow_376_5361"/>
</filter>
</defs>
</svg>
