<svg width="236" height="95" viewBox="0 0 236 95" fill="none" xmlns="http://www.w3.org/2000/svg">
<g filter="url(#filter0_ddi_105_845)">
<path d="M65.4983 31.5H35.4983V61.5H65.4983V31.5Z" fill="#F7DF1E"/>
<path d="M55.6507 54.9376C56.2549 55.9242 57.0411 56.6495 58.4316 56.6495C59.5997 56.6495 60.3459 56.0657 60.3459 55.259C60.3459 54.2923 59.5792 53.95 58.2935 53.3876L57.5888 53.0852C55.5545 52.2185 54.203 51.1328 54.203 48.8376C54.203 46.7233 55.814 45.1138 58.3316 45.1138C60.124 45.1138 61.4126 45.7376 62.3411 47.3709L60.1459 48.7804C59.6626 47.9138 59.1411 47.5723 58.3316 47.5723C57.5059 47.5723 56.9826 48.0962 56.9826 48.7804C56.9826 49.6262 57.5064 49.9685 58.7159 50.4923L59.4207 50.7942C61.8159 51.8214 63.1683 52.8685 63.1683 55.2228C63.1683 57.7609 61.1745 59.1514 58.4968 59.1514C55.8788 59.1514 54.1873 57.9038 53.3597 56.2685L55.6507 54.9376ZM45.6921 55.1819C46.1349 55.9676 46.5378 56.6319 47.5064 56.6319C48.4326 56.6319 49.0168 56.2695 49.0168 54.8604V45.2747H51.8359V54.8985C51.8359 57.8176 50.1245 59.1462 47.6264 59.1462C45.3692 59.1462 44.0621 57.9781 43.3973 56.5711L45.6921 55.1819Z" fill="black"/>
<path d="M79.9063 55.336C78.1783 55.336 76.8023 54.864 75.7783 53.92C74.7703 52.976 74.2663 51.656 74.2663 49.96V48.376H77.4343V49.96C77.4343 50.712 77.6423 51.304 78.0583 51.736C78.4743 52.152 79.0583 52.36 79.8103 52.36C80.5143 52.36 81.0583 52.152 81.4423 51.736C81.8423 51.32 82.0423 50.728 82.0423 49.96V41.08H79.1623V38.2H87.1303V41.08H85.2103V49.96C85.2103 51.704 84.7383 53.04 83.7943 53.968C82.8503 54.88 81.5543 55.336 79.9063 55.336ZM92.7024 55.336C91.8544 55.336 91.0944 55.192 90.4224 54.904C89.7504 54.6 89.2144 54.168 88.8144 53.608C88.4304 53.032 88.2384 52.336 88.2384 51.52C88.2384 50.704 88.4304 50.024 88.8144 49.48C89.2144 48.92 89.7584 48.504 90.4464 48.232C91.1504 47.944 91.9504 47.8 92.8464 47.8H96.1104V47.128C96.1104 46.568 95.9344 46.112 95.5824 45.76C95.2304 45.392 94.6704 45.208 93.9024 45.208C93.1504 45.208 92.5904 45.384 92.2224 45.736C91.8544 46.072 91.6144 46.512 91.5024 47.056L88.7184 46.12C88.9104 45.512 89.2144 44.96 89.6304 44.464C90.0624 43.952 90.6304 43.544 91.3344 43.24C92.0544 42.92 92.9264 42.76 93.9504 42.76C95.5184 42.76 96.7584 43.152 97.6704 43.936C98.5824 44.72 99.0384 45.856 99.0384 47.344V51.784C99.0384 52.264 99.2624 52.504 99.7104 52.504H100.67V55H98.6544C98.0624 55 97.5744 54.856 97.1904 54.568C96.8064 54.28 96.6144 53.896 96.6144 53.416V53.392H96.1584C96.0944 53.584 95.9504 53.84 95.7264 54.16C95.5024 54.464 95.1504 54.736 94.6704 54.976C94.1904 55.216 93.5344 55.336 92.7024 55.336ZM93.2304 52.888C94.0784 52.888 94.7664 52.656 95.2944 52.192C95.8384 51.712 96.1104 51.08 96.1104 50.296V50.056H93.0624C92.5024 50.056 92.0624 50.176 91.7424 50.416C91.4224 50.656 91.2624 50.992 91.2624 51.424C91.2624 51.856 91.4304 52.208 91.7664 52.48C92.1024 52.752 92.5904 52.888 93.2304 52.888ZM104.698 55L100.906 43.096H104.122L106.882 52.792H107.314L110.074 43.096H113.29L109.498 55H104.698ZM118.765 55.336C117.917 55.336 117.157 55.192 116.485 54.904C115.813 54.6 115.277 54.168 114.877 53.608C114.493 53.032 114.301 52.336 114.301 51.52C114.301 50.704 114.493 50.024 114.877 49.48C115.277 48.92 115.821 48.504 116.509 48.232C117.213 47.944 118.013 47.8 118.909 47.8H122.173V47.128C122.173 46.568 121.997 46.112 121.645 45.76C121.293 45.392 120.733 45.208 119.965 45.208C119.213 45.208 118.653 45.384 118.285 45.736C117.917 46.072 117.677 46.512 117.565 47.056L114.781 46.12C114.973 45.512 115.277 44.96 115.693 44.464C116.125 43.952 116.693 43.544 117.397 43.24C118.117 42.92 118.989 42.76 120.013 42.76C121.581 42.76 122.821 43.152 123.733 43.936C124.645 44.72 125.101 45.856 125.101 47.344V51.784C125.101 52.264 125.325 52.504 125.773 52.504H126.733V55H124.717C124.125 55 123.637 54.856 123.253 54.568C122.869 54.28 122.677 53.896 122.677 53.416V53.392H122.221C122.157 53.584 122.013 53.84 121.789 54.16C121.565 54.464 121.213 54.736 120.733 54.976C120.253 55.216 119.597 55.336 118.765 55.336ZM119.293 52.888C120.141 52.888 120.829 52.656 121.357 52.192C121.901 51.712 122.173 51.08 122.173 50.296V50.056H119.125C118.565 50.056 118.125 50.176 117.805 50.416C117.485 50.656 117.325 50.992 117.325 51.424C117.325 51.856 117.493 52.208 117.829 52.48C118.165 52.752 118.653 52.888 119.293 52.888ZM134.68 55.336C133.384 55.336 132.24 55.104 131.248 54.64C130.256 54.176 129.48 53.512 128.92 52.648C128.36 51.784 128.08 50.744 128.08 49.528V48.856H131.2V49.528C131.2 50.536 131.512 51.296 132.136 51.808C132.76 52.304 133.608 52.552 134.68 52.552C135.768 52.552 136.576 52.336 137.104 51.904C137.648 51.472 137.92 50.92 137.92 50.248C137.92 49.784 137.784 49.408 137.512 49.12C137.256 48.832 136.872 48.6 136.36 48.424C135.864 48.232 135.256 48.056 134.536 47.896L133.984 47.776C132.832 47.52 131.84 47.2 131.008 46.816C130.192 46.416 129.56 45.896 129.112 45.256C128.68 44.616 128.464 43.784 128.464 42.76C128.464 41.736 128.704 40.864 129.184 40.144C129.68 39.408 130.368 38.848 131.248 38.464C132.144 38.064 133.192 37.864 134.392 37.864C135.592 37.864 136.656 38.072 137.584 38.488C138.528 38.888 139.264 39.496 139.792 40.312C140.336 41.112 140.608 42.12 140.608 43.336V44.056H137.488V43.336C137.488 42.696 137.36 42.184 137.104 41.8C136.864 41.4 136.512 41.112 136.048 40.936C135.584 40.744 135.032 40.648 134.392 40.648C133.432 40.648 132.72 40.832 132.256 41.2C131.808 41.552 131.584 42.04 131.584 42.664C131.584 43.08 131.688 43.432 131.896 43.72C132.12 44.008 132.448 44.248 132.88 44.44C133.312 44.632 133.864 44.8 134.536 44.944L135.088 45.064C136.288 45.32 137.328 45.648 138.208 46.048C139.104 46.448 139.8 46.976 140.296 47.632C140.792 48.288 141.04 49.128 141.04 50.152C141.04 51.176 140.776 52.08 140.248 52.864C139.736 53.632 139 54.24 138.04 54.688C137.096 55.12 135.976 55.336 134.68 55.336ZM149.091 55.336C147.939 55.336 146.891 55.096 145.947 54.616C145.019 54.136 144.283 53.44 143.739 52.528C143.195 51.616 142.923 50.512 142.923 49.216V48.88C142.923 47.584 143.195 46.48 143.739 45.568C144.283 44.656 145.019 43.96 145.947 43.48C146.891 43 147.939 42.76 149.091 42.76C150.227 42.76 151.203 42.96 152.019 43.36C152.835 43.76 153.491 44.312 153.987 45.016C154.499 45.704 154.835 46.488 154.995 47.368L152.067 47.992C152.003 47.512 151.859 47.08 151.635 46.696C151.411 46.312 151.091 46.008 150.675 45.784C150.275 45.56 149.771 45.448 149.163 45.448C148.555 45.448 148.003 45.584 147.507 45.856C147.027 46.112 146.643 46.504 146.355 47.032C146.083 47.544 145.947 48.176 145.947 48.928V49.168C145.947 49.92 146.083 50.56 146.355 51.088C146.643 51.6 147.027 51.992 147.507 52.264C148.003 52.52 148.555 52.648 149.163 52.648C150.075 52.648 150.763 52.416 151.227 51.952C151.707 51.472 152.011 50.848 152.139 50.08L155.067 50.776C154.859 51.624 154.499 52.4 153.987 53.104C153.491 53.792 152.835 54.336 152.019 54.736C151.203 55.136 150.227 55.336 149.091 55.336ZM157.561 55V43.096H160.537V44.44H160.969C161.145 43.96 161.433 43.608 161.833 43.384C162.249 43.16 162.729 43.048 163.273 43.048H164.713V45.736H163.225C162.457 45.736 161.825 45.944 161.329 46.36C160.833 46.76 160.585 47.384 160.585 48.232V55H157.561ZM167.077 55V43.096H170.101V55H167.077ZM168.589 41.704C168.045 41.704 167.581 41.528 167.197 41.176C166.829 40.824 166.645 40.36 166.645 39.784C166.645 39.208 166.829 38.744 167.197 38.392C167.581 38.04 168.045 37.864 168.589 37.864C169.149 37.864 169.613 38.04 169.981 38.392C170.349 38.744 170.533 39.208 170.533 39.784C170.533 40.36 170.349 40.824 169.981 41.176C169.613 41.528 169.149 41.704 168.589 41.704ZM173.452 59.8V43.096H176.428V44.536H176.86C177.132 44.072 177.556 43.664 178.132 43.312C178.708 42.944 179.532 42.76 180.604 42.76C181.564 42.76 182.452 43 183.268 43.48C184.084 43.944 184.74 44.632 185.236 45.544C185.732 46.456 185.98 47.56 185.98 48.856V49.24C185.98 50.536 185.732 51.64 185.236 52.552C184.74 53.464 184.084 54.16 183.268 54.64C182.452 55.104 181.564 55.336 180.604 55.336C179.884 55.336 179.276 55.248 178.78 55.072C178.3 54.912 177.908 54.704 177.604 54.448C177.316 54.176 177.084 53.904 176.908 53.632H176.476V59.8H173.452ZM179.692 52.696C180.636 52.696 181.412 52.4 182.02 51.808C182.644 51.2 182.956 50.32 182.956 49.168V48.928C182.956 47.776 182.644 46.904 182.02 46.312C181.396 45.704 180.62 45.4 179.692 45.4C178.764 45.4 177.988 45.704 177.364 46.312C176.74 46.904 176.428 47.776 176.428 48.928V49.168C176.428 50.32 176.74 51.2 177.364 51.808C177.988 52.4 178.764 52.696 179.692 52.696ZM192.941 55C192.157 55 191.517 54.76 191.021 54.28C190.541 53.784 190.301 53.128 190.301 52.312V45.592H187.325V43.096H190.301V39.4H193.325V43.096H196.589V45.592H193.325V51.784C193.325 52.264 193.549 52.504 193.997 52.504H196.301V55H192.941Z" fill="black"/>
<rect x="15.9983" y="15.5" width="202" height="62" rx="19.5" stroke="#F7F9FC"/>
</g>
<defs>
<filter id="filter0_ddi_105_845" x="0.498291" y="0" width="235" height="95" filterUnits="userSpaceOnUse" color-interpolation-filters="sRGB">
<feFlood flood-opacity="0" result="BackgroundImageFix"/>
<feColorMatrix in="SourceAlpha" type="matrix" values="0 0 0 0 0 0 0 0 0 0 0 0 0 0 0 0 0 0 127 0" result="hardAlpha"/>
<feMorphology radius="5" operator="dilate" in="SourceAlpha" result="effect1_dropShadow_105_845"/>
<feOffset dx="-5" dy="-5"/>
<feGaussianBlur stdDeviation="2.5"/>
<feColorMatrix type="matrix" values="0 0 0 0 1 0 0 0 0 1 0 0 0 0 1 0 0 0 0.4 0"/>
<feBlend mode="normal" in2="BackgroundImageFix" result="effect1_dropShadow_105_845"/>
<feColorMatrix in="SourceAlpha" type="matrix" values="0 0 0 0 0 0 0 0 0 0 0 0 0 0 0 0 0 0 127 0" result="hardAlpha"/>
<feMorphology radius="2" operator="dilate" in="SourceAlpha" result="effect2_dropShadow_105_845"/>
<feOffset dx="5" dy="5"/>
<feGaussianBlur stdDeviation="5"/>
<feComposite in2="hardAlpha" operator="out"/>
<feColorMatrix type="matrix" values="0 0 0 0 0.635294 0 0 0 0 0.705882 0 0 0 0 0.776471 0 0 0 0.12 0"/>
<feBlend mode="normal" in2="effect1_dropShadow_105_845" result="effect2_dropShadow_105_845"/>
<feBlend mode="normal" in="SourceGraphic" in2="effect2_dropShadow_105_845" result="shape"/>
<feColorMatrix in="SourceAlpha" type="matrix" values="0 0 0 0 0 0 0 0 0 0 0 0 0 0 0 0 0 0 127 0" result="hardAlpha"/>
<feOffset dx="2" dy="2"/>
<feGaussianBlur stdDeviation="2"/>
<feComposite in2="hardAlpha" operator="arithmetic" k2="-1" k3="1"/>
<feColorMatrix type="matrix" values="0 0 0 0 1 0 0 0 0 1 0 0 0 0 1 0 0 0 0.5 0"/>
<feBlend mode="normal" in2="shape" result="effect3_innerShadow_105_845"/>
</filter>
</defs>
</svg>
