<svg width="188" height="95" viewBox="0 0 188 95" fill="none" xmlns="http://www.w3.org/2000/svg">
<g filter="url(#filter0_ddi_105_858)">
<path d="M42.5259 31.582L43.3265 33.0857C43.5065 33.3631 43.7014 33.6088 43.9311 33.8375C44.6045 34.5024 45.2321 35.2121 45.8097 35.9617C47.1662 37.7428 48.0811 39.7208 48.7345 41.86C49.1264 43.1668 49.3392 44.5073 49.3551 45.8628C49.4207 49.9154 48.0314 53.3951 45.2304 56.2871C44.7748 56.7457 44.2826 57.1664 43.7586 57.5451C43.4811 57.5451 43.3499 57.3323 43.2355 57.1364C43.0273 56.7731 42.8887 56.3741 42.8268 55.9599C42.7284 55.4696 42.6637 54.9793 42.6956 54.4731V54.2444C42.6731 54.1957 42.4284 31.6973 42.5259 31.582Z" fill="#599636"/>
<path d="M42.5259 31.5323C42.4931 31.4666 42.4603 31.5163 42.4275 31.5482C42.4434 31.8763 42.3291 32.1688 42.15 32.4481C41.9531 32.7256 41.6925 32.9384 41.431 33.1671C39.978 34.4252 38.8343 35.9447 37.9184 37.6443C36.6998 39.9316 36.0717 42.383 35.8936 44.9638C35.812 45.8946 36.1879 49.1794 36.4814 50.1271C37.2819 52.6432 38.7199 54.7515 40.5826 56.5813C41.0401 57.0219 41.5294 57.4307 42.0356 57.8234C42.1828 57.8234 42.1988 57.6922 42.2325 57.5947C42.297 57.3861 42.3462 57.173 42.3797 56.9572L42.7078 54.5068L42.5259 31.5323Z" fill="#6CAC48"/>
<path d="M43.3265 58.5405C43.3593 58.1655 43.5393 57.8543 43.7352 57.544C43.5384 57.4624 43.3921 57.3003 43.2777 57.1193C43.1791 56.948 43.0975 56.7675 43.034 56.5803C42.8053 55.8941 42.7565 55.1742 42.6909 54.473V54.0483C42.6094 54.114 42.5925 54.6689 42.5925 54.7514C42.5448 55.4925 42.4464 56.2295 42.2981 56.9572C42.2494 57.2515 42.2166 57.5449 42.0356 57.8065C42.0356 57.8393 42.0356 57.8721 42.0516 57.9208C42.3459 58.787 42.4266 59.6691 42.4762 60.5681V60.8962C42.4762 61.2881 42.4603 61.2056 42.7856 61.3368C42.9168 61.3856 43.0631 61.4024 43.1943 61.4999C43.2927 61.4999 43.3087 61.4184 43.3087 61.3528L43.2599 60.8137V59.3101C43.244 59.0476 43.2927 58.787 43.3256 58.5414L43.3265 58.5405Z" fill="#C2BFBF"/>
<path d="M58.9413 55V38.2H64.8213L67.7253 52.84H68.1573L71.0613 38.2H76.9413V55H73.8693V40.528H73.4373L70.5573 55H65.3253L62.4453 40.528H62.0133V55H58.9413ZM85.8654 55.336C84.6814 55.336 83.6174 55.096 82.6734 54.616C81.7294 54.136 80.9854 53.44 80.4414 52.528C79.8974 51.616 79.6254 50.52 79.6254 49.24V48.856C79.6254 47.576 79.8974 46.48 80.4414 45.568C80.9854 44.656 81.7294 43.96 82.6734 43.48C83.6174 43 84.6814 42.76 85.8654 42.76C87.0494 42.76 88.1134 43 89.0574 43.48C90.0014 43.96 90.7454 44.656 91.2894 45.568C91.8334 46.48 92.1054 47.576 92.1054 48.856V49.24C92.1054 50.52 91.8334 51.616 91.2894 52.528C90.7454 53.44 90.0014 54.136 89.0574 54.616C88.1134 55.096 87.0494 55.336 85.8654 55.336ZM85.8654 52.648C86.7934 52.648 87.5614 52.352 88.1694 51.76C88.7774 51.152 89.0814 50.288 89.0814 49.168V48.928C89.0814 47.808 88.7774 46.952 88.1694 46.36C87.5774 45.752 86.8094 45.448 85.8654 45.448C84.9374 45.448 84.1694 45.752 83.5614 46.36C82.9534 46.952 82.6494 47.808 82.6494 48.928V49.168C82.6494 50.288 82.9534 51.152 83.5614 51.76C84.1694 52.352 84.9374 52.648 85.8654 52.648ZM94.8967 55V43.096H97.8727V44.656H98.3047C98.4967 44.24 98.8567 43.848 99.3847 43.48C99.9127 43.096 100.713 42.904 101.785 42.904C102.713 42.904 103.521 43.12 104.209 43.552C104.913 43.968 105.457 44.552 105.841 45.304C106.225 46.04 106.417 46.904 106.417 47.896V55H103.393V48.136C103.393 47.24 103.169 46.568 102.721 46.12C102.289 45.672 101.665 45.448 100.849 45.448C99.9207 45.448 99.2007 45.76 98.6887 46.384C98.1767 46.992 97.9207 47.848 97.9207 48.952V55H94.8967ZM109.11 49.096V48.712C109.11 47.464 109.358 46.4 109.854 45.52C110.35 44.624 111.006 43.944 111.822 43.48C112.654 43 113.558 42.76 114.534 42.76C115.622 42.76 116.446 42.952 117.006 43.336C117.566 43.72 117.974 44.12 118.23 44.536H118.662V43.096H121.638V57.112C121.638 57.928 121.398 58.576 120.918 59.056C120.438 59.552 119.798 59.8 118.998 59.8H111.03V57.16H117.942C118.39 57.16 118.614 56.92 118.614 56.44V53.344H118.182C118.022 53.6 117.798 53.864 117.51 54.136C117.222 54.392 116.838 54.608 116.358 54.784C115.878 54.96 115.27 55.048 114.534 55.048C113.558 55.048 112.654 54.816 111.822 54.352C111.006 53.872 110.35 53.192 109.854 52.312C109.358 51.416 109.11 50.344 109.11 49.096ZM115.398 52.408C116.326 52.408 117.102 52.112 117.726 51.52C118.35 50.928 118.662 50.096 118.662 49.024V48.784C118.662 47.696 118.35 46.864 117.726 46.288C117.118 45.696 116.342 45.4 115.398 45.4C114.47 45.4 113.694 45.696 113.07 46.288C112.446 46.864 112.134 47.696 112.134 48.784V49.024C112.134 50.096 112.446 50.928 113.07 51.52C113.694 52.112 114.47 52.408 115.398 52.408ZM130.654 55.336C129.47 55.336 128.406 55.096 127.462 54.616C126.518 54.136 125.774 53.44 125.23 52.528C124.686 51.616 124.414 50.52 124.414 49.24V48.856C124.414 47.576 124.686 46.48 125.23 45.568C125.774 44.656 126.518 43.96 127.462 43.48C128.406 43 129.47 42.76 130.654 42.76C131.838 42.76 132.902 43 133.846 43.48C134.79 43.96 135.534 44.656 136.078 45.568C136.622 46.48 136.894 47.576 136.894 48.856V49.24C136.894 50.52 136.622 51.616 136.078 52.528C135.534 53.44 134.79 54.136 133.846 54.616C132.902 55.096 131.838 55.336 130.654 55.336ZM130.654 52.648C131.582 52.648 132.35 52.352 132.958 51.76C133.566 51.152 133.87 50.288 133.87 49.168V48.928C133.87 47.808 133.566 46.952 132.958 46.36C132.366 45.752 131.598 45.448 130.654 45.448C129.726 45.448 128.958 45.752 128.35 46.36C127.742 46.952 127.438 47.808 127.438 48.928V49.168C127.438 50.288 127.742 51.152 128.35 51.76C128.958 52.352 129.726 52.648 130.654 52.648ZM139.11 55V52.216H141.318V40.984H139.11V38.2H146.022C148.278 38.2 149.99 38.776 151.158 39.928C152.342 41.064 152.934 42.76 152.934 45.016V48.184C152.934 50.44 152.342 52.144 151.158 53.296C149.99 54.432 148.278 55 146.022 55H139.11ZM144.486 52.12H146.07C147.35 52.12 148.286 51.784 148.878 51.112C149.47 50.44 149.766 49.496 149.766 48.28V44.92C149.766 43.688 149.47 42.744 148.878 42.088C148.286 41.416 147.35 41.08 146.07 41.08H144.486V52.12ZM154.555 55V52.216H156.763V40.984H154.555V38.2H163.195C164.219 38.2 165.107 38.376 165.859 38.728C166.627 39.064 167.219 39.552 167.635 40.192C168.067 40.816 168.283 41.568 168.283 42.448V42.688C168.283 43.456 168.139 44.088 167.851 44.584C167.563 45.064 167.219 45.44 166.819 45.712C166.435 45.968 166.067 46.152 165.715 46.264V46.696C166.067 46.792 166.451 46.976 166.867 47.248C167.283 47.504 167.635 47.88 167.923 48.376C168.227 48.872 168.379 49.52 168.379 50.32V50.56C168.379 51.488 168.163 52.288 167.731 52.96C167.299 53.616 166.699 54.12 165.931 54.472C165.179 54.824 164.299 55 163.291 55H154.555ZM159.931 52.12H162.907C163.595 52.12 164.147 51.952 164.563 51.616C164.995 51.28 165.211 50.8 165.211 50.176V49.936C165.211 49.312 165.003 48.832 164.587 48.496C164.171 48.16 163.611 47.992 162.907 47.992H159.931V52.12ZM159.931 45.112H162.859C163.515 45.112 164.051 44.944 164.467 44.608C164.899 44.272 165.115 43.808 165.115 43.216V42.976C165.115 42.368 164.907 41.904 164.491 41.584C164.075 41.248 163.531 41.08 162.859 41.08H159.931V45.112Z" fill="black"/>
<rect x="16.3823" y="15.5" width="173.475" height="62" rx="19.5" stroke="#F7F9FC"/>
</g>
<defs>
<filter id="filter0_ddi_105_858" x="0.882263" y="0" width="206.475" height="95" filterUnits="userSpaceOnUse" color-interpolation-filters="sRGB">
<feFlood flood-opacity="0" result="BackgroundImageFix"/>
<feColorMatrix in="SourceAlpha" type="matrix" values="0 0 0 0 0 0 0 0 0 0 0 0 0 0 0 0 0 0 127 0" result="hardAlpha"/>
<feMorphology radius="5" operator="dilate" in="SourceAlpha" result="effect1_dropShadow_105_858"/>
<feOffset dx="-5" dy="-5"/>
<feGaussianBlur stdDeviation="2.5"/>
<feColorMatrix type="matrix" values="0 0 0 0 1 0 0 0 0 1 0 0 0 0 1 0 0 0 0.4 0"/>
<feBlend mode="normal" in2="BackgroundImageFix" result="effect1_dropShadow_105_858"/>
<feColorMatrix in="SourceAlpha" type="matrix" values="0 0 0 0 0 0 0 0 0 0 0 0 0 0 0 0 0 0 127 0" result="hardAlpha"/>
<feMorphology radius="2" operator="dilate" in="SourceAlpha" result="effect2_dropShadow_105_858"/>
<feOffset dx="5" dy="5"/>
<feGaussianBlur stdDeviation="5"/>
<feComposite in2="hardAlpha" operator="out"/>
<feColorMatrix type="matrix" values="0 0 0 0 0.635294 0 0 0 0 0.705882 0 0 0 0 0.776471 0 0 0 0.12 0"/>
<feBlend mode="normal" in2="effect1_dropShadow_105_858" result="effect2_dropShadow_105_858"/>
<feBlend mode="normal" in="SourceGraphic" in2="effect2_dropShadow_105_858" result="shape"/>
<feColorMatrix in="SourceAlpha" type="matrix" values="0 0 0 0 0 0 0 0 0 0 0 0 0 0 0 0 0 0 127 0" result="hardAlpha"/>
<feOffset dx="2" dy="2"/>
<feGaussianBlur stdDeviation="2"/>
<feComposite in2="hardAlpha" operator="arithmetic" k2="-1" k3="1"/>
<feColorMatrix type="matrix" values="0 0 0 0 1 0 0 0 0 1 0 0 0 0 1 0 0 0 0.5 0"/>
<feBlend mode="normal" in2="shape" result="effect3_innerShadow_105_858"/>
</filter>
</defs>
</svg>
