<svg width="198" height="95" viewBox="0 0 198 95" fill="none" xmlns="http://www.w3.org/2000/svg">
<g filter="url(#filter0_ddi_105_864)">
<path d="M47.6887 31.8201C48.4325 31.3943 49.4014 31.3924 50.1446 31.8201C53.8837 33.9328 57.624 36.0423 61.3624 38.1563C62.0656 38.5524 62.5359 39.335 62.5287 40.1452V52.8564C62.534 53.7002 62.0172 54.5014 61.2753 54.8885C57.5485 56.9897 53.8237 59.0934 50.0975 61.1945C49.3383 61.6286 48.3499 61.5952 47.6144 61.1255C46.4971 60.4778 45.3779 59.8333 44.2605 59.1862C44.0322 59.0501 43.7748 58.9418 43.6136 58.7204C43.7561 58.5283 44.0109 58.5043 44.218 58.4205C44.6844 58.2721 45.1127 58.0341 45.5412 57.8031C45.6495 57.7289 45.7818 57.7574 45.8856 57.8237C46.8411 58.3715 47.788 58.9352 48.7467 59.4778C48.9512 59.5959 49.1582 59.4391 49.333 59.3417C52.9902 57.2747 56.6518 55.2156 60.3083 53.148C60.4437 53.0828 60.5186 52.939 60.5076 52.7906C60.5102 48.5975 60.5083 44.4035 60.5089 40.2104C60.5244 40.042 60.427 39.8871 60.2747 39.8182C56.5608 37.7267 52.8489 35.632 49.1357 33.54C49.0713 33.4957 48.9951 33.472 48.9171 33.4719C48.839 33.4718 48.7627 33.4953 48.6983 33.5393C44.985 35.632 41.2737 37.7286 37.5605 39.82C37.4088 39.8891 37.307 40.0413 37.325 40.2104C37.3257 44.4035 37.325 48.5975 37.325 52.7913C37.3186 52.8637 37.3345 52.9363 37.3706 52.9994C37.4067 53.0625 37.4613 53.113 37.527 53.1442C38.5179 53.7061 39.51 54.264 40.5016 54.824C41.0601 55.1247 41.746 55.3033 42.3614 55.073C42.9045 54.8782 43.2852 54.324 43.2749 53.7473C43.28 49.5786 43.2723 45.4093 43.2787 41.2412C43.2651 41.0562 43.4407 40.9033 43.6206 40.9207C44.0967 40.9175 44.5735 40.9143 45.0496 40.922C45.2483 40.9175 45.3851 41.1167 45.3605 41.3032C45.3586 45.4983 45.3656 49.6935 45.3573 53.8886C45.3586 55.0066 44.8992 56.2232 43.8651 56.7702C42.591 57.4302 41.0163 57.2902 39.7577 56.6574C38.6681 56.1135 37.6283 55.4717 36.558 54.8891C35.8142 54.5041 35.3 53.6997 35.3052 52.8566V40.1452C35.2974 39.3182 35.7864 38.5214 36.5115 38.1311C40.2376 36.0283 43.9632 33.9239 47.6887 31.8201Z" fill="#8CC84B"/>
<path d="M50.9393 40.6252C52.5645 40.5206 54.3043 40.5632 55.7667 41.3638C56.8989 41.9773 57.5266 43.2649 57.5466 44.5228C57.515 44.6925 57.3376 44.7861 57.1756 44.7744C56.7041 44.7738 56.2325 44.7808 55.761 44.7712C55.561 44.7789 55.4447 44.5945 55.4196 44.4177C55.2841 43.8158 54.9559 43.2197 54.3894 42.9294C53.5198 42.494 52.5115 42.5159 51.5632 42.525C50.871 42.5618 50.1266 42.6217 49.5401 43.0288C49.0898 43.3371 48.9531 43.9596 49.1138 44.4609C49.2653 44.8209 49.6808 44.9371 50.0208 45.0441C51.9793 45.5563 54.0547 45.5054 55.9758 46.1795C56.7711 46.4543 57.5492 46.9885 57.8214 47.8213C58.1775 48.9374 58.0214 50.2714 57.2273 51.1675C56.5834 51.9048 55.6455 52.3061 54.7101 52.5241C53.4656 52.8016 52.1742 52.8086 50.9104 52.6854C49.7221 52.5499 48.4854 52.2377 47.568 51.4281C46.7836 50.7469 46.4004 49.6856 46.4385 48.6613C46.4475 48.4883 46.6198 48.3677 46.7855 48.3819C47.2603 48.378 47.7351 48.3767 48.21 48.3825C48.3996 48.3689 48.5402 48.5328 48.55 48.7116C48.6376 49.285 48.8531 49.8869 49.3531 50.2269C50.3181 50.8495 51.529 50.8069 52.634 50.8243C53.5495 50.7837 54.5771 50.7714 55.3242 50.1663C55.7184 49.8212 55.8351 49.2438 55.7286 48.7471C55.6132 48.3277 55.1745 48.1323 54.7978 48.0045C52.8644 47.3929 50.7658 47.6148 48.8512 46.9232C48.0738 46.6485 47.3222 46.1291 47.0235 45.3306C46.6068 44.2003 46.7978 42.8024 47.6751 41.9366C48.5305 41.0754 49.7653 40.7438 50.9393 40.6251V40.6252Z" fill="#8CC84B"/>
<path d="M72.1128 55V38.2H78.1368L81.4728 52.84H81.9048V38.2H85.0248V55H79.0008L75.6648 40.36H75.2328V55H72.1128ZM93.9509 55.336C92.7669 55.336 91.7029 55.096 90.7589 54.616C89.8149 54.136 89.0709 53.44 88.5269 52.528C87.9829 51.616 87.7109 50.52 87.7109 49.24V48.856C87.7109 47.576 87.9829 46.48 88.5269 45.568C89.0709 44.656 89.8149 43.96 90.7589 43.48C91.7029 43 92.7669 42.76 93.9509 42.76C95.1349 42.76 96.1989 43 97.1429 43.48C98.0869 43.96 98.8309 44.656 99.3749 45.568C99.9189 46.48 100.191 47.576 100.191 48.856V49.24C100.191 50.52 99.9189 51.616 99.3749 52.528C98.8309 53.44 98.0869 54.136 97.1429 54.616C96.1989 55.096 95.1349 55.336 93.9509 55.336ZM93.9509 52.648C94.8789 52.648 95.6469 52.352 96.2549 51.76C96.8629 51.152 97.1669 50.288 97.1669 49.168V48.928C97.1669 47.808 96.8629 46.952 96.2549 46.36C95.6629 45.752 94.8949 45.448 93.9509 45.448C93.0229 45.448 92.2549 45.752 91.6469 46.36C91.0389 46.952 90.7349 47.808 90.7349 48.928V49.168C90.7349 50.288 91.0389 51.152 91.6469 51.76C92.2549 52.352 93.0229 52.648 93.9509 52.648ZM107.782 55.336C106.838 55.336 105.95 55.104 105.118 54.64C104.302 54.16 103.646 53.464 103.15 52.552C102.654 51.64 102.406 50.536 102.406 49.24V48.856C102.406 47.56 102.654 46.456 103.15 45.544C103.646 44.632 104.302 43.944 105.118 43.48C105.934 43 106.822 42.76 107.782 42.76C108.502 42.76 109.102 42.848 109.582 43.024C110.078 43.184 110.478 43.392 110.782 43.648C111.086 43.904 111.318 44.176 111.478 44.464H111.91V38.2H114.934V55H111.958V53.56H111.526C111.254 54.008 110.83 54.416 110.254 54.784C109.694 55.152 108.87 55.336 107.782 55.336ZM108.694 52.696C109.622 52.696 110.398 52.4 111.022 51.808C111.646 51.2 111.958 50.32 111.958 49.168V48.928C111.958 47.776 111.646 46.904 111.022 46.312C110.414 45.704 109.638 45.4 108.694 45.4C107.766 45.4 106.99 45.704 106.366 46.312C105.742 46.904 105.43 47.776 105.43 48.928V49.168C105.43 50.32 105.742 51.2 106.366 51.808C106.99 52.4 107.766 52.696 108.694 52.696ZM123.711 55.336C122.527 55.336 121.479 55.088 120.567 54.592C119.671 54.08 118.967 53.368 118.455 52.456C117.959 51.528 117.711 50.44 117.711 49.192V48.904C117.711 47.656 117.959 46.576 118.455 45.664C118.951 44.736 119.647 44.024 120.543 43.528C121.439 43.016 122.479 42.76 123.663 42.76C124.831 42.76 125.847 43.024 126.711 43.552C127.575 44.064 128.247 44.784 128.727 45.712C129.207 46.624 129.447 47.688 129.447 48.904V49.936H120.783C120.815 50.752 121.119 51.416 121.695 51.928C122.271 52.44 122.975 52.696 123.807 52.696C124.655 52.696 125.279 52.512 125.679 52.144C126.079 51.776 126.383 51.368 126.591 50.92L129.063 52.216C128.839 52.632 128.511 53.088 128.079 53.584C127.663 54.064 127.103 54.48 126.399 54.832C125.695 55.168 124.799 55.336 123.711 55.336ZM120.807 47.68H126.375C126.311 46.992 126.031 46.44 125.535 46.024C125.055 45.608 124.423 45.4 123.639 45.4C122.823 45.4 122.175 45.608 121.695 46.024C121.215 46.44 120.919 46.992 120.807 47.68ZM136.866 55.336C135.138 55.336 133.762 54.864 132.738 53.92C131.73 52.976 131.226 51.656 131.226 49.96V48.376H134.394V49.96C134.394 50.712 134.602 51.304 135.018 51.736C135.434 52.152 136.018 52.36 136.77 52.36C137.474 52.36 138.018 52.152 138.402 51.736C138.802 51.32 139.002 50.728 139.002 49.96V41.08H136.122V38.2H144.09V41.08H142.17V49.96C142.17 51.704 141.698 53.04 140.754 53.968C139.81 54.88 138.514 55.336 136.866 55.336ZM152.523 55.336C151.227 55.336 150.083 55.104 149.091 54.64C148.099 54.176 147.323 53.512 146.763 52.648C146.203 51.784 145.923 50.744 145.923 49.528V48.856H149.043V49.528C149.043 50.536 149.355 51.296 149.979 51.808C150.603 52.304 151.451 52.552 152.523 52.552C153.611 52.552 154.419 52.336 154.947 51.904C155.491 51.472 155.763 50.92 155.763 50.248C155.763 49.784 155.627 49.408 155.355 49.12C155.099 48.832 154.715 48.6 154.203 48.424C153.707 48.232 153.099 48.056 152.379 47.896L151.827 47.776C150.675 47.52 149.683 47.2 148.851 46.816C148.035 46.416 147.403 45.896 146.955 45.256C146.523 44.616 146.307 43.784 146.307 42.76C146.307 41.736 146.547 40.864 147.027 40.144C147.523 39.408 148.211 38.848 149.091 38.464C149.987 38.064 151.035 37.864 152.235 37.864C153.435 37.864 154.499 38.072 155.427 38.488C156.371 38.888 157.107 39.496 157.635 40.312C158.179 41.112 158.451 42.12 158.451 43.336V44.056H155.331V43.336C155.331 42.696 155.203 42.184 154.947 41.8C154.707 41.4 154.355 41.112 153.891 40.936C153.427 40.744 152.875 40.648 152.235 40.648C151.275 40.648 150.563 40.832 150.099 41.2C149.651 41.552 149.427 42.04 149.427 42.664C149.427 43.08 149.531 43.432 149.739 43.72C149.963 44.008 150.291 44.248 150.723 44.44C151.155 44.632 151.707 44.8 152.379 44.944L152.931 45.064C154.131 45.32 155.171 45.648 156.051 46.048C156.947 46.448 157.643 46.976 158.139 47.632C158.635 48.288 158.883 49.128 158.883 50.152C158.883 51.176 158.619 52.08 158.091 52.864C157.579 53.632 156.843 54.24 155.883 54.688C154.939 55.12 153.819 55.336 152.523 55.336Z" fill="black"/>
<rect x="15.8051" y="15.5" width="164.224" height="62" rx="19.5" stroke="#F7F9FC"/>
</g>
<defs>
<filter id="filter0_ddi_105_864" x="0.305115" y="0" width="197.224" height="95" filterUnits="userSpaceOnUse" color-interpolation-filters="sRGB">
<feFlood flood-opacity="0" result="BackgroundImageFix"/>
<feColorMatrix in="SourceAlpha" type="matrix" values="0 0 0 0 0 0 0 0 0 0 0 0 0 0 0 0 0 0 127 0" result="hardAlpha"/>
<feMorphology radius="5" operator="dilate" in="SourceAlpha" result="effect1_dropShadow_105_864"/>
<feOffset dx="-5" dy="-5"/>
<feGaussianBlur stdDeviation="2.5"/>
<feColorMatrix type="matrix" values="0 0 0 0 1 0 0 0 0 1 0 0 0 0 1 0 0 0 0.4 0"/>
<feBlend mode="normal" in2="BackgroundImageFix" result="effect1_dropShadow_105_864"/>
<feColorMatrix in="SourceAlpha" type="matrix" values="0 0 0 0 0 0 0 0 0 0 0 0 0 0 0 0 0 0 127 0" result="hardAlpha"/>
<feMorphology radius="2" operator="dilate" in="SourceAlpha" result="effect2_dropShadow_105_864"/>
<feOffset dx="5" dy="5"/>
<feGaussianBlur stdDeviation="5"/>
<feComposite in2="hardAlpha" operator="out"/>
<feColorMatrix type="matrix" values="0 0 0 0 0.635294 0 0 0 0 0.705882 0 0 0 0 0.776471 0 0 0 0.12 0"/>
<feBlend mode="normal" in2="effect1_dropShadow_105_864" result="effect2_dropShadow_105_864"/>
<feBlend mode="normal" in="SourceGraphic" in2="effect2_dropShadow_105_864" result="shape"/>
<feColorMatrix in="SourceAlpha" type="matrix" values="0 0 0 0 0 0 0 0 0 0 0 0 0 0 0 0 0 0 127 0" result="hardAlpha"/>
<feOffset dx="2" dy="2"/>
<feGaussianBlur stdDeviation="2"/>
<feComposite in2="hardAlpha" operator="arithmetic" k2="-1" k3="1"/>
<feColorMatrix type="matrix" values="0 0 0 0 1 0 0 0 0 1 0 0 0 0 1 0 0 0 0.5 0"/>
<feBlend mode="normal" in2="shape" result="effect3_innerShadow_105_864"/>
</filter>
</defs>
</svg>
