<svg width="190" height="95" viewBox="0 0 190 95" fill="none" xmlns="http://www.w3.org/2000/svg">
<g filter="url(#filter0_ddi_376_5405)">
<g clip-path="url(#clip0_376_5405)">
<path d="M56.5125 51.9187L56.519 58.5457L50.6383 61.4803V54.8562L56.5125 51.9187ZM63.57 48.377V55.027L58.5543 57.5302L58.5507 50.9105L63.57 48.377ZM56.5036 43.0487L56.5102 49.6061L50.6382 52.524V45.9644L56.5036 43.0487ZM63.57 39.5357V46.052L58.5493 48.6043L58.5449 42.0337L63.57 39.5357ZM49.7443 38.7648L54.9929 41.4142L49.5474 44.149L44.3978 41.5626L49.7443 38.7648ZM42.4436 35.0797L47.4497 37.6067L42.091 40.4036L36.9495 37.8216L42.4436 35.0797ZM56.7541 35.1181L62.1462 37.8216L57.3239 40.2437L52.0644 37.5908L56.7541 35.1181ZM49.5795 31.5198L54.4336 33.9534L49.7792 36.4384L44.7772 33.9156L49.5795 31.5198Z" fill="#4DABCF"/>
<path d="M48.5623 45.9644L44.6013 43.9731V52.5804C44.6013 52.5804 39.7573 42.2735 39.3085 41.3477C39.2507 41.2282 39.0125 41.0971 38.9516 41.0654C38.0831 40.6093 35.538 39.3201 35.538 39.3201V54.5269L39.0588 56.409V48.4604C39.0588 48.4604 43.8514 57.6699 43.8999 57.7705C43.9484 57.8712 44.4299 58.8418 44.9438 59.1827C45.6285 59.6359 48.5631 61.4006 48.5631 61.4006L48.5623 45.9644Z" fill="#4D77CF"/>
</g>
<path d="M73.154 55V38.2H79.178L82.514 52.84H82.946V38.2H86.066V55H80.042L76.706 40.36H76.274V55H73.154ZM93.8641 55.192C92.9361 55.192 92.1201 54.984 91.4161 54.568C90.7281 54.136 90.1921 53.544 89.8081 52.792C89.4241 52.04 89.2321 51.176 89.2321 50.2V43.096H92.2561V49.96C92.2561 50.856 92.4721 51.528 92.9041 51.976C93.3521 52.424 93.9841 52.648 94.8001 52.648C95.7281 52.648 96.4481 52.344 96.9601 51.736C97.4721 51.112 97.7281 50.248 97.7281 49.144V43.096H100.752V55H97.7761V53.44H97.3441C97.1521 53.84 96.7921 54.232 96.2641 54.616C95.7361 55 94.9361 55.192 93.8641 55.192ZM104.117 55V43.096H107.093V44.392H107.525C107.733 43.992 108.077 43.648 108.557 43.36C109.037 43.056 109.669 42.904 110.453 42.904C111.301 42.904 111.981 43.072 112.493 43.408C113.005 43.728 113.397 44.152 113.669 44.68H114.101C114.373 44.168 114.757 43.744 115.253 43.408C115.749 43.072 116.453 42.904 117.365 42.904C118.101 42.904 118.765 43.064 119.357 43.384C119.965 43.688 120.445 44.16 120.797 44.8C121.165 45.424 121.349 46.216 121.349 47.176V55H118.325V47.392C118.325 46.736 118.157 46.248 117.821 45.928C117.485 45.592 117.013 45.424 116.405 45.424C115.717 45.424 115.181 45.648 114.797 46.096C114.429 46.528 114.245 47.152 114.245 47.968V55H111.221V47.392C111.221 46.736 111.053 46.248 110.717 45.928C110.381 45.592 109.909 45.424 109.301 45.424C108.613 45.424 108.077 45.648 107.693 46.096C107.325 46.528 107.141 47.152 107.141 47.968V55H104.117ZM124.506 55V38.2H131.418C132.474 38.2 133.402 38.416 134.202 38.848C135.018 39.264 135.65 39.856 136.098 40.624C136.562 41.392 136.794 42.304 136.794 43.36V43.696C136.794 44.736 136.554 45.648 136.074 46.432C135.61 47.2 134.97 47.8 134.154 48.232C133.354 48.648 132.442 48.856 131.418 48.856H127.674V55H124.506ZM127.674 45.976H131.106C131.858 45.976 132.466 45.768 132.93 45.352C133.394 44.936 133.626 44.368 133.626 43.648V43.408C133.626 42.688 133.394 42.12 132.93 41.704C132.466 41.288 131.858 41.08 131.106 41.08H127.674V45.976ZM140.382 59.8V57.16H146.862C147.31 57.16 147.534 56.92 147.534 56.44V53.44H147.102C146.974 53.712 146.774 53.984 146.502 54.256C146.23 54.528 145.862 54.752 145.398 54.928C144.934 55.104 144.342 55.192 143.622 55.192C142.694 55.192 141.878 54.984 141.174 54.568C140.486 54.136 139.95 53.544 139.566 52.792C139.182 52.04 138.99 51.176 138.99 50.2V43.096H142.014V49.96C142.014 50.856 142.23 51.528 142.662 51.976C143.11 52.424 143.742 52.648 144.558 52.648C145.486 52.648 146.206 52.344 146.718 51.736C147.23 51.112 147.486 50.248 147.486 49.144V43.096H150.51V57.112C150.51 57.928 150.27 58.576 149.79 59.056C149.31 59.552 148.67 59.8 147.87 59.8H140.382Z" fill="black"/>
<rect x="16.038" y="15.5" width="156.032" height="62" rx="19.5" stroke="#F7F9FC"/>
</g>
<defs>
<filter id="filter0_ddi_376_5405" x="0.537964" y="0" width="189.032" height="95" filterUnits="userSpaceOnUse" color-interpolation-filters="sRGB">
<feFlood flood-opacity="0" result="BackgroundImageFix"/>
<feColorMatrix in="SourceAlpha" type="matrix" values="0 0 0 0 0 0 0 0 0 0 0 0 0 0 0 0 0 0 127 0" result="hardAlpha"/>
<feMorphology radius="5" operator="dilate" in="SourceAlpha" result="effect1_dropShadow_376_5405"/>
<feOffset dx="-5" dy="-5"/>
<feGaussianBlur stdDeviation="2.5"/>
<feColorMatrix type="matrix" values="0 0 0 0 1 0 0 0 0 1 0 0 0 0 1 0 0 0 0.4 0"/>
<feBlend mode="normal" in2="BackgroundImageFix" result="effect1_dropShadow_376_5405"/>
<feColorMatrix in="SourceAlpha" type="matrix" values="0 0 0 0 0 0 0 0 0 0 0 0 0 0 0 0 0 0 127 0" result="hardAlpha"/>
<feMorphology radius="2" operator="dilate" in="SourceAlpha" result="effect2_dropShadow_376_5405"/>
<feOffset dx="5" dy="5"/>
<feGaussianBlur stdDeviation="5"/>
<feComposite in2="hardAlpha" operator="out"/>
<feColorMatrix type="matrix" values="0 0 0 0 0.635294 0 0 0 0 0.705882 0 0 0 0 0.776471 0 0 0 0.12 0"/>
<feBlend mode="normal" in2="effect1_dropShadow_376_5405" result="effect2_dropShadow_376_5405"/>
<feBlend mode="normal" in="SourceGraphic" in2="effect2_dropShadow_376_5405" result="shape"/>
<feColorMatrix in="SourceAlpha" type="matrix" values="0 0 0 0 0 0 0 0 0 0 0 0 0 0 0 0 0 0 127 0" result="hardAlpha"/>
<feOffset dx="2" dy="2"/>
<feGaussianBlur stdDeviation="2"/>
<feComposite in2="hardAlpha" operator="arithmetic" k2="-1" k3="1"/>
<feColorMatrix type="matrix" values="0 0 0 0 1 0 0 0 0 1 0 0 0 0 1 0 0 0 0.5 0"/>
<feBlend mode="normal" in2="shape" result="effect3_innerShadow_376_5405"/>
</filter>
<clipPath id="clip0_376_5405">
<rect width="28.032" height="30" fill="white" transform="translate(35.538 31.5)"/>
</clipPath>
</defs>
</svg>
