<svg width="196" height="95" viewBox="0 0 196 95" fill="none" xmlns="http://www.w3.org/2000/svg">
<g filter="url(#filter0_ddi_376_5369)">
<path d="M50.3056 31.5C42.6499 31.5 43.128 34.82 43.128 34.82L43.1365 38.2595H50.4421V39.2922H40.2348C40.2348 39.2922 35.3359 38.7366 35.3359 46.4611C35.3359 54.1859 39.6117 53.9119 39.6117 53.9119H42.1636V50.3273C42.1636 50.3273 42.026 46.0515 46.3712 46.0515H53.6171C53.6171 46.0515 57.6881 46.1173 57.6881 42.117V35.5028C57.6881 35.5028 58.3064 31.5 50.3056 31.5ZM46.2773 33.813C46.4499 33.8129 46.6209 33.8468 46.7804 33.9128C46.9399 33.9788 47.0849 34.0756 47.207 34.1976C47.329 34.3197 47.4258 34.4647 47.4918 34.6242C47.5578 34.7837 47.5917 34.9547 47.5916 35.1273C47.5917 35.3 47.5578 35.4709 47.4918 35.6305C47.4258 35.79 47.329 35.9349 47.207 36.057C47.0849 36.1791 46.9399 36.2759 46.7804 36.3419C46.6209 36.4079 46.4499 36.4418 46.2773 36.4416C46.1046 36.4418 45.9337 36.4079 45.7741 36.3419C45.6146 36.2759 45.4697 36.1791 45.3476 36.057C45.2255 35.9349 45.1287 35.79 45.0627 35.6305C44.9967 35.4709 44.9628 35.3 44.963 35.1273C44.9628 34.9547 44.9967 34.7837 45.0627 34.6242C45.1287 34.4647 45.2255 34.3197 45.3476 34.1976C45.4697 34.0756 45.6146 33.9788 45.7741 33.9128C45.9337 33.8468 46.1046 33.8129 46.2773 33.813V33.813Z" fill="url(#paint0_linear_376_5369)"/>
<path d="M50.523 61.5001C58.1787 61.5001 57.7007 58.1801 57.7007 58.1801L57.6922 54.7407H50.3864V53.708H60.5938C60.5938 53.708 65.4927 54.2636 65.4927 46.5388C65.4927 38.8142 61.2168 39.0881 61.2168 39.0881H58.665V42.6726C58.665 42.6726 58.8026 46.9485 54.4574 46.9485H47.2115C47.2115 46.9485 43.1405 46.8827 43.1405 50.8831V57.4974C43.1405 57.4974 42.5223 61.5001 50.5229 61.5001H50.523ZM54.5514 59.1873C54.3788 59.1874 54.2078 59.1535 54.0483 59.0875C53.8887 59.0215 53.7438 58.9247 53.6217 58.8027C53.4996 58.6806 53.4028 58.5356 53.3368 58.3761C53.2708 58.2166 53.237 58.0456 53.2371 57.873C53.2369 57.7003 53.2708 57.5293 53.3368 57.3698C53.4028 57.2103 53.4996 57.0653 53.6217 56.9432C53.7437 56.8211 53.8887 56.7243 54.0482 56.6583C54.2078 56.5923 54.3787 56.5584 54.5514 56.5586C54.724 56.5584 54.895 56.5923 55.0545 56.6583C55.2141 56.7243 55.359 56.8211 55.4811 56.9432C55.6032 57.0652 55.7 57.2102 55.766 57.3697C55.8319 57.5293 55.8658 57.7002 55.8657 57.8729C55.8658 58.0455 55.8319 58.2165 55.766 58.376C55.7 58.5355 55.6032 58.6805 55.4811 58.8026C55.359 58.9246 55.2141 59.0214 55.0545 59.0874C54.895 59.1534 54.724 59.1873 54.5514 59.1872V59.1873Z" fill="url(#paint1_linear_376_5369)"/>
<path d="M75.0767 55V38.2H81.9887C83.0447 38.2 83.9727 38.416 84.7727 38.848C85.5887 39.264 86.2207 39.856 86.6687 40.624C87.1327 41.392 87.3647 42.304 87.3647 43.36V43.696C87.3647 44.736 87.1247 45.648 86.6447 46.432C86.1807 47.2 85.5407 47.8 84.7247 48.232C83.9247 48.648 83.0127 48.856 81.9887 48.856H78.2447V55H75.0767ZM78.2447 45.976H81.6767C82.4287 45.976 83.0367 45.768 83.5007 45.352C83.9647 44.936 84.1967 44.368 84.1967 43.648V43.408C84.1967 42.688 83.9647 42.12 83.5007 41.704C83.0367 41.288 82.4287 41.08 81.6767 41.08H78.2447V45.976ZM90.9531 59.8V57.16H97.4331C97.8811 57.16 98.1051 56.92 98.1051 56.44V53.44H97.6731C97.5451 53.712 97.3451 53.984 97.0731 54.256C96.8011 54.528 96.4331 54.752 95.9691 54.928C95.5051 55.104 94.9131 55.192 94.1931 55.192C93.2651 55.192 92.4491 54.984 91.7451 54.568C91.0571 54.136 90.5211 53.544 90.1371 52.792C89.7531 52.04 89.5611 51.176 89.5611 50.2V43.096H92.5851V49.96C92.5851 50.856 92.8011 51.528 93.2331 51.976C93.6811 52.424 94.3131 52.648 95.1291 52.648C96.0571 52.648 96.7771 52.344 97.2891 51.736C97.8011 51.112 98.0571 50.248 98.0571 49.144V43.096H101.081V57.112C101.081 57.928 100.841 58.576 100.361 59.056C99.8811 59.552 99.2411 59.8 98.4411 59.8H90.9531ZM109.006 55C108.222 55 107.582 54.76 107.086 54.28C106.606 53.784 106.366 53.128 106.366 52.312V45.592H103.39V43.096H106.366V39.4H109.39V43.096H112.654V45.592H109.39V51.784C109.39 52.264 109.614 52.504 110.062 52.504H112.366V55H109.006ZM115.391 55V38.2H118.415V44.56H118.847C118.975 44.304 119.175 44.048 119.447 43.792C119.719 43.536 120.079 43.328 120.527 43.168C120.991 42.992 121.575 42.904 122.279 42.904C123.207 42.904 124.015 43.12 124.703 43.552C125.407 43.968 125.951 44.552 126.335 45.304C126.719 46.04 126.911 46.904 126.911 47.896V55H123.887V48.136C123.887 47.24 123.663 46.568 123.215 46.12C122.783 45.672 122.159 45.448 121.343 45.448C120.415 45.448 119.695 45.76 119.183 46.384C118.671 46.992 118.415 47.848 118.415 48.952V55H115.391ZM135.844 55.336C134.66 55.336 133.596 55.096 132.652 54.616C131.708 54.136 130.964 53.44 130.42 52.528C129.876 51.616 129.604 50.52 129.604 49.24V48.856C129.604 47.576 129.876 46.48 130.42 45.568C130.964 44.656 131.708 43.96 132.652 43.48C133.596 43 134.66 42.76 135.844 42.76C137.028 42.76 138.092 43 139.036 43.48C139.98 43.96 140.724 44.656 141.268 45.568C141.812 46.48 142.084 47.576 142.084 48.856V49.24C142.084 50.52 141.812 51.616 141.268 52.528C140.724 53.44 139.98 54.136 139.036 54.616C138.092 55.096 137.028 55.336 135.844 55.336ZM135.844 52.648C136.772 52.648 137.54 52.352 138.148 51.76C138.756 51.152 139.06 50.288 139.06 49.168V48.928C139.06 47.808 138.756 46.952 138.148 46.36C137.556 45.752 136.788 45.448 135.844 45.448C134.916 45.448 134.148 45.752 133.54 46.36C132.932 46.952 132.628 47.808 132.628 48.928V49.168C132.628 50.288 132.932 51.152 133.54 51.76C134.148 52.352 134.916 52.648 135.844 52.648ZM144.876 55V43.096H147.852V44.656H148.284C148.476 44.24 148.836 43.848 149.364 43.48C149.892 43.096 150.692 42.904 151.764 42.904C152.692 42.904 153.5 43.12 154.188 43.552C154.892 43.968 155.436 44.552 155.82 45.304C156.204 46.04 156.396 46.904 156.396 47.896V55H153.372V48.136C153.372 47.24 153.148 46.568 152.7 46.12C152.268 45.672 151.644 45.448 150.828 45.448C149.9 45.448 149.18 45.76 148.668 46.384C148.156 46.992 147.9 47.848 147.9 48.952V55H144.876Z" fill="black"/>
<rect x="15.8359" y="15.5" width="162.157" height="62" rx="19.5" stroke="#F7F9FC"/>
</g>
<defs>
<filter id="filter0_ddi_376_5369" x="0.335876" y="0" width="195.157" height="95" filterUnits="userSpaceOnUse" color-interpolation-filters="sRGB">
<feFlood flood-opacity="0" result="BackgroundImageFix"/>
<feColorMatrix in="SourceAlpha" type="matrix" values="0 0 0 0 0 0 0 0 0 0 0 0 0 0 0 0 0 0 127 0" result="hardAlpha"/>
<feMorphology radius="5" operator="dilate" in="SourceAlpha" result="effect1_dropShadow_376_5369"/>
<feOffset dx="-5" dy="-5"/>
<feGaussianBlur stdDeviation="2.5"/>
<feColorMatrix type="matrix" values="0 0 0 0 1 0 0 0 0 1 0 0 0 0 1 0 0 0 0.4 0"/>
<feBlend mode="normal" in2="BackgroundImageFix" result="effect1_dropShadow_376_5369"/>
<feColorMatrix in="SourceAlpha" type="matrix" values="0 0 0 0 0 0 0 0 0 0 0 0 0 0 0 0 0 0 127 0" result="hardAlpha"/>
<feMorphology radius="2" operator="dilate" in="SourceAlpha" result="effect2_dropShadow_376_5369"/>
<feOffset dx="5" dy="5"/>
<feGaussianBlur stdDeviation="5"/>
<feComposite in2="hardAlpha" operator="out"/>
<feColorMatrix type="matrix" values="0 0 0 0 0.635294 0 0 0 0 0.705882 0 0 0 0 0.776471 0 0 0 0.12 0"/>
<feBlend mode="normal" in2="effect1_dropShadow_376_5369" result="effect2_dropShadow_376_5369"/>
<feBlend mode="normal" in="SourceGraphic" in2="effect2_dropShadow_376_5369" result="shape"/>
<feColorMatrix in="SourceAlpha" type="matrix" values="0 0 0 0 0 0 0 0 0 0 0 0 0 0 0 0 0 0 127 0" result="hardAlpha"/>
<feOffset dx="2" dy="2"/>
<feGaussianBlur stdDeviation="2"/>
<feComposite in2="hardAlpha" operator="arithmetic" k2="-1" k3="1"/>
<feColorMatrix type="matrix" values="0 0 0 0 1 0 0 0 0 1 0 0 0 0 1 0 0 0 0.5 0"/>
<feBlend mode="normal" in2="shape" result="effect3_innerShadow_376_5369"/>
</filter>
<linearGradient id="paint0_linear_376_5369" x1="38.2339" y1="34.1983" x2="53.1787" y2="48.994" gradientUnits="userSpaceOnUse">
<stop stop-color="#387EB8"/>
<stop offset="1" stop-color="#366994"/>
</linearGradient>
<linearGradient id="paint1_linear_376_5369" x1="47.4071" y1="43.6993" x2="63.4561" y2="58.8709" gradientUnits="userSpaceOnUse">
<stop stop-color="#FFE052"/>
<stop offset="1" stop-color="#FFC331"/>
</linearGradient>
</defs>
</svg>
