<svg width="206" height="95" viewBox="0 0 206 95" fill="none" xmlns="http://www.w3.org/2000/svg">
<g filter="url(#filter0_ddi_105_850)">
<path d="M49.6903 49.145C51.151 49.145 52.3352 47.9608 52.3352 46.5001C52.3352 45.0394 51.151 43.8552 49.6903 43.8552C48.2296 43.8552 47.0454 45.0394 47.0454 46.5001C47.0454 47.9608 48.2296 49.145 49.6903 49.145Z" fill="#61DAFB"/>
<path d="M49.6903 51.9188C57.5283 51.9188 63.8823 49.4928 63.8823 46.5001C63.8823 43.5074 57.5283 41.0813 49.6903 41.0813C41.8523 41.0813 35.4983 43.5074 35.4983 46.5001C35.4983 49.4928 41.8523 51.9188 49.6903 51.9188Z" stroke="#61DAFB" stroke-width="2"/>
<path d="M44.9975 49.2094C48.9165 55.9973 54.1945 60.287 56.7863 58.7906C59.378 57.2943 58.302 50.5785 54.383 43.7906C50.464 37.0027 45.186 32.713 42.5943 34.2094C40.0025 35.7057 41.0785 42.4215 44.9975 49.2094Z" stroke="#61DAFB" stroke-width="2"/>
<path d="M44.9975 43.7906C41.0785 50.5785 40.0025 57.2942 42.5943 58.7906C45.186 60.2869 50.464 55.9972 54.3831 49.2093C58.3021 42.4214 59.378 35.7057 56.7863 34.2093C54.1945 32.713 48.9165 37.0026 44.9975 43.7906Z" stroke="#61DAFB" stroke-width="2"/>
<path d="M73.4663 55V38.2H80.7623C81.8183 38.2 82.7383 38.384 83.5223 38.752C84.3063 39.12 84.9143 39.64 85.3463 40.312C85.7783 40.984 85.9943 41.776 85.9943 42.688V42.976C85.9943 43.984 85.7543 44.8 85.2743 45.424C84.7943 46.048 84.2023 46.504 83.4983 46.792V47.224C84.1383 47.256 84.6343 47.48 84.9863 47.896C85.3383 48.296 85.5143 48.832 85.5143 49.504V55H82.3463V49.96C82.3463 49.576 82.2423 49.264 82.0343 49.024C81.8423 48.784 81.5143 48.664 81.0503 48.664H76.6343V55H73.4663ZM76.6343 45.784H80.4263C81.1783 45.784 81.7623 45.584 82.1783 45.184C82.6103 44.768 82.8263 44.224 82.8263 43.552V43.312C82.8263 42.64 82.6183 42.104 82.2023 41.704C81.7863 41.288 81.1943 41.08 80.4263 41.08H76.6343V45.784ZM94.1503 55.336C92.9663 55.336 91.9183 55.088 91.0063 54.592C90.1103 54.08 89.4063 53.368 88.8943 52.456C88.3983 51.528 88.1503 50.44 88.1503 49.192V48.904C88.1503 47.656 88.3983 46.576 88.8943 45.664C89.3903 44.736 90.0863 44.024 90.9823 43.528C91.8783 43.016 92.9183 42.76 94.1023 42.76C95.2703 42.76 96.2863 43.024 97.1503 43.552C98.0143 44.064 98.6863 44.784 99.1663 45.712C99.6463 46.624 99.8863 47.688 99.8863 48.904V49.936H91.2223C91.2543 50.752 91.5583 51.416 92.1343 51.928C92.7103 52.44 93.4143 52.696 94.2463 52.696C95.0943 52.696 95.7183 52.512 96.1183 52.144C96.5183 51.776 96.8223 51.368 97.0303 50.92L99.5023 52.216C99.2783 52.632 98.9503 53.088 98.5183 53.584C98.1023 54.064 97.5423 54.48 96.8383 54.832C96.1343 55.168 95.2383 55.336 94.1503 55.336ZM91.2463 47.68H96.8143C96.7503 46.992 96.4703 46.44 95.9743 46.024C95.4943 45.608 94.8623 45.4 94.0783 45.4C93.2623 45.4 92.6143 45.608 92.1343 46.024C91.6543 46.44 91.3583 46.992 91.2463 47.68ZM106.274 55.336C105.426 55.336 104.666 55.192 103.994 54.904C103.322 54.6 102.786 54.168 102.386 53.608C102.002 53.032 101.81 52.336 101.81 51.52C101.81 50.704 102.002 50.024 102.386 49.48C102.786 48.92 103.33 48.504 104.018 48.232C104.722 47.944 105.522 47.8 106.418 47.8H109.682V47.128C109.682 46.568 109.506 46.112 109.154 45.76C108.802 45.392 108.242 45.208 107.474 45.208C106.722 45.208 106.162 45.384 105.794 45.736C105.426 46.072 105.186 46.512 105.074 47.056L102.29 46.12C102.482 45.512 102.786 44.96 103.202 44.464C103.634 43.952 104.202 43.544 104.906 43.24C105.626 42.92 106.498 42.76 107.522 42.76C109.09 42.76 110.33 43.152 111.242 43.936C112.154 44.72 112.61 45.856 112.61 47.344V51.784C112.61 52.264 112.834 52.504 113.282 52.504H114.242V55H112.226C111.634 55 111.146 54.856 110.762 54.568C110.378 54.28 110.186 53.896 110.186 53.416V53.392H109.73C109.666 53.584 109.522 53.84 109.298 54.16C109.074 54.464 108.722 54.736 108.242 54.976C107.762 55.216 107.106 55.336 106.274 55.336ZM106.802 52.888C107.65 52.888 108.338 52.656 108.866 52.192C109.41 51.712 109.682 51.08 109.682 50.296V50.056H106.634C106.074 50.056 105.634 50.176 105.314 50.416C104.994 50.656 104.834 50.992 104.834 51.424C104.834 51.856 105.002 52.208 105.338 52.48C105.674 52.752 106.162 52.888 106.802 52.888ZM121.811 55.336C120.659 55.336 119.611 55.096 118.667 54.616C117.739 54.136 117.003 53.44 116.459 52.528C115.915 51.616 115.643 50.512 115.643 49.216V48.88C115.643 47.584 115.915 46.48 116.459 45.568C117.003 44.656 117.739 43.96 118.667 43.48C119.611 43 120.659 42.76 121.811 42.76C122.947 42.76 123.923 42.96 124.739 43.36C125.555 43.76 126.211 44.312 126.707 45.016C127.219 45.704 127.555 46.488 127.715 47.368L124.787 47.992C124.723 47.512 124.579 47.08 124.355 46.696C124.131 46.312 123.811 46.008 123.395 45.784C122.995 45.56 122.491 45.448 121.883 45.448C121.275 45.448 120.723 45.584 120.227 45.856C119.747 46.112 119.363 46.504 119.075 47.032C118.803 47.544 118.667 48.176 118.667 48.928V49.168C118.667 49.92 118.803 50.56 119.075 51.088C119.363 51.6 119.747 51.992 120.227 52.264C120.723 52.52 121.275 52.648 121.883 52.648C122.795 52.648 123.483 52.416 123.947 51.952C124.427 51.472 124.731 50.848 124.859 50.08L127.787 50.776C127.579 51.624 127.219 52.4 126.707 53.104C126.211 53.792 125.555 54.336 124.739 54.736C123.923 55.136 122.947 55.336 121.811 55.336ZM134.466 55C133.682 55 133.042 54.76 132.546 54.28C132.066 53.784 131.826 53.128 131.826 52.312V45.592H128.85V43.096H131.826V39.4H134.85V43.096H138.114V45.592H134.85V51.784C134.85 52.264 135.074 52.504 135.522 52.504H137.826V55H134.466ZM145.579 55.336C143.851 55.336 142.475 54.864 141.451 53.92C140.443 52.976 139.939 51.656 139.939 49.96V48.376H143.107V49.96C143.107 50.712 143.315 51.304 143.731 51.736C144.147 52.152 144.731 52.36 145.483 52.36C146.187 52.36 146.731 52.152 147.115 51.736C147.515 51.32 147.715 50.728 147.715 49.96V41.08H144.835V38.2H152.803V41.08H150.883V49.96C150.883 51.704 150.411 53.04 149.467 53.968C148.523 54.88 147.227 55.336 145.579 55.336ZM161.236 55.336C159.94 55.336 158.796 55.104 157.804 54.64C156.812 54.176 156.036 53.512 155.476 52.648C154.916 51.784 154.636 50.744 154.636 49.528V48.856H157.756V49.528C157.756 50.536 158.068 51.296 158.692 51.808C159.316 52.304 160.164 52.552 161.236 52.552C162.324 52.552 163.132 52.336 163.66 51.904C164.204 51.472 164.476 50.92 164.476 50.248C164.476 49.784 164.34 49.408 164.068 49.12C163.812 48.832 163.428 48.6 162.916 48.424C162.42 48.232 161.812 48.056 161.092 47.896L160.54 47.776C159.388 47.52 158.396 47.2 157.564 46.816C156.748 46.416 156.116 45.896 155.668 45.256C155.236 44.616 155.02 43.784 155.02 42.76C155.02 41.736 155.26 40.864 155.74 40.144C156.236 39.408 156.924 38.848 157.804 38.464C158.7 38.064 159.748 37.864 160.948 37.864C162.148 37.864 163.212 38.072 164.14 38.488C165.084 38.888 165.82 39.496 166.348 40.312C166.892 41.112 167.164 42.12 167.164 43.336V44.056H164.044V43.336C164.044 42.696 163.916 42.184 163.66 41.8C163.42 41.4 163.068 41.112 162.604 40.936C162.14 40.744 161.588 40.648 160.948 40.648C159.988 40.648 159.276 40.832 158.812 41.2C158.364 41.552 158.14 42.04 158.14 42.664C158.14 43.08 158.244 43.432 158.452 43.72C158.676 44.008 159.004 44.248 159.436 44.44C159.868 44.632 160.42 44.8 161.092 44.944L161.644 45.064C162.844 45.32 163.884 45.648 164.764 46.048C165.66 46.448 166.356 46.976 166.852 47.632C167.348 48.288 167.596 49.128 167.596 50.152C167.596 51.176 167.332 52.08 166.804 52.864C166.292 53.632 165.556 54.24 164.596 54.688C163.652 55.12 162.532 55.336 161.236 55.336Z" fill="black"/>
<rect x="15.9983" y="15.5" width="172.384" height="62" rx="19.5" stroke="#F7F9FC"/>
</g>
<defs>
<filter id="filter0_ddi_105_850" x="0.498291" y="0" width="205.384" height="95" filterUnits="userSpaceOnUse" color-interpolation-filters="sRGB">
<feFlood flood-opacity="0" result="BackgroundImageFix"/>
<feColorMatrix in="SourceAlpha" type="matrix" values="0 0 0 0 0 0 0 0 0 0 0 0 0 0 0 0 0 0 127 0" result="hardAlpha"/>
<feMorphology radius="5" operator="dilate" in="SourceAlpha" result="effect1_dropShadow_105_850"/>
<feOffset dx="-5" dy="-5"/>
<feGaussianBlur stdDeviation="2.5"/>
<feColorMatrix type="matrix" values="0 0 0 0 1 0 0 0 0 1 0 0 0 0 1 0 0 0 0.4 0"/>
<feBlend mode="normal" in2="BackgroundImageFix" result="effect1_dropShadow_105_850"/>
<feColorMatrix in="SourceAlpha" type="matrix" values="0 0 0 0 0 0 0 0 0 0 0 0 0 0 0 0 0 0 127 0" result="hardAlpha"/>
<feMorphology radius="2" operator="dilate" in="SourceAlpha" result="effect2_dropShadow_105_850"/>
<feOffset dx="5" dy="5"/>
<feGaussianBlur stdDeviation="5"/>
<feComposite in2="hardAlpha" operator="out"/>
<feColorMatrix type="matrix" values="0 0 0 0 0.635294 0 0 0 0 0.705882 0 0 0 0 0.776471 0 0 0 0.12 0"/>
<feBlend mode="normal" in2="effect1_dropShadow_105_850" result="effect2_dropShadow_105_850"/>
<feBlend mode="normal" in="SourceGraphic" in2="effect2_dropShadow_105_850" result="shape"/>
<feColorMatrix in="SourceAlpha" type="matrix" values="0 0 0 0 0 0 0 0 0 0 0 0 0 0 0 0 0 0 127 0" result="hardAlpha"/>
<feOffset dx="2" dy="2"/>
<feGaussianBlur stdDeviation="2"/>
<feComposite in2="hardAlpha" operator="arithmetic" k2="-1" k3="1"/>
<feColorMatrix type="matrix" values="0 0 0 0 1 0 0 0 0 1 0 0 0 0 1 0 0 0 0.5 0"/>
<feBlend mode="normal" in2="shape" result="effect3_innerShadow_105_850"/>
</filter>
</defs>
</svg>
