<svg width="179" height="95" viewBox="0 0 179 95" fill="none" xmlns="http://www.w3.org/2000/svg">
<g filter="url(#filter0_ddi_105_842)">
<path d="M69.941 48.7458C68.5454 48.7531 67.3325 49.0892 66.3168 49.5861C65.9442 48.8481 65.5716 48.1905 65.5058 47.7083C65.4327 47.1457 65.3451 46.8022 65.4327 46.13C65.5204 45.4578 65.915 44.5006 65.9077 44.4275C65.9004 44.3545 65.82 44.0111 65.0163 44.0038C64.2125 43.9964 63.5184 44.1572 63.438 44.3691C63.3576 44.581 63.2042 45.0632 63.1019 45.5601C62.9631 46.2908 61.4944 48.8993 60.6541 50.2656C60.3838 49.7322 60.15 49.2646 60.0988 48.892C60.0258 48.3293 59.9381 47.9859 60.0258 47.3137C60.1134 46.6415 60.508 45.6843 60.5007 45.6112C60.4934 45.5382 60.413 45.1948 59.6093 45.1874C58.8055 45.1801 58.1114 45.3409 58.031 45.5528C57.9506 45.7647 57.863 46.2615 57.6949 46.7438C57.5268 47.226 55.5759 51.5808 55.0645 52.7061C54.8014 53.2833 54.5749 53.7436 54.4142 54.0578C54.4142 54.0578 54.4069 54.0797 54.3849 54.1163C54.2461 54.3866 54.1657 54.5328 54.1657 54.5328C54.1657 54.5328 54.1657 54.5328 54.1657 54.5401C54.0561 54.7374 53.9392 54.92 53.8808 54.92C53.8369 54.92 53.7566 54.3939 53.8954 53.6779C54.1877 52.1654 54.8818 49.8126 54.8745 49.7322C54.8745 49.6884 55.006 49.2792 54.4215 49.0673C53.8516 48.8554 53.647 49.2062 53.5958 49.2062C53.5447 49.2062 53.5081 49.3304 53.5081 49.3304C53.5081 49.3304 54.1438 46.6853 52.2952 46.6853C51.1408 46.6853 49.5479 47.9494 48.7588 49.0892C48.2619 49.3596 47.2024 49.9368 46.0699 50.5579C45.6388 50.799 45.1931 51.0401 44.7766 51.2667C44.7474 51.2374 44.7181 51.2009 44.6889 51.1717C42.453 48.7824 38.3174 47.0945 38.4928 43.8868C38.5586 42.7178 38.9604 39.6489 46.4352 35.9225C52.5875 32.8902 57.483 33.7305 58.3306 35.5937C59.5435 38.2534 55.7075 43.1927 49.3506 43.9088C46.9248 44.1791 45.6534 43.2439 45.3319 42.8931C44.9958 42.5278 44.9446 42.5059 44.8204 42.5789C44.6158 42.6885 44.7474 43.0173 44.8204 43.2073C45.0104 43.7042 45.7922 44.581 47.1147 45.0121C48.2838 45.392 51.1261 45.6039 54.5676 44.2741C58.4183 42.7835 61.4286 38.6406 60.5445 35.1699C59.6604 31.6481 53.815 30.4863 48.2838 32.4518C44.9958 33.6209 41.4301 35.4622 38.8654 37.8588C35.8185 40.7084 35.3363 43.1854 35.5336 44.223C36.2423 47.9056 41.3205 50.3022 43.3518 52.0777C43.2495 52.1362 43.1545 52.1873 43.0741 52.2311C42.0585 52.7353 38.1859 54.7593 37.2214 56.9001C36.1254 59.326 37.3968 61.065 38.2371 61.2988C40.8456 62.0222 43.5271 60.7216 44.9666 58.5734C46.406 56.4252 46.2306 53.634 45.5657 52.3554C45.5584 52.3407 45.5511 52.3261 45.5365 52.3115C45.7995 52.1581 46.0699 51.9973 46.3329 51.8439C46.8517 51.537 47.3632 51.252 47.8016 51.0182C47.5531 51.6978 47.3705 52.5088 47.2828 53.6779C47.1732 55.0515 47.7358 56.8344 48.4738 57.5358C48.8026 57.8427 49.1899 57.85 49.4383 57.85C50.3005 57.85 50.6877 57.134 51.1188 56.2864C51.6449 55.2488 52.1199 54.0432 52.1199 54.0432C52.1199 54.0432 51.528 57.302 53.1355 57.302C53.72 57.302 54.3119 56.5421 54.5749 56.1549C54.5749 56.1622 54.5749 56.1622 54.5749 56.1622C54.5749 56.1622 54.5895 56.1402 54.6188 56.0891C54.6772 55.9941 54.7138 55.9357 54.7138 55.9357C54.7138 55.9357 54.7138 55.9284 54.7138 55.921C54.9476 55.5119 55.4737 54.5839 56.2555 53.0422C57.2638 51.0548 58.2356 48.5705 58.2356 48.5705C58.2356 48.5705 58.3233 49.1769 58.6229 50.1853C58.7982 50.7771 59.1636 51.4274 59.4558 52.0558C59.222 52.3846 59.0759 52.5673 59.0759 52.5673C59.0759 52.5673 59.0759 52.5673 59.0832 52.5746C58.8932 52.823 58.6886 53.0933 58.4621 53.3564C57.6657 54.3063 56.7158 55.395 56.5843 55.7091C56.4308 56.0818 56.4674 56.3521 56.7596 56.5713C56.9715 56.7321 57.3515 56.754 57.7387 56.7321C58.4548 56.6809 58.959 56.5056 59.2074 56.396C59.5947 56.2572 60.0477 56.0453 60.4715 55.7311C61.2533 55.1538 61.7282 54.3282 61.6844 53.2395C61.6625 52.6403 61.4652 52.0412 61.2241 51.4785C61.2971 51.3763 61.3629 51.274 61.436 51.1717C62.6708 49.3669 63.628 47.3868 63.628 47.3868C63.628 47.3868 63.7157 47.9932 64.0152 49.0016C64.1614 49.513 64.4609 50.0683 64.724 50.609C63.5622 51.5516 62.8461 52.6476 62.5904 53.3637C62.1301 54.6935 62.4881 55.2927 63.1676 55.4315C63.4745 55.4973 63.9129 55.3511 64.2344 55.2123C64.6436 55.0808 65.1259 54.8543 65.5862 54.5182C66.368 53.9409 67.1206 53.1372 67.0768 52.0485C67.0548 51.5516 66.9233 51.0621 66.7406 50.5871C67.7271 50.178 68.9984 49.9514 70.6205 50.1414C74.0985 50.5506 74.7854 52.7207 74.6538 53.634C74.5223 54.5474 73.7916 55.0442 73.5505 55.1977C73.3094 55.3511 73.229 55.4023 73.2509 55.5119C73.2802 55.6726 73.3971 55.6653 73.6017 55.6361C73.8866 55.5849 75.4284 54.8981 75.4941 53.2176C75.6037 51.0694 73.5578 48.7239 69.941 48.7458ZM43.1107 57.7916C41.9562 59.0483 40.3487 59.5233 39.6546 59.1214C38.9093 58.6903 39.2015 56.8344 40.6191 55.5046C41.4813 54.6935 42.5919 53.9409 43.3299 53.4806C43.4979 53.3783 43.7463 53.2322 44.0459 53.0495C44.0971 53.0203 44.1263 53.0057 44.1263 53.0057C44.1847 52.9691 44.2432 52.9326 44.3017 52.8961C44.8204 54.7958 44.3236 56.469 43.1107 57.7916ZM51.5134 52.0777C51.1115 53.0568 50.2713 55.563 49.7598 55.4242C49.3214 55.3073 49.051 53.4075 49.6721 51.5297C49.9863 50.5871 50.6512 49.4619 51.0385 49.0235C51.6668 48.322 52.361 48.0882 52.529 48.3732C52.7409 48.7458 51.7618 51.4639 51.5134 52.0777ZM58.4475 55.395C58.2794 55.4826 58.1187 55.5411 58.0456 55.4973C57.9945 55.468 58.1187 55.3511 58.1187 55.3511C58.1187 55.3511 58.9882 54.4159 59.3316 53.9921C59.5289 53.7436 59.7627 53.4514 60.0111 53.1226C60.0111 53.1518 60.0111 53.1883 60.0111 53.2176C60.0111 54.3355 58.9297 55.0881 58.4475 55.395ZM63.796 54.1747C63.6718 54.0871 63.6937 53.7948 64.1102 52.8814C64.271 52.5234 64.6509 51.9243 65.3012 51.347C65.3743 51.5808 65.4254 51.8074 65.4181 52.0192C65.4108 53.4294 64.4025 53.9555 63.796 54.1747Z" fill="#CD6799"/>
<path d="M90.9143 55.336C89.6183 55.336 88.4743 55.104 87.4823 54.64C86.4903 54.176 85.7143 53.512 85.1543 52.648C84.5943 51.784 84.3143 50.744 84.3143 49.528V48.856H87.4343V49.528C87.4343 50.536 87.7463 51.296 88.3703 51.808C88.9943 52.304 89.8423 52.552 90.9143 52.552C92.0023 52.552 92.8103 52.336 93.3383 51.904C93.8823 51.472 94.1543 50.92 94.1543 50.248C94.1543 49.784 94.0183 49.408 93.7463 49.12C93.4903 48.832 93.1063 48.6 92.5943 48.424C92.0983 48.232 91.4903 48.056 90.7703 47.896L90.2183 47.776C89.0663 47.52 88.0743 47.2 87.2423 46.816C86.4263 46.416 85.7943 45.896 85.3463 45.256C84.9143 44.616 84.6983 43.784 84.6983 42.76C84.6983 41.736 84.9383 40.864 85.4183 40.144C85.9143 39.408 86.6023 38.848 87.4823 38.464C88.3783 38.064 89.4263 37.864 90.6263 37.864C91.8263 37.864 92.8903 38.072 93.8183 38.488C94.7623 38.888 95.4983 39.496 96.0263 40.312C96.5703 41.112 96.8423 42.12 96.8423 43.336V44.056H93.7223V43.336C93.7223 42.696 93.5943 42.184 93.3383 41.8C93.0983 41.4 92.7463 41.112 92.2823 40.936C91.8183 40.744 91.2663 40.648 90.6263 40.648C89.6663 40.648 88.9543 40.832 88.4903 41.2C88.0423 41.552 87.8183 42.04 87.8183 42.664C87.8183 43.08 87.9223 43.432 88.1303 43.72C88.3543 44.008 88.6823 44.248 89.1143 44.44C89.5463 44.632 90.0983 44.8 90.7703 44.944L91.3223 45.064C92.5223 45.32 93.5623 45.648 94.4423 46.048C95.3383 46.448 96.0343 46.976 96.5303 47.632C97.0263 48.288 97.2743 49.128 97.2743 50.152C97.2743 51.176 97.0103 52.08 96.4823 52.864C95.9703 53.632 95.2343 54.24 94.2743 54.688C93.3303 55.12 92.2103 55.336 90.9143 55.336ZM103.429 55.336C102.581 55.336 101.821 55.192 101.149 54.904C100.477 54.6 99.941 54.168 99.541 53.608C99.157 53.032 98.965 52.336 98.965 51.52C98.965 50.704 99.157 50.024 99.541 49.48C99.941 48.92 100.485 48.504 101.173 48.232C101.877 47.944 102.677 47.8 103.573 47.8H106.837V47.128C106.837 46.568 106.661 46.112 106.309 45.76C105.957 45.392 105.397 45.208 104.629 45.208C103.877 45.208 103.317 45.384 102.949 45.736C102.581 46.072 102.341 46.512 102.229 47.056L99.445 46.12C99.637 45.512 99.941 44.96 100.357 44.464C100.789 43.952 101.357 43.544 102.061 43.24C102.781 42.92 103.653 42.76 104.677 42.76C106.245 42.76 107.485 43.152 108.397 43.936C109.309 44.72 109.765 45.856 109.765 47.344V51.784C109.765 52.264 109.989 52.504 110.437 52.504H111.397V55H109.381C108.789 55 108.301 54.856 107.917 54.568C107.533 54.28 107.341 53.896 107.341 53.416V53.392H106.885C106.821 53.584 106.677 53.84 106.453 54.16C106.229 54.464 105.877 54.736 105.397 54.976C104.917 55.216 104.261 55.336 103.429 55.336ZM103.957 52.888C104.805 52.888 105.493 52.656 106.021 52.192C106.565 51.712 106.837 51.08 106.837 50.296V50.056H103.789C103.229 50.056 102.789 50.176 102.469 50.416C102.149 50.656 101.989 50.992 101.989 51.424C101.989 51.856 102.157 52.208 102.493 52.48C102.829 52.752 103.317 52.888 103.957 52.888ZM119.344 55.336C118.048 55.336 116.904 55.104 115.912 54.64C114.92 54.176 114.144 53.512 113.584 52.648C113.024 51.784 112.744 50.744 112.744 49.528V48.856H115.864V49.528C115.864 50.536 116.176 51.296 116.8 51.808C117.424 52.304 118.272 52.552 119.344 52.552C120.432 52.552 121.24 52.336 121.768 51.904C122.312 51.472 122.584 50.92 122.584 50.248C122.584 49.784 122.448 49.408 122.176 49.12C121.92 48.832 121.536 48.6 121.024 48.424C120.528 48.232 119.92 48.056 119.2 47.896L118.648 47.776C117.496 47.52 116.504 47.2 115.672 46.816C114.856 46.416 114.224 45.896 113.776 45.256C113.344 44.616 113.128 43.784 113.128 42.76C113.128 41.736 113.368 40.864 113.848 40.144C114.344 39.408 115.032 38.848 115.912 38.464C116.808 38.064 117.856 37.864 119.056 37.864C120.256 37.864 121.32 38.072 122.248 38.488C123.192 38.888 123.928 39.496 124.456 40.312C125 41.112 125.272 42.12 125.272 43.336V44.056H122.152V43.336C122.152 42.696 122.024 42.184 121.768 41.8C121.528 41.4 121.176 41.112 120.712 40.936C120.248 40.744 119.696 40.648 119.056 40.648C118.096 40.648 117.384 40.832 116.92 41.2C116.472 41.552 116.248 42.04 116.248 42.664C116.248 43.08 116.352 43.432 116.56 43.72C116.784 44.008 117.112 44.248 117.544 44.44C117.976 44.632 118.528 44.8 119.2 44.944L119.752 45.064C120.952 45.32 121.992 45.648 122.872 46.048C123.768 46.448 124.464 46.976 124.96 47.632C125.456 48.288 125.704 49.128 125.704 50.152C125.704 51.176 125.44 52.08 124.912 52.864C124.4 53.632 123.664 54.24 122.704 54.688C121.76 55.12 120.64 55.336 119.344 55.336ZM133.899 55.336C132.603 55.336 131.459 55.104 130.467 54.64C129.475 54.176 128.699 53.512 128.139 52.648C127.579 51.784 127.299 50.744 127.299 49.528V48.856H130.419V49.528C130.419 50.536 130.731 51.296 131.355 51.808C131.979 52.304 132.827 52.552 133.899 52.552C134.987 52.552 135.795 52.336 136.323 51.904C136.867 51.472 137.139 50.92 137.139 50.248C137.139 49.784 137.003 49.408 136.731 49.12C136.475 48.832 136.091 48.6 135.579 48.424C135.083 48.232 134.475 48.056 133.755 47.896L133.203 47.776C132.051 47.52 131.059 47.2 130.227 46.816C129.411 46.416 128.779 45.896 128.331 45.256C127.899 44.616 127.683 43.784 127.683 42.76C127.683 41.736 127.923 40.864 128.403 40.144C128.899 39.408 129.587 38.848 130.467 38.464C131.363 38.064 132.411 37.864 133.611 37.864C134.811 37.864 135.875 38.072 136.803 38.488C137.747 38.888 138.483 39.496 139.011 40.312C139.555 41.112 139.827 42.12 139.827 43.336V44.056H136.707V43.336C136.707 42.696 136.579 42.184 136.323 41.8C136.083 41.4 135.731 41.112 135.267 40.936C134.803 40.744 134.251 40.648 133.611 40.648C132.651 40.648 131.939 40.832 131.475 41.2C131.027 41.552 130.803 42.04 130.803 42.664C130.803 43.08 130.907 43.432 131.115 43.72C131.339 44.008 131.667 44.248 132.099 44.44C132.531 44.632 133.083 44.8 133.755 44.944L134.307 45.064C135.507 45.32 136.547 45.648 137.427 46.048C138.323 46.448 139.019 46.976 139.515 47.632C140.011 48.288 140.259 49.128 140.259 50.152C140.259 51.176 139.995 52.08 139.467 52.864C138.955 53.632 138.219 54.24 137.259 54.688C136.315 55.12 135.195 55.336 133.899 55.336Z" fill="black"/>
<rect x="15.9951" y="15.5" width="145.003" height="62" rx="19.5" stroke="#F7F9FC"/>
</g>
<defs>
<filter id="filter0_ddi_105_842" x="0.495117" y="0" width="178.003" height="95" filterUnits="userSpaceOnUse" color-interpolation-filters="sRGB">
<feFlood flood-opacity="0" result="BackgroundImageFix"/>
<feColorMatrix in="SourceAlpha" type="matrix" values="0 0 0 0 0 0 0 0 0 0 0 0 0 0 0 0 0 0 127 0" result="hardAlpha"/>
<feMorphology radius="5" operator="dilate" in="SourceAlpha" result="effect1_dropShadow_105_842"/>
<feOffset dx="-5" dy="-5"/>
<feGaussianBlur stdDeviation="2.5"/>
<feColorMatrix type="matrix" values="0 0 0 0 1 0 0 0 0 1 0 0 0 0 1 0 0 0 0.4 0"/>
<feBlend mode="normal" in2="BackgroundImageFix" result="effect1_dropShadow_105_842"/>
<feColorMatrix in="SourceAlpha" type="matrix" values="0 0 0 0 0 0 0 0 0 0 0 0 0 0 0 0 0 0 127 0" result="hardAlpha"/>
<feMorphology radius="2" operator="dilate" in="SourceAlpha" result="effect2_dropShadow_105_842"/>
<feOffset dx="5" dy="5"/>
<feGaussianBlur stdDeviation="5"/>
<feComposite in2="hardAlpha" operator="out"/>
<feColorMatrix type="matrix" values="0 0 0 0 0.635294 0 0 0 0 0.705882 0 0 0 0 0.776471 0 0 0 0.12 0"/>
<feBlend mode="normal" in2="effect1_dropShadow_105_842" result="effect2_dropShadow_105_842"/>
<feBlend mode="normal" in="SourceGraphic" in2="effect2_dropShadow_105_842" result="shape"/>
<feColorMatrix in="SourceAlpha" type="matrix" values="0 0 0 0 0 0 0 0 0 0 0 0 0 0 0 0 0 0 127 0" result="hardAlpha"/>
<feOffset dx="2" dy="2"/>
<feGaussianBlur stdDeviation="2"/>
<feComposite in2="hardAlpha" operator="arithmetic" k2="-1" k3="1"/>
<feColorMatrix type="matrix" values="0 0 0 0 1 0 0 0 0 1 0 0 0 0 1 0 0 0 0.5 0"/>
<feBlend mode="normal" in2="shape" result="effect3_innerShadow_105_842"/>
</filter>
</defs>
</svg>
