<svg width="239" height="95" viewBox="0 0 239 95" fill="none" xmlns="http://www.w3.org/2000/svg">
<g filter="url(#filter0_ddi_376_5399)">
<g clip-path="url(#clip0_376_5399)">
<path d="M51.5476 36.1152V40.7304L59.542 45.3456V40.7304L51.5476 36.1152ZM35.56 40.7304V45.3456L39.5572 47.6532V43.038L35.56 40.7304ZM47.5504 43.038L43.5532 45.3456V59.1912L47.5504 61.5V52.2696L51.5476 54.5772V49.962L47.5504 47.6544V43.038Z" fill="#E55B2D"/>
<path d="M51.5476 36.1152L39.5572 43.038V47.6532L47.5516 43.038V47.6532L51.5488 45.3456V36.1152H51.5476ZM63.538 38.4228L59.5408 40.7304V45.3456L63.538 43.038V38.4228ZM55.5448 47.6544L51.5476 49.962V54.5772L55.5448 52.2696V47.6544ZM51.5476 54.5772L47.5504 52.2696V61.5L51.5476 59.1924V54.5772Z" fill="#ED8E24"/>
<path d="M51.5476 31.5L35.56 40.7304L39.5572 43.038L51.5476 36.1152L59.542 40.7304L63.5392 38.4228L51.5476 31.5ZM51.5476 45.3456L47.5504 47.6532L51.5476 49.9608L55.5448 47.6532L51.5476 45.3456Z" fill="#F8BF3C"/>
</g>
<path d="M77.01 55V41.08H72.114V38.2H85.074V41.08H80.178V55H77.01ZM90.5013 55.336C89.3173 55.336 88.2693 55.088 87.3573 54.592C86.4613 54.08 85.7573 53.368 85.2453 52.456C84.7493 51.528 84.5013 50.44 84.5013 49.192V48.904C84.5013 47.656 84.7493 46.576 85.2453 45.664C85.7413 44.736 86.4373 44.024 87.3333 43.528C88.2293 43.016 89.2693 42.76 90.4533 42.76C91.6213 42.76 92.6373 43.024 93.5013 43.552C94.3653 44.064 95.0373 44.784 95.5173 45.712C95.9973 46.624 96.2373 47.688 96.2373 48.904V49.936H87.5733C87.6053 50.752 87.9093 51.416 88.4853 51.928C89.0613 52.44 89.7653 52.696 90.5973 52.696C91.4453 52.696 92.0693 52.512 92.4693 52.144C92.8693 51.776 93.1733 51.368 93.3813 50.92L95.8533 52.216C95.6293 52.632 95.3013 53.088 94.8693 53.584C94.4533 54.064 93.8933 54.48 93.1893 54.832C92.4853 55.168 91.5893 55.336 90.5013 55.336ZM87.5973 47.68H93.1653C93.1013 46.992 92.8213 46.44 92.3253 46.024C91.8453 45.608 91.2133 45.4 90.4293 45.4C89.6133 45.4 88.9653 45.608 88.4853 46.024C88.0053 46.44 87.7093 46.992 87.5973 47.68ZM98.9289 55V43.096H101.905V44.656H102.337C102.529 44.24 102.889 43.848 103.417 43.48C103.945 43.096 104.745 42.904 105.817 42.904C106.745 42.904 107.553 43.12 108.241 43.552C108.945 43.968 109.489 44.552 109.873 45.304C110.257 46.04 110.449 46.904 110.449 47.896V55H107.425V48.136C107.425 47.24 107.201 46.568 106.753 46.12C106.321 45.672 105.697 45.448 104.881 45.448C103.953 45.448 103.233 45.76 102.721 46.384C102.209 46.992 101.953 47.848 101.953 48.952V55H98.9289ZM118.662 55.336C117.11 55.336 115.838 55 114.846 54.328C113.854 53.656 113.254 52.696 113.046 51.448L115.83 50.728C115.942 51.288 116.126 51.728 116.382 52.048C116.654 52.368 116.982 52.6 117.366 52.744C117.766 52.872 118.198 52.936 118.662 52.936C119.366 52.936 119.886 52.816 120.222 52.576C120.558 52.32 120.726 52.008 120.726 51.64C120.726 51.272 120.566 50.992 120.246 50.8C119.926 50.592 119.414 50.424 118.71 50.296L118.038 50.176C117.206 50.016 116.446 49.8 115.758 49.528C115.07 49.24 114.518 48.848 114.102 48.352C113.686 47.856 113.478 47.216 113.478 46.432C113.478 45.248 113.91 44.344 114.774 43.72C115.638 43.08 116.774 42.76 118.182 42.76C119.51 42.76 120.614 43.056 121.494 43.648C122.374 44.24 122.95 45.016 123.222 45.976L120.414 46.84C120.286 46.232 120.022 45.8 119.622 45.544C119.238 45.288 118.758 45.16 118.182 45.16C117.606 45.16 117.166 45.264 116.862 45.472C116.558 45.664 116.406 45.936 116.406 46.288C116.406 46.672 116.566 46.96 116.886 47.152C117.206 47.328 117.638 47.464 118.182 47.56L118.854 47.68C119.75 47.84 120.558 48.056 121.278 48.328C122.014 48.584 122.59 48.96 123.006 49.456C123.438 49.936 123.654 50.592 123.654 51.424C123.654 52.672 123.198 53.64 122.286 54.328C121.39 55 120.182 55.336 118.662 55.336ZM131.968 55.336C130.784 55.336 129.72 55.096 128.776 54.616C127.832 54.136 127.088 53.44 126.544 52.528C126 51.616 125.728 50.52 125.728 49.24V48.856C125.728 47.576 126 46.48 126.544 45.568C127.088 44.656 127.832 43.96 128.776 43.48C129.72 43 130.784 42.76 131.968 42.76C133.152 42.76 134.216 43 135.16 43.48C136.104 43.96 136.848 44.656 137.392 45.568C137.936 46.48 138.208 47.576 138.208 48.856V49.24C138.208 50.52 137.936 51.616 137.392 52.528C136.848 53.44 136.104 54.136 135.16 54.616C134.216 55.096 133.152 55.336 131.968 55.336ZM131.968 52.648C132.896 52.648 133.664 52.352 134.272 51.76C134.88 51.152 135.184 50.288 135.184 49.168V48.928C135.184 47.808 134.88 46.952 134.272 46.36C133.68 45.752 132.912 45.448 131.968 45.448C131.04 45.448 130.272 45.752 129.664 46.36C129.056 46.952 128.752 47.808 128.752 48.928V49.168C128.752 50.288 129.056 51.152 129.664 51.76C130.272 52.352 131.04 52.648 131.968 52.648ZM140.999 55V43.096H143.975V44.44H144.407C144.583 43.96 144.871 43.608 145.271 43.384C145.687 43.16 146.167 43.048 146.711 43.048H148.151V45.736H146.663C145.895 45.736 145.263 45.944 144.767 46.36C144.271 46.76 144.023 47.384 144.023 48.232V55H140.999ZM150.419 55V38.2H160.979V41.08H153.587V45.136H160.403V48.016H153.587V55H150.419ZM163.335 55V38.2H166.359V55H163.335ZM175.374 55.336C174.19 55.336 173.126 55.096 172.182 54.616C171.238 54.136 170.494 53.44 169.95 52.528C169.406 51.616 169.134 50.52 169.134 49.24V48.856C169.134 47.576 169.406 46.48 169.95 45.568C170.494 44.656 171.238 43.96 172.182 43.48C173.126 43 174.19 42.76 175.374 42.76C176.558 42.76 177.622 43 178.566 43.48C179.51 43.96 180.254 44.656 180.798 45.568C181.342 46.48 181.614 47.576 181.614 48.856V49.24C181.614 50.52 181.342 51.616 180.798 52.528C180.254 53.44 179.51 54.136 178.566 54.616C177.622 55.096 176.558 55.336 175.374 55.336ZM175.374 52.648C176.302 52.648 177.07 52.352 177.678 51.76C178.286 51.152 178.59 50.288 178.59 49.168V48.928C178.59 47.808 178.286 46.952 177.678 46.36C177.086 45.752 176.318 45.448 175.374 45.448C174.446 45.448 173.678 45.752 173.07 46.36C172.462 46.952 172.158 47.808 172.158 48.928V49.168C172.158 50.288 172.462 51.152 173.07 51.76C173.678 52.352 174.446 52.648 175.374 52.648ZM185.319 55L183.639 43.096H186.639L187.695 52.96H188.127L189.663 43.096H194.511L196.047 52.96H196.479L197.535 43.096H200.535L198.855 55H193.839L192.303 45.136H191.871L190.335 55H185.319Z" fill="black"/>
<rect x="16.06" y="15.5" width="204.978" height="62" rx="19.5" stroke="#F7F9FC"/>
</g>
<defs>
<filter id="filter0_ddi_376_5399" x="0.559967" y="0" width="237.978" height="95" filterUnits="userSpaceOnUse" color-interpolation-filters="sRGB">
<feFlood flood-opacity="0" result="BackgroundImageFix"/>
<feColorMatrix in="SourceAlpha" type="matrix" values="0 0 0 0 0 0 0 0 0 0 0 0 0 0 0 0 0 0 127 0" result="hardAlpha"/>
<feMorphology radius="5" operator="dilate" in="SourceAlpha" result="effect1_dropShadow_376_5399"/>
<feOffset dx="-5" dy="-5"/>
<feGaussianBlur stdDeviation="2.5"/>
<feColorMatrix type="matrix" values="0 0 0 0 1 0 0 0 0 1 0 0 0 0 1 0 0 0 0.4 0"/>
<feBlend mode="normal" in2="BackgroundImageFix" result="effect1_dropShadow_376_5399"/>
<feColorMatrix in="SourceAlpha" type="matrix" values="0 0 0 0 0 0 0 0 0 0 0 0 0 0 0 0 0 0 127 0" result="hardAlpha"/>
<feMorphology radius="2" operator="dilate" in="SourceAlpha" result="effect2_dropShadow_376_5399"/>
<feOffset dx="5" dy="5"/>
<feGaussianBlur stdDeviation="5"/>
<feComposite in2="hardAlpha" operator="out"/>
<feColorMatrix type="matrix" values="0 0 0 0 0.635294 0 0 0 0 0.705882 0 0 0 0 0.776471 0 0 0 0.12 0"/>
<feBlend mode="normal" in2="effect1_dropShadow_376_5399" result="effect2_dropShadow_376_5399"/>
<feBlend mode="normal" in="SourceGraphic" in2="effect2_dropShadow_376_5399" result="shape"/>
<feColorMatrix in="SourceAlpha" type="matrix" values="0 0 0 0 0 0 0 0 0 0 0 0 0 0 0 0 0 0 127 0" result="hardAlpha"/>
<feOffset dx="2" dy="2"/>
<feGaussianBlur stdDeviation="2"/>
<feComposite in2="hardAlpha" operator="arithmetic" k2="-1" k3="1"/>
<feColorMatrix type="matrix" values="0 0 0 0 1 0 0 0 0 1 0 0 0 0 1 0 0 0 0.5 0"/>
<feBlend mode="normal" in2="shape" result="effect3_innerShadow_376_5399"/>
</filter>
<clipPath id="clip0_376_5399">
<rect width="27.978" height="30" fill="white" transform="translate(35.56 31.5)"/>
</clipPath>
</defs>
</svg>
