<svg width="215" height="94" viewBox="0 0 215 94" fill="none" xmlns="http://www.w3.org/2000/svg">
<g filter="url(#filter0_ddi_376_5439)">
<g clip-path="url(#clip0_376_5439)">
<path d="M70.9488 31.5017H35.8097C35.4153 31.5017 35.0955 31.8215 35.0955 32.2159V60.6903C35.0955 61.0848 35.4153 61.4045 35.8097 61.4045H70.9488C71.3433 61.4045 71.663 61.0848 71.663 60.6903V32.2159C71.663 31.8215 71.3433 31.5017 70.9488 31.5017Z" fill="black"/>
<path d="M39.1295 34.6119C39.0074 34.4896 38.8598 34.4285 38.687 34.4285C38.5141 34.4285 38.3661 34.4902 38.2427 34.6136C38.121 34.7353 38.0593 34.8833 38.0593 35.0561C38.0593 35.229 38.121 35.3771 38.2427 35.4986L40.1628 37.4187L38.2444 39.3371C38.121 39.4605 38.0593 39.6085 38.0576 39.7813C38.0593 39.9542 38.121 40.1023 38.2427 40.2238C38.3661 40.3455 38.5141 40.4073 38.6852 40.409C38.8598 40.409 39.0079 40.3473 39.1313 40.2238L41.2647 38.0888C41.7125 37.6427 41.7125 37.1949 41.2647 36.7469L39.1295 34.6119ZM47.4922 39.3405C47.3688 39.2171 47.2189 39.1554 47.0444 39.1554V39.1545H42.9257V39.1554C42.7511 39.1554 42.6028 39.2171 42.4796 39.3405C42.3561 39.4639 42.2944 39.6121 42.2944 39.7866C42.2944 39.9612 42.3561 40.111 42.4796 40.2344C42.603 40.3578 42.751 40.4195 42.9257 40.4195V40.4187H47.0442V40.4195C47.2188 40.4195 47.3685 40.3578 47.492 40.2344C47.6154 40.111 47.6771 39.9612 47.6771 39.7866C47.6771 39.6121 47.6156 39.4639 47.4922 39.3405Z" fill="#F7F9FC"/>
</g>
<path d="M85.135 55V41.08H80.239V38.2H93.199V41.08H88.303V55H85.135ZM98.6264 55.336C97.4424 55.336 96.3944 55.088 95.4824 54.592C94.5864 54.08 93.8824 53.368 93.3704 52.456C92.8744 51.528 92.6264 50.44 92.6264 49.192V48.904C92.6264 47.656 92.8744 46.576 93.3704 45.664C93.8664 44.736 94.5624 44.024 95.4584 43.528C96.3544 43.016 97.3944 42.76 98.5784 42.76C99.7464 42.76 100.762 43.024 101.626 43.552C102.49 44.064 103.162 44.784 103.642 45.712C104.122 46.624 104.362 47.688 104.362 48.904V49.936H95.6984C95.7304 50.752 96.0344 51.416 96.6104 51.928C97.1864 52.44 97.8904 52.696 98.7224 52.696C99.5704 52.696 100.194 52.512 100.594 52.144C100.994 51.776 101.298 51.368 101.506 50.92L103.978 52.216C103.754 52.632 103.426 53.088 102.994 53.584C102.578 54.064 102.018 54.48 101.314 54.832C100.61 55.168 99.7144 55.336 98.6264 55.336ZM95.7224 47.68H101.29C101.226 46.992 100.946 46.44 100.45 46.024C99.9704 45.608 99.3384 45.4 98.5544 45.4C97.7384 45.4 97.0904 45.608 96.6104 46.024C96.1304 46.44 95.8344 46.992 95.7224 47.68ZM107.054 55V43.096H110.03V44.44H110.462C110.638 43.96 110.926 43.608 111.326 43.384C111.742 43.16 112.222 43.048 112.766 43.048H114.206V45.736H112.718C111.95 45.736 111.318 45.944 110.822 46.36C110.326 46.76 110.078 47.384 110.078 48.232V55H107.054ZM116.57 55V43.096H119.546V44.392H119.978C120.186 43.992 120.53 43.648 121.01 43.36C121.49 43.056 122.122 42.904 122.906 42.904C123.754 42.904 124.434 43.072 124.946 43.408C125.458 43.728 125.85 44.152 126.122 44.68H126.554C126.826 44.168 127.21 43.744 127.706 43.408C128.202 43.072 128.906 42.904 129.818 42.904C130.554 42.904 131.218 43.064 131.81 43.384C132.418 43.688 132.898 44.16 133.25 44.8C133.618 45.424 133.802 46.216 133.802 47.176V55H130.778V47.392C130.778 46.736 130.61 46.248 130.274 45.928C129.938 45.592 129.466 45.424 128.858 45.424C128.17 45.424 127.634 45.648 127.25 46.096C126.882 46.528 126.698 47.152 126.698 47.968V55H123.674V47.392C123.674 46.736 123.506 46.248 123.17 45.928C122.834 45.592 122.362 45.424 121.754 45.424C121.066 45.424 120.53 45.648 120.146 46.096C119.778 46.528 119.594 47.152 119.594 47.968V55H116.57ZM137.054 55V43.096H140.078V55H137.054ZM138.566 41.704C138.022 41.704 137.558 41.528 137.174 41.176C136.806 40.824 136.622 40.36 136.622 39.784C136.622 39.208 136.806 38.744 137.174 38.392C137.558 38.04 138.022 37.864 138.566 37.864C139.126 37.864 139.59 38.04 139.958 38.392C140.326 38.744 140.51 39.208 140.51 39.784C140.51 40.36 140.326 40.824 139.958 41.176C139.59 41.528 139.126 41.704 138.566 41.704ZM143.429 55V43.096H146.405V44.656H146.837C147.029 44.24 147.389 43.848 147.917 43.48C148.445 43.096 149.245 42.904 150.317 42.904C151.245 42.904 152.053 43.12 152.741 43.552C153.445 43.968 153.989 44.552 154.373 45.304C154.757 46.04 154.949 46.904 154.949 47.896V55H151.925V48.136C151.925 47.24 151.701 46.568 151.253 46.12C150.821 45.672 150.197 45.448 149.381 45.448C148.453 45.448 147.733 45.76 147.221 46.384C146.709 46.992 146.453 47.848 146.453 48.952V55H143.429ZM161.914 55.336C161.066 55.336 160.306 55.192 159.634 54.904C158.962 54.6 158.426 54.168 158.026 53.608C157.642 53.032 157.45 52.336 157.45 51.52C157.45 50.704 157.642 50.024 158.026 49.48C158.426 48.92 158.97 48.504 159.658 48.232C160.362 47.944 161.162 47.8 162.058 47.8H165.322V47.128C165.322 46.568 165.146 46.112 164.794 45.76C164.442 45.392 163.882 45.208 163.114 45.208C162.362 45.208 161.802 45.384 161.434 45.736C161.066 46.072 160.826 46.512 160.714 47.056L157.93 46.12C158.122 45.512 158.426 44.96 158.842 44.464C159.274 43.952 159.842 43.544 160.546 43.24C161.266 42.92 162.138 42.76 163.162 42.76C164.73 42.76 165.97 43.152 166.882 43.936C167.794 44.72 168.25 45.856 168.25 47.344V51.784C168.25 52.264 168.474 52.504 168.922 52.504H169.882V55H167.866C167.274 55 166.786 54.856 166.402 54.568C166.018 54.28 165.826 53.896 165.826 53.416V53.392H165.37C165.306 53.584 165.162 53.84 164.938 54.16C164.714 54.464 164.362 54.736 163.882 54.976C163.402 55.216 162.746 55.336 161.914 55.336ZM162.442 52.888C163.29 52.888 163.978 52.656 164.506 52.192C165.05 51.712 165.322 51.08 165.322 50.296V50.056H162.274C161.714 50.056 161.274 50.176 160.954 50.416C160.634 50.656 160.474 50.992 160.474 51.424C160.474 51.856 160.642 52.208 160.978 52.48C161.314 52.752 161.802 52.888 162.442 52.888ZM172.093 55V38.2H175.117V55H172.093Z" fill="black"/>
<rect x="15.5955" y="15.5" width="181.568" height="62" rx="19.5" stroke="#F7F9FC"/>
</g>
<defs>
<filter id="filter0_ddi_376_5439" x="0.0954895" y="0" width="214.568" height="95" filterUnits="userSpaceOnUse" color-interpolation-filters="sRGB">
<feFlood flood-opacity="0" result="BackgroundImageFix"/>
<feColorMatrix in="SourceAlpha" type="matrix" values="0 0 0 0 0 0 0 0 0 0 0 0 0 0 0 0 0 0 127 0" result="hardAlpha"/>
<feMorphology radius="5" operator="dilate" in="SourceAlpha" result="effect1_dropShadow_376_5439"/>
<feOffset dx="-5" dy="-5"/>
<feGaussianBlur stdDeviation="2.5"/>
<feColorMatrix type="matrix" values="0 0 0 0 1 0 0 0 0 1 0 0 0 0 1 0 0 0 0.4 0"/>
<feBlend mode="normal" in2="BackgroundImageFix" result="effect1_dropShadow_376_5439"/>
<feColorMatrix in="SourceAlpha" type="matrix" values="0 0 0 0 0 0 0 0 0 0 0 0 0 0 0 0 0 0 127 0" result="hardAlpha"/>
<feMorphology radius="2" operator="dilate" in="SourceAlpha" result="effect2_dropShadow_376_5439"/>
<feOffset dx="5" dy="5"/>
<feGaussianBlur stdDeviation="5"/>
<feComposite in2="hardAlpha" operator="out"/>
<feColorMatrix type="matrix" values="0 0 0 0 0.635294 0 0 0 0 0.705882 0 0 0 0 0.776471 0 0 0 0.12 0"/>
<feBlend mode="normal" in2="effect1_dropShadow_376_5439" result="effect2_dropShadow_376_5439"/>
<feBlend mode="normal" in="SourceGraphic" in2="effect2_dropShadow_376_5439" result="shape"/>
<feColorMatrix in="SourceAlpha" type="matrix" values="0 0 0 0 0 0 0 0 0 0 0 0 0 0 0 0 0 0 127 0" result="hardAlpha"/>
<feOffset dx="2" dy="2"/>
<feGaussianBlur stdDeviation="2"/>
<feComposite in2="hardAlpha" operator="arithmetic" k2="-1" k3="1"/>
<feColorMatrix type="matrix" values="0 0 0 0 1 0 0 0 0 1 0 0 0 0 1 0 0 0 0.5 0"/>
<feBlend mode="normal" in2="shape" result="effect3_innerShadow_376_5439"/>
</filter>
<clipPath id="clip0_376_5439">
<rect width="36.5675" height="30" fill="white" transform="translate(35.0955 31.5)"/>
</clipPath>
</defs>
</svg>
