<svg width="207" height="95" viewBox="0 0 207 95" fill="none" xmlns="http://www.w3.org/2000/svg">
<g filter="url(#filter0_ddi_376_5427)">
<path d="M36.0966 41.9614C36.0966 41.9614 35.358 41.429 36.2443 40.7182L38.3093 38.8717C38.3093 38.8717 38.9002 38.25 39.5249 38.7917L58.5805 53.2188V60.1369C58.5805 60.1369 58.5712 61.2232 57.1771 61.1032L36.0966 41.9614Z" fill="#2489CA"/>
<path d="M41.0082 46.4207L36.0966 50.886C36.0966 50.886 35.5919 51.2615 36.0966 51.9324L38.377 54.0066C38.377 54.0066 38.9186 54.5882 39.7188 53.9265L44.9258 49.9782L41.0082 46.4207Z" fill="#1070B3"/>
<path d="M49.6313 46.4576L58.639 39.5795L58.5805 32.6983C58.5805 32.6983 58.1958 31.1965 56.9125 31.9781L44.9258 42.8877L49.6313 46.4576Z" fill="#0877B9"/>
<path d="M57.1771 61.1125C57.7003 61.6479 58.3343 61.4725 58.3343 61.4725L65.3539 58.0135C66.2525 57.401 66.1264 56.6409 66.1264 56.6409V35.985C66.1264 35.0772 65.197 34.7633 65.197 34.7633L59.1129 31.8305C57.7834 31.0088 56.9125 31.9782 56.9125 31.9782C56.9125 31.9782 58.0327 31.1719 58.5805 32.6983V60.0107C58.5805 60.1984 58.5404 60.3831 58.4604 60.5493C58.3004 60.8724 57.9527 61.174 57.1187 61.0478L57.1771 61.1125Z" fill="#3C99D4"/>
<path d="M78.8364 55L74.5644 38.2H77.8284L81.3804 52.96H81.7164L85.2684 38.2H88.5324L84.2604 55H78.8364ZM96.1969 55.336C94.9009 55.336 93.7569 55.104 92.7649 54.64C91.7729 54.176 90.9969 53.512 90.4369 52.648C89.8769 51.784 89.5969 50.744 89.5969 49.528V48.856H92.7169V49.528C92.7169 50.536 93.0289 51.296 93.6529 51.808C94.2769 52.304 95.1249 52.552 96.1969 52.552C97.2849 52.552 98.0929 52.336 98.6209 51.904C99.1649 51.472 99.4369 50.92 99.4369 50.248C99.4369 49.784 99.3009 49.408 99.0289 49.12C98.7729 48.832 98.3889 48.6 97.8769 48.424C97.3809 48.232 96.7729 48.056 96.0529 47.896L95.5009 47.776C94.3489 47.52 93.3569 47.2 92.5249 46.816C91.7089 46.416 91.0769 45.896 90.6289 45.256C90.1969 44.616 89.9809 43.784 89.9809 42.76C89.9809 41.736 90.2209 40.864 90.7009 40.144C91.1969 39.408 91.8849 38.848 92.7649 38.464C93.6609 38.064 94.7089 37.864 95.9089 37.864C97.1089 37.864 98.1729 38.072 99.1009 38.488C100.045 38.888 100.781 39.496 101.309 40.312C101.853 41.112 102.125 42.12 102.125 43.336V44.056H99.0049V43.336C99.0049 42.696 98.8769 42.184 98.6209 41.8C98.3809 41.4 98.0289 41.112 97.5649 40.936C97.1009 40.744 96.5489 40.648 95.9089 40.648C94.9489 40.648 94.2369 40.832 93.7729 41.2C93.3249 41.552 93.1009 42.04 93.1009 42.664C93.1009 43.08 93.2049 43.432 93.4129 43.72C93.6369 44.008 93.9649 44.248 94.3969 44.44C94.8289 44.632 95.3809 44.8 96.0529 44.944L96.6049 45.064C97.8049 45.32 98.8449 45.648 99.7249 46.048C100.621 46.448 101.317 46.976 101.813 47.632C102.309 48.288 102.557 49.128 102.557 50.152C102.557 51.176 102.293 52.08 101.765 52.864C101.253 53.632 100.517 54.24 99.5569 54.688C98.6129 55.12 97.4929 55.336 96.1969 55.336ZM117.397 55.336C115.317 55.336 113.669 54.76 112.453 53.608C111.237 52.44 110.629 50.776 110.629 48.616V44.584C110.629 42.424 111.237 40.768 112.453 39.616C113.669 38.448 115.317 37.864 117.397 37.864C119.461 37.864 121.053 38.432 122.173 39.568C123.309 40.688 123.877 42.232 123.877 44.2V44.344H120.757V44.104C120.757 43.112 120.477 42.296 119.917 41.656C119.373 41.016 118.533 40.696 117.397 40.696C116.277 40.696 115.397 41.04 114.757 41.728C114.117 42.416 113.797 43.352 113.797 44.536V48.664C113.797 49.832 114.117 50.768 114.757 51.472C115.397 52.16 116.277 52.504 117.397 52.504C118.533 52.504 119.373 52.184 119.917 51.544C120.477 50.888 120.757 50.072 120.757 49.096V48.664H123.877V49C123.877 50.968 123.309 52.52 122.173 53.656C121.053 54.776 119.461 55.336 117.397 55.336ZM132.219 55.336C131.035 55.336 129.971 55.096 129.027 54.616C128.083 54.136 127.339 53.44 126.795 52.528C126.251 51.616 125.979 50.52 125.979 49.24V48.856C125.979 47.576 126.251 46.48 126.795 45.568C127.339 44.656 128.083 43.96 129.027 43.48C129.971 43 131.035 42.76 132.219 42.76C133.403 42.76 134.467 43 135.411 43.48C136.355 43.96 137.099 44.656 137.643 45.568C138.187 46.48 138.459 47.576 138.459 48.856V49.24C138.459 50.52 138.187 51.616 137.643 52.528C137.099 53.44 136.355 54.136 135.411 54.616C134.467 55.096 133.403 55.336 132.219 55.336ZM132.219 52.648C133.147 52.648 133.915 52.352 134.523 51.76C135.131 51.152 135.435 50.288 135.435 49.168V48.928C135.435 47.808 135.131 46.952 134.523 46.36C133.931 45.752 133.163 45.448 132.219 45.448C131.291 45.448 130.523 45.752 129.915 46.36C129.307 46.952 129.003 47.808 129.003 48.928V49.168C129.003 50.288 129.307 51.152 129.915 51.76C130.523 52.352 131.291 52.648 132.219 52.648ZM146.05 55.336C145.106 55.336 144.218 55.104 143.386 54.64C142.57 54.16 141.914 53.464 141.418 52.552C140.922 51.64 140.674 50.536 140.674 49.24V48.856C140.674 47.56 140.922 46.456 141.418 45.544C141.914 44.632 142.57 43.944 143.386 43.48C144.202 43 145.09 42.76 146.05 42.76C146.77 42.76 147.37 42.848 147.85 43.024C148.346 43.184 148.746 43.392 149.05 43.648C149.354 43.904 149.586 44.176 149.746 44.464H150.178V38.2H153.202V55H150.226V53.56H149.794C149.522 54.008 149.098 54.416 148.522 54.784C147.962 55.152 147.138 55.336 146.05 55.336ZM146.962 52.696C147.89 52.696 148.666 52.4 149.29 51.808C149.914 51.2 150.226 50.32 150.226 49.168V48.928C150.226 47.776 149.914 46.904 149.29 46.312C148.682 45.704 147.906 45.4 146.962 45.4C146.034 45.4 145.258 45.704 144.634 46.312C144.01 46.904 143.698 47.776 143.698 48.928V49.168C143.698 50.32 144.01 51.2 144.634 51.808C145.258 52.4 146.034 52.696 146.962 52.696ZM161.979 55.336C160.795 55.336 159.747 55.088 158.835 54.592C157.939 54.08 157.235 53.368 156.723 52.456C156.227 51.528 155.979 50.44 155.979 49.192V48.904C155.979 47.656 156.227 46.576 156.723 45.664C157.219 44.736 157.915 44.024 158.811 43.528C159.707 43.016 160.747 42.76 161.931 42.76C163.099 42.76 164.115 43.024 164.979 43.552C165.843 44.064 166.515 44.784 166.995 45.712C167.475 46.624 167.715 47.688 167.715 48.904V49.936H159.051C159.083 50.752 159.387 51.416 159.963 51.928C160.539 52.44 161.243 52.696 162.075 52.696C162.923 52.696 163.547 52.512 163.947 52.144C164.347 51.776 164.651 51.368 164.859 50.92L167.331 52.216C167.107 52.632 166.779 53.088 166.347 53.584C165.931 54.064 165.371 54.48 164.667 54.832C163.963 55.168 163.067 55.336 161.979 55.336ZM159.075 47.68H164.643C164.579 46.992 164.299 46.44 163.803 46.024C163.323 45.608 162.691 45.4 161.907 45.4C161.091 45.4 160.443 45.608 159.963 46.024C159.483 46.44 159.187 46.992 159.075 47.68Z" fill="black"/>
<rect x="16.3081" y="15.5" width="172.324" height="62" rx="19.5" stroke="#F7F9FC"/>
</g>
<defs>
<filter id="filter0_ddi_376_5427" x="0.808105" y="0" width="205.324" height="95" filterUnits="userSpaceOnUse" color-interpolation-filters="sRGB">
<feFlood flood-opacity="0" result="BackgroundImageFix"/>
<feColorMatrix in="SourceAlpha" type="matrix" values="0 0 0 0 0 0 0 0 0 0 0 0 0 0 0 0 0 0 127 0" result="hardAlpha"/>
<feMorphology radius="5" operator="dilate" in="SourceAlpha" result="effect1_dropShadow_376_5427"/>
<feOffset dx="-5" dy="-5"/>
<feGaussianBlur stdDeviation="2.5"/>
<feColorMatrix type="matrix" values="0 0 0 0 1 0 0 0 0 1 0 0 0 0 1 0 0 0 0.4 0"/>
<feBlend mode="normal" in2="BackgroundImageFix" result="effect1_dropShadow_376_5427"/>
<feColorMatrix in="SourceAlpha" type="matrix" values="0 0 0 0 0 0 0 0 0 0 0 0 0 0 0 0 0 0 127 0" result="hardAlpha"/>
<feMorphology radius="2" operator="dilate" in="SourceAlpha" result="effect2_dropShadow_376_5427"/>
<feOffset dx="5" dy="5"/>
<feGaussianBlur stdDeviation="5"/>
<feComposite in2="hardAlpha" operator="out"/>
<feColorMatrix type="matrix" values="0 0 0 0 0.635294 0 0 0 0 0.705882 0 0 0 0 0.776471 0 0 0 0.12 0"/>
<feBlend mode="normal" in2="effect1_dropShadow_376_5427" result="effect2_dropShadow_376_5427"/>
<feBlend mode="normal" in="SourceGraphic" in2="effect2_dropShadow_376_5427" result="shape"/>
<feColorMatrix in="SourceAlpha" type="matrix" values="0 0 0 0 0 0 0 0 0 0 0 0 0 0 0 0 0 0 127 0" result="hardAlpha"/>
<feOffset dx="2" dy="2"/>
<feGaussianBlur stdDeviation="2"/>
<feComposite in2="hardAlpha" operator="arithmetic" k2="-1" k3="1"/>
<feColorMatrix type="matrix" values="0 0 0 0 1 0 0 0 0 1 0 0 0 0 1 0 0 0 0.5 0"/>
<feBlend mode="normal" in2="shape" result="effect3_innerShadow_376_5427"/>
</filter>
</defs>
</svg>
