<svg width="235" height="94" viewBox="0 0 235 94" fill="none" xmlns="http://www.w3.org/2000/svg">
<g filter="url(#filter0_ddi_376_5444)">
<path d="M37.7952 46.4994C37.7952 51.5931 40.7552 55.9945 45.0474 58.0806L38.9092 41.2626C38.1734 42.9103 37.7938 44.6949 37.7952 46.4994V46.4994ZM59.3498 45.8501C59.3498 44.2598 58.7786 43.1585 58.2886 42.3012C57.6363 41.2413 57.0252 40.3437 57.0252 39.2837C57.0252 38.1008 57.9221 36.9997 59.1858 36.9997C59.2428 36.9997 59.2969 37.0068 59.3527 37.01C57.0631 34.9126 54.0131 33.6321 50.663 33.6321C46.1676 33.6321 42.2125 35.9386 39.9116 39.4321C40.2135 39.4411 40.4983 39.4473 40.7397 39.4473C42.0857 39.4473 44.1691 39.284 44.1691 39.284C44.8628 39.2431 44.9445 40.2619 44.2519 40.3439C44.2519 40.3439 43.5545 40.4259 42.7788 40.4666L47.4648 54.4047L50.281 45.9591L48.276 40.4663C47.583 40.4257 46.9266 40.3437 46.9266 40.3437C46.2332 40.303 46.3145 39.2428 47.0079 39.2837C47.0079 39.2837 49.1329 39.447 50.3974 39.447C51.743 39.447 53.8267 39.2837 53.8267 39.2837C54.5209 39.2428 54.6024 40.2616 53.9092 40.3437C53.9092 40.3437 53.2107 40.4257 52.4365 40.4663L57.0867 54.2989L58.3699 50.0099C58.9265 48.23 59.3498 46.9517 59.3498 45.8501V45.8501Z" fill="#00749A"/>
<path d="M50.8888 47.6251L47.028 58.8437C48.2083 59.1915 49.4325 59.3682 50.663 59.3681C52.1615 59.3681 53.5986 59.1088 54.9362 58.6387C54.9003 58.5826 54.8696 58.5232 54.8446 58.4615L50.8888 47.6251ZM61.9541 40.3259C62.0094 40.7358 62.0408 41.176 62.0408 41.6491C62.0408 42.9549 61.7969 44.4228 61.0623 46.2581L57.1318 57.6224C60.9573 55.3915 63.5304 51.247 63.5304 46.4996C63.5339 44.3417 62.9916 42.218 61.9541 40.3259V40.3259Z" fill="#00749A"/>
<path d="M50.6631 31.5C42.3923 31.5 35.663 38.2287 35.663 46.4995C35.663 54.7713 42.392 61.5 50.6631 61.5C58.9336 61.5 65.6638 54.7715 65.6638 46.4995C65.6636 38.2287 58.9336 31.5 50.6631 31.5ZM50.6631 60.8122C42.7715 60.8122 36.3508 54.3915 36.3508 46.4995C36.3508 38.6082 42.7713 32.188 50.6631 32.188C58.5543 32.188 64.9746 38.6082 64.9746 46.4995C64.9746 54.3915 58.5541 60.8122 50.6631 60.8122Z" fill="#00749A"/>
<path d="M76.5918 55L74.3838 38.2H77.5278L79.1598 52.792H79.5918L81.7038 38.2H87.1758L89.2878 52.792H89.7198L91.3518 38.2H94.4958L92.2878 55H86.8158L84.6558 40.072H84.2238L82.0638 55H76.5918ZM102.43 55.336C101.246 55.336 100.182 55.096 99.2377 54.616C98.2937 54.136 97.5497 53.44 97.0057 52.528C96.4617 51.616 96.1897 50.52 96.1897 49.24V48.856C96.1897 47.576 96.4617 46.48 97.0057 45.568C97.5497 44.656 98.2937 43.96 99.2377 43.48C100.182 43 101.246 42.76 102.43 42.76C103.614 42.76 104.678 43 105.622 43.48C106.566 43.96 107.31 44.656 107.854 45.568C108.398 46.48 108.67 47.576 108.67 48.856V49.24C108.67 50.52 108.398 51.616 107.854 52.528C107.31 53.44 106.566 54.136 105.622 54.616C104.678 55.096 103.614 55.336 102.43 55.336ZM102.43 52.648C103.358 52.648 104.126 52.352 104.734 51.76C105.342 51.152 105.646 50.288 105.646 49.168V48.928C105.646 47.808 105.342 46.952 104.734 46.36C104.142 45.752 103.374 45.448 102.43 45.448C101.502 45.448 100.734 45.752 100.126 46.36C99.5177 46.952 99.2137 47.808 99.2137 48.928V49.168C99.2137 50.288 99.5177 51.152 100.126 51.76C100.734 52.352 101.502 52.648 102.43 52.648ZM111.461 55V43.096H114.437V44.44H114.869C115.045 43.96 115.333 43.608 115.733 43.384C116.149 43.16 116.629 43.048 117.173 43.048H118.613V45.736H117.125C116.357 45.736 115.725 45.944 115.229 46.36C114.733 46.76 114.485 47.384 114.485 48.232V55H111.461ZM125.355 55.336C124.411 55.336 123.523 55.104 122.691 54.64C121.875 54.16 121.219 53.464 120.723 52.552C120.227 51.64 119.979 50.536 119.979 49.24V48.856C119.979 47.56 120.227 46.456 120.723 45.544C121.219 44.632 121.875 43.944 122.691 43.48C123.507 43 124.395 42.76 125.355 42.76C126.075 42.76 126.675 42.848 127.155 43.024C127.651 43.184 128.051 43.392 128.355 43.648C128.659 43.904 128.891 44.176 129.051 44.464H129.483V38.2H132.507V55H129.531V53.56H129.099C128.827 54.008 128.403 54.416 127.827 54.784C127.267 55.152 126.443 55.336 125.355 55.336ZM126.267 52.696C127.195 52.696 127.971 52.4 128.595 51.808C129.219 51.2 129.531 50.32 129.531 49.168V48.928C129.531 47.776 129.219 46.904 128.595 46.312C127.987 45.704 127.211 45.4 126.267 45.4C125.339 45.4 124.563 45.704 123.939 46.312C123.315 46.904 123.003 47.776 123.003 48.928V49.168C123.003 50.32 123.315 51.2 123.939 51.808C124.563 52.4 125.339 52.696 126.267 52.696ZM135.763 55V38.2H142.675C143.731 38.2 144.659 38.416 145.459 38.848C146.275 39.264 146.907 39.856 147.355 40.624C147.819 41.392 148.051 42.304 148.051 43.36V43.696C148.051 44.736 147.811 45.648 147.331 46.432C146.867 47.2 146.227 47.8 145.411 48.232C144.611 48.648 143.699 48.856 142.675 48.856H138.931V55H135.763ZM138.931 45.976H142.363C143.115 45.976 143.723 45.768 144.187 45.352C144.651 44.936 144.883 44.368 144.883 43.648V43.408C144.883 42.688 144.651 42.12 144.187 41.704C143.723 41.288 143.115 41.08 142.363 41.08H138.931V45.976ZM150.344 55V43.096H153.32V44.44H153.752C153.928 43.96 154.216 43.608 154.616 43.384C155.032 43.16 155.512 43.048 156.056 43.048H157.496V45.736H156.008C155.24 45.736 154.608 45.944 154.112 46.36C153.616 46.76 153.368 47.384 153.368 48.232V55H150.344ZM164.862 55.336C163.678 55.336 162.63 55.088 161.718 54.592C160.822 54.08 160.118 53.368 159.606 52.456C159.11 51.528 158.862 50.44 158.862 49.192V48.904C158.862 47.656 159.11 46.576 159.606 45.664C160.102 44.736 160.798 44.024 161.694 43.528C162.59 43.016 163.63 42.76 164.814 42.76C165.982 42.76 166.998 43.024 167.862 43.552C168.726 44.064 169.398 44.784 169.878 45.712C170.358 46.624 170.598 47.688 170.598 48.904V49.936H161.934C161.966 50.752 162.27 51.416 162.846 51.928C163.422 52.44 164.126 52.696 164.958 52.696C165.806 52.696 166.43 52.512 166.83 52.144C167.23 51.776 167.534 51.368 167.742 50.92L170.214 52.216C169.99 52.632 169.662 53.088 169.23 53.584C168.814 54.064 168.254 54.48 167.55 54.832C166.846 55.168 165.95 55.336 164.862 55.336ZM161.958 47.68H167.526C167.462 46.992 167.182 46.44 166.686 46.024C166.206 45.608 165.574 45.4 164.79 45.4C163.974 45.4 163.326 45.608 162.846 46.024C162.366 46.44 162.07 46.992 161.958 47.68ZM178.233 55.336C176.681 55.336 175.409 55 174.417 54.328C173.425 53.656 172.825 52.696 172.617 51.448L175.401 50.728C175.513 51.288 175.697 51.728 175.953 52.048C176.225 52.368 176.553 52.6 176.937 52.744C177.337 52.872 177.769 52.936 178.233 52.936C178.937 52.936 179.457 52.816 179.793 52.576C180.129 52.32 180.297 52.008 180.297 51.64C180.297 51.272 180.137 50.992 179.817 50.8C179.497 50.592 178.985 50.424 178.281 50.296L177.609 50.176C176.777 50.016 176.017 49.8 175.329 49.528C174.641 49.24 174.089 48.848 173.673 48.352C173.257 47.856 173.049 47.216 173.049 46.432C173.049 45.248 173.481 44.344 174.345 43.72C175.209 43.08 176.345 42.76 177.753 42.76C179.081 42.76 180.185 43.056 181.065 43.648C181.945 44.24 182.521 45.016 182.793 45.976L179.985 46.84C179.857 46.232 179.593 45.8 179.193 45.544C178.809 45.288 178.329 45.16 177.753 45.16C177.177 45.16 176.737 45.264 176.433 45.472C176.129 45.664 175.977 45.936 175.977 46.288C175.977 46.672 176.137 46.96 176.457 47.152C176.777 47.328 177.209 47.464 177.753 47.56L178.425 47.68C179.321 47.84 180.129 48.056 180.849 48.328C181.585 48.584 182.161 48.96 182.577 49.456C183.009 49.936 183.225 50.592 183.225 51.424C183.225 52.672 182.769 53.64 181.857 54.328C180.961 55 179.753 55.336 178.233 55.336ZM190.819 55.336C189.267 55.336 187.995 55 187.003 54.328C186.011 53.656 185.411 52.696 185.203 51.448L187.987 50.728C188.099 51.288 188.283 51.728 188.539 52.048C188.811 52.368 189.139 52.6 189.523 52.744C189.923 52.872 190.355 52.936 190.819 52.936C191.523 52.936 192.043 52.816 192.379 52.576C192.715 52.32 192.883 52.008 192.883 51.64C192.883 51.272 192.723 50.992 192.403 50.8C192.083 50.592 191.571 50.424 190.867 50.296L190.195 50.176C189.363 50.016 188.603 49.8 187.915 49.528C187.227 49.24 186.675 48.848 186.259 48.352C185.843 47.856 185.635 47.216 185.635 46.432C185.635 45.248 186.067 44.344 186.931 43.72C187.795 43.08 188.931 42.76 190.339 42.76C191.667 42.76 192.771 43.056 193.651 43.648C194.531 44.24 195.107 45.016 195.379 45.976L192.571 46.84C192.443 46.232 192.179 45.8 191.779 45.544C191.395 45.288 190.915 45.16 190.339 45.16C189.763 45.16 189.323 45.264 189.019 45.472C188.715 45.664 188.563 45.936 188.563 46.288C188.563 46.672 188.723 46.96 189.043 47.152C189.363 47.328 189.795 47.464 190.339 47.56L191.011 47.68C191.907 47.84 192.715 48.056 193.435 48.328C194.171 48.584 194.747 48.96 195.163 49.456C195.595 49.936 195.811 50.592 195.811 51.424C195.811 52.672 195.355 53.64 194.443 54.328C193.547 55 192.339 55.336 190.819 55.336Z" fill="black"/>
<rect x="16.163" y="15.5" width="201.001" height="62" rx="19.5" stroke="#F7F9FC"/>
</g>
<defs>
<filter id="filter0_ddi_376_5444" x="0.663025" y="0" width="234.001" height="95" filterUnits="userSpaceOnUse" color-interpolation-filters="sRGB">
<feFlood flood-opacity="0" result="BackgroundImageFix"/>
<feColorMatrix in="SourceAlpha" type="matrix" values="0 0 0 0 0 0 0 0 0 0 0 0 0 0 0 0 0 0 127 0" result="hardAlpha"/>
<feMorphology radius="5" operator="dilate" in="SourceAlpha" result="effect1_dropShadow_376_5444"/>
<feOffset dx="-5" dy="-5"/>
<feGaussianBlur stdDeviation="2.5"/>
<feColorMatrix type="matrix" values="0 0 0 0 1 0 0 0 0 1 0 0 0 0 1 0 0 0 0.4 0"/>
<feBlend mode="normal" in2="BackgroundImageFix" result="effect1_dropShadow_376_5444"/>
<feColorMatrix in="SourceAlpha" type="matrix" values="0 0 0 0 0 0 0 0 0 0 0 0 0 0 0 0 0 0 127 0" result="hardAlpha"/>
<feMorphology radius="2" operator="dilate" in="SourceAlpha" result="effect2_dropShadow_376_5444"/>
<feOffset dx="5" dy="5"/>
<feGaussianBlur stdDeviation="5"/>
<feComposite in2="hardAlpha" operator="out"/>
<feColorMatrix type="matrix" values="0 0 0 0 0.635294 0 0 0 0 0.705882 0 0 0 0 0.776471 0 0 0 0.12 0"/>
<feBlend mode="normal" in2="effect1_dropShadow_376_5444" result="effect2_dropShadow_376_5444"/>
<feBlend mode="normal" in="SourceGraphic" in2="effect2_dropShadow_376_5444" result="shape"/>
<feColorMatrix in="SourceAlpha" type="matrix" values="0 0 0 0 0 0 0 0 0 0 0 0 0 0 0 0 0 0 127 0" result="hardAlpha"/>
<feOffset dx="2" dy="2"/>
<feGaussianBlur stdDeviation="2"/>
<feComposite in2="hardAlpha" operator="arithmetic" k2="-1" k3="1"/>
<feColorMatrix type="matrix" values="0 0 0 0 1 0 0 0 0 1 0 0 0 0 1 0 0 0 0.5 0"/>
<feBlend mode="normal" in2="shape" result="effect3_innerShadow_376_5444"/>
</filter>
</defs>
</svg>
